{
.appVersion = "3108";
DisplayStrings = (
"AÁ/Abreve/Abreveacute/Abrevedotbelow/Abrevegrave/Abrevehookabove/Abrevetilde Â/Acircumflexacute/Acircumflexdotbelow/Acircumflexgrave/Acircumflexhookabove/Acircumflextilde/Adblgrave Ä/Adotbelow À/Ahookabove/Ainvertedbreve/Amacron/Aogonek/ringcomb.case Å/Aringacute/tildecomb.case ÃÆ/AEacute BC/Cacute/Ccaron Ç/circumflexcomb/circumflexcomb.case \0121///four.dnom \012/acutecomb ´á/cacute é/gacute í/lacute/nacute ó/racute/sacute ú/wacute ý/zacute é\012/gravecomb `àèìòù/wgrave/ygrave èLJ/LJ \012/circumflexcomb/circumflex â/acircumflexacute/acircumflexdotbelow/acircumflexgrave/acircumflexhookabove/acircumflextilde/ccircumflex ê/ecircumflexacute/ecircumflexdotbelow/ecircumflexgrave/ecircumflexhookabove/ecircumflextilde/gcircumflex/hcircumflex î/jcircumflex ô/ocircumflexacute/ocircumflexdotbelow/ocircumflexgrave/ocircumflexhookabove/ocircumflextilde/scircumflex û/wcircumflex/ycircumflex ê\012"
);
classes = (
{
automatic = 1;

glyphs = (
{
glyphname = A;
lastChange = "2022-05-05 09:13:26 +0000";
layers = (
{
anchors = (
{
name = bottom;
position = "{343, 0}";
},
{
name = ogonek;
position = "{590, 44}";
},
{
name = top;
position = "{343, 754}";
}
);
background = {
anchors = (
{
name = bottom;
position = "{343, 0}";
},
{
name = ogonek;
position = "{590, 44}";
},
{
name = top;
position = "{343, 754}";
}
);
paths = (
{
closed = 1;
nodes = (
"612 15 LINE",
"361 766 LINE",
"331 766 LINE",
"283 594 LINE",
"290 565 LINE",
"294 565 LINE",
"478 15 LINE"
);
},
{
closed = 1;
nodes = (
"224 0 LINE",
"224 25 LINE",
"-16 25 LINE",
"-16 0 LINE"
);
},
{
closed = 1;
nodes = (
"503 236 LINE",
"503 261 LINE",
"179 261 LINE",
"179 236 LINE"
);
},
{
closed = 1;
nodes = (
"701 0 LINE",
"701 25 LINE",
"358 25 LINE",
"358 0 LINE"
);
},
{
closed = 1;
nodes = (
"103 15 LINE",
"300 594 LINE",
"361 766 LINE",
"331 766 LINE",
"70 15 LINE"
);
}
);
};
layerId = UUID0;
paths = (
{
closed = 1;
nodes = (
"612 15 LINE",
"361 766 LINE",
"331 766 LINE",
"283 594 LINE",
"290 565 LINE",
"294 565 LINE",
"478 15 LINE"
);
},
{
closed = 1;
nodes = (
"224 0 LINE",
"224 25 LINE",
"-16 25 LINE",
"-16 0 LINE"
);
},
{
closed = 1;
nodes = (
"503 236 LINE",
"503 261 LINE",
"179 261 LINE",
"179 236 LINE"
);
},
{
closed = 1;
nodes = (
"701 0 LINE",
"701 25 LINE",
"358 25 LINE",
"358 0 LINE"
);
},
{
closed = 1;
nodes = (
"103 15 LINE",
"300 594 LINE",
"361 766 LINE",
"331 766 LINE",
"70 15 LINE"
);
}
);
width = 686;
},
{
anchors = (
{
name = bottom;
position = "{358, 0}";
},
{
name = ogonek;
position = "{643, 10}";
},
{
name = top;
position = "{383, 754}";
}
);
background = {
anchors = (
{
name = bottom;
position = "{358, 0}";
},
{
name = ogonek;
position = "{643, 10}";
},
{
name = top;
position = "{383, 754}";
}
);
paths = (
{
closed = 1;
nodes = (
"666 15 LINE",
"394 763 LINE",
"368 763 LINE",
"300 553 LINE",
"306 516 LINE",
"310 516 LINE",
"493 15 LINE"
);
},
{
closed = 1;
nodes = (
"229 0 LINE",
"229 30 LINE",
"-15 30 LINE",
"-15 0 LINE"
);
},
{
closed = 1;
nodes = (
"508 204 LINE",
"508 233 LINE",
"164 233 LINE",
"164 204 LINE"
);
},
{
closed = 1;
nodes = (
"730 0 LINE",
"730 30 LINE",
"383 30 LINE",
"383 0 LINE"
);
},
{
closed = 1;
nodes = (
"106 15 LINE",
"342 604 LINE",
"394 763 LINE",
"368 763 LINE",
"73 15 LINE"
);
}
);
};
layerId = "3AE1663F-34E8-4710-91A2-69F84C961E5F";
paths = (
{
closed = 1;
nodes = (
"666 15 LINE",
"394 763 LINE",
"368 763 LINE",
"300 553 LINE",
"306 516 LINE",
"310 516 LINE",
"493 15 LINE"
);
},
{
closed = 1;
nodes = (
"229 0 LINE",
"229 30 LINE",
"-15 30 LINE",
"-15 0 LINE"
);
},
{
closed = 1;
nodes = (
"508 204 LINE",
"508 233 LINE",
"164 233 LINE",
"164 204 LINE"
);
},
{
closed = 1;
nodes = (
"730 0 LINE",
"730 30 LINE",
"383 30 LINE",
"383 0 LINE"
);
},
{
closed = 1;
nodes = (
"106 15 LINE",
"342 604 LINE",
"394 763 LINE",
"368 763 LINE",
"73 15 LINE"
);
}
);
width = 715;
}
);
leftKerningGroup = A;
rightKerningGroup = A;
unicode = 0041;
},
{
glyphname = Aacute;
lastChange = "2022-05-05 12:24:37 +0000";
layers = (
{
background = {
anchors = (
{
name = bottom;
position = "{343, 0}";
},
{
name = ogonek;
position = "{590, 44}";
},
{
name = top;
position = "{343, 959}";
}
);
paths = (
{
closed = 1;
nodes = (
"612 15 LINE",
"361 766 LINE",
"331 766 LINE",
"283 594 LINE",
"290 565 LINE",
"294 565 LINE",
"478 15 LINE"
);
},
{
closed = 1;
nodes = (
"224 0 LINE",
"224 25 LINE",
"-16 25 LINE",
"-16 0 LINE"
);
},
{
closed = 1;
nodes = (
"503 236 LINE",
"503 261 LINE",
"179 261 LINE",
"179 236 LINE"
);
},
{
closed = 1;
nodes = (
"701 0 LINE",
"701 25 LINE",
"358 25 LINE",
"358 0 LINE"
);
},
{
closed = 1;
nodes = (
"103 15 LINE",
"300 594 LINE",
"361 766 LINE",
"331 766 LINE",
"70 15 LINE"
);
},
{
closed = 1;
nodes = (
"252 827 LINE",
"427 863 LINE SMOOTH",
"460 870 OFFCURVE",
"477 890 OFFCURVE",
"477 916 CURVE SMOOTH",
"477 942 OFFCURVE",
"461 959 OFFCURVE",
"433 959 CURVE SMOOTH",
"419 959 OFFCURVE",
"407 953 OFFCURVE",
"360 923 CURVE SMOOTH",
"209 827 LINE"
);
}
);
};
components = (
{
name = A;
},
{
name = acutecomb.case;
transform = "{1, 0, 0, 1, 199, 35}";
}
);
layerId = UUID0;
width = 686;
},
{
background = {
anchors = (
{
name = bottom;
position = "{358, 0}";
},
{
name = ogonek;
position = "{643, 10}";
},
{
name = top;
position = "{383, 960}";
}
);
paths = (
{
closed = 1;
nodes = (
"666 15 LINE",
"394 763 LINE",
"368 763 LINE",
"300 553 LINE",
"306 516 LINE",
"310 516 LINE",
"493 15 LINE"
);
},
{
closed = 1;
nodes = (
"229 0 LINE",
"229 30 LINE",
"-15 30 LINE",
"-15 0 LINE"
);
},
{
closed = 1;
nodes = (
"508 204 LINE",
"508 233 LINE",
"164 233 LINE",
"164 204 LINE"
);
},
{
closed = 1;
nodes = (
"730 0 LINE",
"730 30 LINE",
"383 30 LINE",
"383 0 LINE"
);
},
{
closed = 1;
nodes = (
"106 15 LINE",
"342 604 LINE",
"394 763 LINE",
"368 763 LINE",
"73 15 LINE"
);
},
{
closed = 1;
nodes = (
"299 823 LINE",
"476 858 LINE SMOOTH",
"520 867 OFFCURVE",
"529 891 OFFCURVE",
"529 914 CURVE SMOOTH",
"529 938 OFFCURVE",
"512 960 OFFCURVE",
"479 960 CURVE SMOOTH",
"450 960 OFFCURVE",
"432 950 OFFCURVE",
"397 927 CURVE SMOOTH",
"236 823 LINE"
);
}
);
};
components = (
{
name = A;
},
{
name = acutecomb.case;
transform = "{1, 0, 0, 1, 226, 37}";
}
);
layerId = "3AE1663F-34E8-4710-91A2-69F84C961E5F";
width = 715;
}
);
leftKerningGroup = A;
rightKerningGroup = A;
unicode = 00C1;
},
{
glyphname = Abreve;
lastChange = "2022-05-05 11:58:11 +0000";
layers = (
{
background = {
anchors = (
{
name = bottom;
position = "{343, 0}";
},
{
name = ogonek;
position = "{590, 44}";
},
{
name = top;
position = "{343, 952}";
}
);
paths = (
{
closed = 1;
nodes = (
"612 15 LINE",
"361 766 LINE",
"331 766 LINE",
"283 594 LINE",
"290 565 LINE",
"294 565 LINE",
"478 15 LINE"
);
},
{
closed = 1;
nodes = (
"224 0 LINE",
"224 25 LINE",
"-16 25 LINE",
"-16 0 LINE"
);
},
{
closed = 1;
nodes = (
"503 236 LINE",
"503 261 LINE",
"179 261 LINE",
"179 236 LINE"
);
},
{
closed = 1;
nodes = (
"701 0 LINE",
"701 25 LINE",
"358 25 LINE",
"358 0 LINE"
);
},
{
closed = 1;
nodes = (
"103 15 LINE",
"300 594 LINE",
"361 766 LINE",
"331 766 LINE",
"70 15 LINE"
);
},
{
closed = 1;
nodes = (
"449 820 OFFCURVE",
"479 875 OFFCURVE",
"479 952 CURVE",
"445 952 LINE",
"442 908 OFFCURVE",
"412 888 OFFCURVE",
"341 888 CURVE SMOOTH",
"271 888 OFFCURVE",
"243 906 OFFCURVE",
"240 952 CURVE",
"206 952 LINE",
"206 871 OFFCURVE",
"240 820 OFFCURVE",
"343 820 CURVE SMOOTH"
);
}
);
};
components = (
{
name = A;
},
{
name = brevecomb.case;
transform = "{1, 0, 0, 1, 176, 61}";
}
);
layerId = UUID0;
width = 686;
},
{
background = {
anchors = (
{
name = bottom;
position = "{358, 0}";
},
{
name = ogonek;
position = "{643, 10}";
},
{
name = top;
position = "{383, 962}";
}
);
paths = (
{
closed = 1;
nodes = (
"666 15 LINE",
"394 763 LINE",
"368 763 LINE",
"300 553 LINE",
"306 516 LINE",
"310 516 LINE",
"493 15 LINE"
);
},
{
closed = 1;
nodes = (
"229 0 LINE",
"229 30 LINE",
"-15 30 LINE",
"-15 0 LINE"
);
},
{
closed = 1;
nodes = (
"508 204 LINE",
"508 233 LINE",
"164 233 LINE",
"164 204 LINE"
);
},
{
closed = 1;
nodes = (
"730 0 LINE",
"730 30 LINE",
"383 30 LINE",
"383 0 LINE"
);
},
{
closed = 1;
nodes = (
"106 15 LINE",
"342 604 LINE",
"394 763 LINE",
"368 763 LINE",
"73 15 LINE"
);
},
{
closed = 1;
nodes = (
"476 825 OFFCURVE",
"529 885 OFFCURVE",
"529 962 CURVE",
"485 962 LINE",
"482 932 OFFCURVE",
"432 918 OFFCURVE",
"381 918 CURVE SMOOTH",
"331 918 OFFCURVE",
"283 930 OFFCURVE",
"280 962 CURVE",
"236 962 LINE",
"236 881 OFFCURVE",
"293 825 OFFCURVE",
"383 825 CURVE SMOOTH"
);
}
);
};
components = (
{
name = A;
},
{
name = brevecomb.case;
transform = "{1, 0, 0, 1, 206, 41}";
}
);
guideLines = (
{
position = "{383, 518}";
}
);
layerId = "3AE1663F-34E8-4710-91A2-69F84C961E5F";
width = 715;
}
);
leftKerningGroup = A;
rightKerningGroup = A;
unicode = 0102;
},
{
glyphname = Abreveacute;
lastChange = "2022-05-05 11:56:26 +0000";
layers = (
{
background = {
anchors = (
{
name = bottom;
position = "{343, 0}";
},
{
name = ogonek;
position = "{590, 44}";
},
{
name = top;
position = "{343, 1157}";
}
);
paths = (
{
closed = 1;
nodes = (
"612 15 LINE",
"361 766 LINE",
"331 766 LINE",
"283 594 LINE",
"290 565 LINE",
"294 565 LINE",
"478 15 LINE"
);
},
{
closed = 1;
nodes = (
"224 0 LINE",
"224 25 LINE",
"-16 25 LINE",
"-16 0 LINE"
);
},
{
closed = 1;
nodes = (
"503 236 LINE",
"503 261 LINE",
"179 261 LINE",
"179 236 LINE"
);
},
{
closed = 1;
nodes = (
"701 0 LINE",
"701 25 LINE",
"358 25 LINE",
"358 0 LINE"
);
},
{
closed = 1;
nodes = (
"103 15 LINE",
"300 594 LINE",
"361 766 LINE",
"331 766 LINE",
"70 15 LINE"
);
},
{
closed = 1;
nodes = (
"449 820 OFFCURVE",
"479 875 OFFCURVE",
"479 952 CURVE",
"445 952 LINE",
"442 908 OFFCURVE",
"412 888 OFFCURVE",
"341 888 CURVE SMOOTH",
"271 888 OFFCURVE",
"243 906 OFFCURVE",
"240 952 CURVE",
"206 952 LINE",
"206 871 OFFCURVE",
"240 820 OFFCURVE",
"343 820 CURVE SMOOTH"
);
},
{
closed = 1;
nodes = (
"252 1025 LINE",
"427 1061 LINE SMOOTH",
"460 1068 OFFCURVE",
"477 1088 OFFCURVE",
"477 1114 CURVE SMOOTH",
"477 1140 OFFCURVE",
"461 1157 OFFCURVE",
"433 1157 CURVE SMOOTH",
"419 1157 OFFCURVE",
"407 1151 OFFCURVE",
"360 1121 CURVE SMOOTH",
"209 1025 LINE"
);
}
);
};
components = (
{
name = A;
},
{
name = brevecomb_acutecomb;
transform = "{1, 0, 0, 1, 176, 304}";
}
);
layerId = UUID0;
width = 686;
},
{
background = {
anchors = (
{
name = bottom;
position = "{358, 0}";
},
{
name = ogonek;
position = "{643, 10}";
},
{
name = top;
position = "{383, 1168}";
}
);
paths = (
{
closed = 1;
nodes = (
"666 15 LINE",
"394 763 LINE",
"368 763 LINE",
"300 553 LINE",
"306 516 LINE",
"310 516 LINE",
"493 15 LINE"
);
},
{
closed = 1;
nodes = (
"229 0 LINE",
"229 30 LINE",
"-15 30 LINE",
"-15 0 LINE"
);
},
{
closed = 1;
nodes = (
"508 204 LINE",
"508 233 LINE",
"164 233 LINE",
"164 204 LINE"
);
},
{
closed = 1;
nodes = (
"730 0 LINE",
"730 30 LINE",
"383 30 LINE",
"383 0 LINE"
);
},
{
closed = 1;
nodes = (
"106 15 LINE",
"342 604 LINE",
"394 763 LINE",
"368 763 LINE",
"73 15 LINE"
);
},
{
closed = 1;
nodes = (
"476 825 OFFCURVE",
"529 885 OFFCURVE",
"529 962 CURVE",
"485 962 LINE",
"482 932 OFFCURVE",
"432 918 OFFCURVE",
"381 918 CURVE SMOOTH",
"331 918 OFFCURVE",
"283 930 OFFCURVE",
"280 962 CURVE",
"236 962 LINE",
"236 881 OFFCURVE",
"293 825 OFFCURVE",
"383 825 CURVE SMOOTH"
);
},
{
closed = 1;
nodes = (
"299 1031 LINE",
"476 1066 LINE SMOOTH",
"520 1075 OFFCURVE",
"529 1099 OFFCURVE",
"529 1122 CURVE SMOOTH",
"529 1146 OFFCURVE",
"512 1168 OFFCURVE",
"479 1168 CURVE SMOOTH",
"450 1168 OFFCURVE",
"432 1158 OFFCURVE",
"397 1135 CURVE SMOOTH",
"236 1031 LINE"
);
}
);
};
components = (
{
name = A;
},
{
name = brevecomb_acutecomb;
transform = "{1, 0, 0, 1, 85, 304}";
}
);
layerId = "3AE1663F-34E8-4710-91A2-69F84C961E5F";
width = 715;
}
);
leftKerningGroup = A;
rightKerningGroup = A;
unicode = 1EAE;
},
{
glyphname = Abrevedotbelow;
lastChange = "2022-05-05 11:19:39 +0000";
layers = (
{
background = {
anchors = (
{
name = bottom;
position = "{343, -231}";
},
{
name = ogonek;
position = "{590, 44}";
},
{
name = top;
position = "{343, 952}";
}
);
paths = (
{
closed = 1;
nodes = (
"612 15 LINE",
"361 766 LINE",
"331 766 LINE",
"283 594 LINE",
"290 565 LINE",
"294 565 LINE",
"478 15 LINE"
);
},
{
closed = 1;
nodes = (
"224 0 LINE",
"224 25 LINE",
"-16 25 LINE",
"-16 0 LINE"
);
},
{
closed = 1;
nodes = (
"503 236 LINE",
"503 261 LINE",
"179 261 LINE",
"179 236 LINE"
);
},
{
closed = 1;
nodes = (
"701 0 LINE",
"701 25 LINE",
"358 25 LINE",
"358 0 LINE"
);
},
{
closed = 1;
nodes = (
"103 15 LINE",
"300 594 LINE",
"361 766 LINE",
"331 766 LINE",
"70 15 LINE"
);
},
{
closed = 1;
nodes = (
"379 -231 OFFCURVE",
"409 -201 OFFCURVE",
"409 -165 CURVE SMOOTH",
"409 -129 OFFCURVE",
"379 -99 OFFCURVE",
"343 -99 CURVE SMOOTH",
"307 -99 OFFCURVE",
"277 -129 OFFCURVE",
"277 -165 CURVE SMOOTH",
"277 -201 OFFCURVE",
"307 -231 OFFCURVE",
"343 -231 CURVE SMOOTH"
);
},
{
closed = 1;
nodes = (
"449 820 OFFCURVE",
"479 875 OFFCURVE",
"479 952 CURVE",
"445 952 LINE",
"442 908 OFFCURVE",
"412 888 OFFCURVE",
"341 888 CURVE SMOOTH",
"271 888 OFFCURVE",
"243 906 OFFCURVE",
"240 952 CURVE",
"206 952 LINE",
"206 871 OFFCURVE",
"240 820 OFFCURVE",
"343 820 CURVE SMOOTH"
);
}
);
};
components = (
{
name = A;
},
{
name = dotbelowcomb;
transform = "{1, 0, 0, 1, 59, 0}";
},
{
name = brevecomb.case;
transform = "{1, 0, 0, 1, 176, 61}";
}
);
layerId = UUID0;
width = 686;
},
{
background = {
anchors = (
{
name = bottom;
position = "{358, -260}";
},
{
name = ogonek;
position = "{643, 10}";
},
{
name = top;
position = "{383, 962}";
}
);
paths = (
{
closed = 1;
nodes = (
"666 15 LINE",
"394 763 LINE",
"368 763 LINE",
"300 553 LINE",
"306 516 LINE",
"310 516 LINE",
"493 15 LINE"
);
},
{
closed = 1;
nodes = (
"229 0 LINE",
"229 30 LINE",
"-15 30 LINE",
"-15 0 LINE"
);
},
{
closed = 1;
nodes = (
"508 204 LINE",
"508 233 LINE",
"164 233 LINE",
"164 204 LINE"
);
},
{
closed = 1;
nodes = (
"730 0 LINE",
"730 30 LINE",
"383 30 LINE",
"383 0 LINE"
);
},
{
closed = 1;
nodes = (
"106 15 LINE",
"342 604 LINE",
"394 763 LINE",
"368 763 LINE",
"73 15 LINE"
);
},
{
closed = 1;
nodes = (
"401 -260 OFFCURVE",
"438 -223 OFFCURVE",
"438 -180 CURVE SMOOTH",
"438 -136 OFFCURVE",
"401 -99 OFFCURVE",
"357 -99 CURVE SMOOTH",
"314 -99 OFFCURVE",
"277 -136 OFFCURVE",
"277 -180 CURVE SMOOTH",
"277 -223 OFFCURVE",
"314 -260 OFFCURVE",
"357 -260 CURVE SMOOTH"
);
},
{
closed = 1;
nodes = (
"476 825 OFFCURVE",
"529 885 OFFCURVE",
"529 962 CURVE",
"485 962 LINE",
"482 932 OFFCURVE",
"432 918 OFFCURVE",
"381 918 CURVE SMOOTH",
"331 918 OFFCURVE",
"283 930 OFFCURVE",
"280 962 CURVE",
"236 962 LINE",
"236 881 OFFCURVE",
"293 825 OFFCURVE",
"383 825 CURVE SMOOTH"
);
}
);
};
components = (
{
name = A;
},
{
name = dotbelowcomb;
transform = "{1, 0, 0, 1, 65, 0}";
},
{
name = brevecomb.case;
transform = "{1, 0, 0, 1, 206, 41}";
}
);
layerId = "3AE1663F-34E8-4710-91A2-69F84C961E5F";
width = 715;
}
);
leftKerningGroup = A;
rightKerningGroup = A;
unicode = 1EB6;
},
{
glyphname = Abrevegrave;
lastChange = "2022-05-05 11:57:09 +0000";
layers = (
{
background = {
anchors = (
{
name = bottom;
position = "{343, 0}";
},
{
name = ogonek;
position = "{590, 44}";
},
{
name = top;
position = "{343, 1152}";
}
);
paths = (
{
closed = 1;
nodes = (
"612 15 LINE",
"361 766 LINE",
"331 766 LINE",
"283 594 LINE",
"290 565 LINE",
"294 565 LINE",
"478 15 LINE"
);
},
{
closed = 1;
nodes = (
"224 0 LINE",
"224 25 LINE",
"-16 25 LINE",
"-16 0 LINE"
);
},
{
closed = 1;
nodes = (
"503 236 LINE",
"503 261 LINE",
"179 261 LINE",
"179 236 LINE"
);
},
{
closed = 1;
nodes = (
"701 0 LINE",
"701 25 LINE",
"358 25 LINE",
"358 0 LINE"
);
},
{
closed = 1;
nodes = (
"103 15 LINE",
"300 594 LINE",
"361 766 LINE",
"331 766 LINE",
"70 15 LINE"
);
},
{
closed = 1;
nodes = (
"449 820 OFFCURVE",
"479 875 OFFCURVE",
"479 952 CURVE",
"445 952 LINE",
"442 908 OFFCURVE",
"412 888 OFFCURVE",
"341 888 CURVE SMOOTH",
"271 888 OFFCURVE",
"243 906 OFFCURVE",
"240 952 CURVE",
"206 952 LINE",
"206 871 OFFCURVE",
"240 820 OFFCURVE",
"343 820 CURVE SMOOTH"
);
},
{
closed = 1;
nodes = (
"477 1020 LINE",
"326 1116 LINE SMOOTH",
"279 1146 OFFCURVE",
"267 1152 OFFCURVE",
"253 1152 CURVE SMOOTH",
"225 1152 OFFCURVE",
"209 1135 OFFCURVE",
"209 1109 CURVE SMOOTH",
"209 1083 OFFCURVE",
"226 1063 OFFCURVE",
"259 1056 CURVE SMOOTH",
"434 1020 LINE"
);
}
);
};
components = (
{
name = A;
},
{
name = brevecomb_gravecomb;
transform = "{1, 0, 0, 1, 176, 304}";
}
);
layerId = UUID0;
width = 686;
},
{
background = {
anchors = (
{
name = bottom;
position = "{358, 0}";
},
{
name = ogonek;
position = "{643, 10}";
},
{
name = top;
position = "{383, 1192}";
}
);
paths = (
{
closed = 1;
nodes = (
"666 15 LINE",
"394 763 LINE",
"368 763 LINE",
"300 553 LINE",
"306 516 LINE",
"310 516 LINE",
"493 15 LINE"
);
},
{
closed = 1;
nodes = (
"229 0 LINE",
"229 30 LINE",
"-15 30 LINE",
"-15 0 LINE"
);
},
{
closed = 1;
nodes = (
"508 204 LINE",
"508 233 LINE",
"164 233 LINE",
"164 204 LINE"
);
},
{
closed = 1;
nodes = (
"730 0 LINE",
"730 30 LINE",
"383 30 LINE",
"383 0 LINE"
);
},
{
closed = 1;
nodes = (
"106 15 LINE",
"342 604 LINE",
"394 763 LINE",
"368 763 LINE",
"73 15 LINE"
);
},
{
closed = 1;
nodes = (
"476 825 OFFCURVE",
"529 885 OFFCURVE",
"529 962 CURVE",
"485 962 LINE",
"482 932 OFFCURVE",
"432 918 OFFCURVE",
"381 918 CURVE SMOOTH",
"331 918 OFFCURVE",
"283 930 OFFCURVE",
"280 962 CURVE",
"236 962 LINE",
"236 881 OFFCURVE",
"293 825 OFFCURVE",
"383 825 CURVE SMOOTH"
);
},
{
closed = 1;
nodes = (
"529 1038 LINE",
"368 1142 LINE SMOOTH",
"333 1165 OFFCURVE",
"315 1175 OFFCURVE",
"286 1175 CURVE SMOOTH",
"253 1175 OFFCURVE",
"236 1153 OFFCURVE",
"236 1129 CURVE SMOOTH",
"236 1106 OFFCURVE",
"245 1082 OFFCURVE",
"289 1073 CURVE SMOOTH",
"466 1038 LINE"
);
}
);
};
components = (
{
name = A;
},
{
name = brevecomb_gravecomb;
transform = "{1, 0, 0, 1, 85, 304}";
}
);
layerId = "3AE1663F-34E8-4710-91A2-69F84C961E5F";
width = 715;
}
);
leftKerningGroup = A;
rightKerningGroup = A;
unicode = 1EB0;
},
{
glyphname = Abrevehookabove;
lastChange = "2022-05-05 11:57:24 +0000";
layers = (
{
background = {
anchors = (
{
name = bottom;
position = "{343, 0}";
},
{
name = ogonek;
position = "{590, 44}";
},
{
name = top;
position = "{343, 1172}";
}
);
paths = (
{
closed = 1;
nodes = (
"612 15 LINE",
"361 766 LINE",
"331 766 LINE",
"283 594 LINE",
"290 565 LINE",
"294 565 LINE",
"478 15 LINE"
);
},
{
closed = 1;
nodes = (
"224 0 LINE",
"224 25 LINE",
"-16 25 LINE",
"-16 0 LINE"
);
},
{
closed = 1;
nodes = (
"503 236 LINE",
"503 261 LINE",
"179 261 LINE",
"179 236 LINE"
);
},
{
closed = 1;
nodes = (
"701 0 LINE",
"701 25 LINE",
"358 25 LINE",
"358 0 LINE"
);
},
{
closed = 1;
nodes = (
"103 15 LINE",
"300 594 LINE",
"361 766 LINE",
"331 766 LINE",
"70 15 LINE"
);
},
{
closed = 1;
nodes = (
"449 820 OFFCURVE",
"479 875 OFFCURVE",
"479 952 CURVE",
"445 952 LINE",
"442 908 OFFCURVE",
"412 888 OFFCURVE",
"341 888 CURVE SMOOTH",
"271 888 OFFCURVE",
"243 906 OFFCURVE",
"240 952 CURVE",
"206 952 LINE",
"206 871 OFFCURVE",
"240 820 OFFCURVE",
"343 820 CURVE SMOOTH"
);
},
{
closed = 1;
nodes = (
"363 956 LINE",
"375 982 OFFCURVE",
"432 992 OFFCURVE",
"432 1032 CURVE SMOOTH",
"432 1089 OFFCURVE",
"392 1115 OFFCURVE",
"332 1115 CURVE SMOOTH",
"288 1115 OFFCURVE",
"239 1094 OFFCURVE",
"239 1035 CURVE SMOOTH",
"239 1015 OFFCURVE",
"255 1000 OFFCURVE",
"278 1000 CURVE SMOOTH",
"299 1000 OFFCURVE",
"310 1008 OFFCURVE",
"310 1022 CURVE SMOOTH",
"310 1040 OFFCURVE",
"297 1038 OFFCURVE",
"297 1050 CURVE SMOOTH",
"297 1065 OFFCURVE",
"313 1075 OFFCURVE",
"334 1075 CURVE SMOOTH",
"354 1075 OFFCURVE",
"373 1068 OFFCURVE",
"373 1030 CURVE SMOOTH",
"373 1006 OFFCURVE",
"336 992 OFFCURVE",
"336 956 CURVE"
);
}
);
};
components = (
{
name = A;
},
{
name = brevecomb_hookabovecomb;
transform = "{1, 0, 0, 1, 176, 304}";
}
);
layerId = UUID0;
width = 686;
},
{
background = {
anchors = (
{
name = bottom;
position = "{358, 0}";
},
{
name = ogonek;
position = "{643, 10}";
},
{
name = top;
position = "{383, 1202}";
}
);
paths = (
{
closed = 1;
nodes = (
"666 15 LINE",
"394 763 LINE",
"368 763 LINE",
"300 553 LINE",
"306 516 LINE",
"310 516 LINE",
"493 15 LINE"
);
},
{
closed = 1;
nodes = (
"229 0 LINE",
"229 30 LINE",
"-15 30 LINE",
"-15 0 LINE"
);
},
{
closed = 1;
nodes = (
"508 204 LINE",
"508 233 LINE",
"164 233 LINE",
"164 204 LINE"
);
},
{
closed = 1;
nodes = (
"730 0 LINE",
"730 30 LINE",
"383 30 LINE",
"383 0 LINE"
);
},
{
closed = 1;
nodes = (
"106 15 LINE",
"342 604 LINE",
"394 763 LINE",
"368 763 LINE",
"73 15 LINE"
);
},
{
closed = 1;
nodes = (
"476 825 OFFCURVE",
"529 885 OFFCURVE",
"529 962 CURVE",
"485 962 LINE",
"482 932 OFFCURVE",
"432 918 OFFCURVE",
"381 918 CURVE SMOOTH",
"331 918 OFFCURVE",
"283 930 OFFCURVE",
"280 962 CURVE",
"236 962 LINE",
"236 881 OFFCURVE",
"293 825 OFFCURVE",
"383 825 CURVE SMOOTH"
);
},
{
closed = 1;
nodes = (
"396 964 LINE",
"396 1014 OFFCURVE",
"470 995 OFFCURVE",
"470 1057 CURVE SMOOTH",
"470 1128 OFFCURVE",
"435 1157 OFFCURVE",
"362 1157 CURVE SMOOTH",
"302 1157 OFFCURVE",
"255 1130 OFFCURVE",
"255 1065 CURVE SMOOTH",
"255 1035 OFFCURVE",
"275 1016 OFFCURVE",
"299 1016 CURVE SMOOTH",
"316 1016 OFFCURVE",
"338 1023 OFFCURVE",
"338 1042 CURVE SMOOTH",
"338 1070 OFFCURVE",
"317 1058 OFFCURVE",
"317 1082 CURVE SMOOTH",
"317 1096 OFFCURVE",
"334 1114 OFFCURVE",
"362 1114 CURVE SMOOTH",
"391 1114 OFFCURVE",
"408 1098 OFFCURVE",
"408 1066 CURVE SMOOTH",
"408 1042 OFFCURVE",
"357 1034 OFFCURVE",
"357 964 CURVE"
);
}
);
};
components = (
{
name = A;
},
{
name = brevecomb_hookabovecomb;
transform = "{1, 0, 0, 1, 85, 304}";
}
);
layerId = "3AE1663F-34E8-4710-91A2-69F84C961E5F";
width = 715;
}
);
leftKerningGroup = A;
rightKerningGroup = A;
unicode = 1EB2;
},
{
glyphname = Abrevetilde;
lastChange = "2022-05-05 11:57:47 +0000";
layers = (
{
background = {
anchors = (
{
name = bottom;
position = "{343, 0}";
},
{
name = ogonek;
position = "{590, 44}";
},
{
name = top;
position = "{343, 1155}";
}
);
paths = (
{
closed = 1;
nodes = (
"612 15 LINE",
"361 766 LINE",
"331 766 LINE",
"283 594 LINE",
"290 565 LINE",
"294 565 LINE",
"478 15 LINE"
);
},
{
closed = 1;
nodes = (
"224 0 LINE",
"224 25 LINE",
"-16 25 LINE",
"-16 0 LINE"
);
},
{
closed = 1;
nodes = (
"503 236 LINE",
"503 261 LINE",
"179 261 LINE",
"179 236 LINE"
);
},
{
closed = 1;
nodes = (
"701 0 LINE",
"701 25 LINE",
"358 25 LINE",
"358 0 LINE"
);
},
{
closed = 1;
nodes = (
"103 15 LINE",
"300 594 LINE",
"361 766 LINE",
"331 766 LINE",
"70 15 LINE"
);
},
{
closed = 1;
nodes = (
"449 820 OFFCURVE",
"479 875 OFFCURVE",
"479 952 CURVE",
"445 952 LINE",
"442 908 OFFCURVE",
"412 888 OFFCURVE",
"341 888 CURVE SMOOTH",
"271 888 OFFCURVE",
"243 906 OFFCURVE",
"240 952 CURVE",
"206 952 LINE",
"206 871 OFFCURVE",
"240 820 OFFCURVE",
"343 820 CURVE SMOOTH"
);
},
{
closed = 1;
nodes = (
"200 990 LINE",
"207 1018 OFFCURVE",
"230 1039 OFFCURVE",
"263 1039 CURVE SMOOTH",
"310 1039 OFFCURVE",
"344 991 OFFCURVE",
"400 991 CURVE SMOOTH",
"469 991 OFFCURVE",
"505 1055 OFFCURVE",
"519 1118 CURVE",
"485 1118 LINE",
"478 1097 OFFCURVE",
"460 1067 OFFCURVE",
"422 1067 CURVE SMOOTH",
"376 1067 OFFCURVE",
"339 1115 OFFCURVE",
"285 1115 CURVE SMOOTH",
"219 1115 OFFCURVE",
"177 1052 OFFCURVE",
"167 990 CURVE"
);
}
);
};
components = (
{
name = A;
},
{
name = brevecomb_tildecomb;
transform = "{1, 0, 0, 1, 137, 304}";
}
);
layerId = UUID0;
width = 686;
},
{
background = {
anchors = (
{
name = bottom;
position = "{358, 0}";
},
{
name = ogonek;
position = "{643, 10}";
},
{
name = top;
position = "{383, 1165}";
}
);
paths = (
{
closed = 1;
nodes = (
"666 15 LINE",
"394 763 LINE",
"368 763 LINE",
"300 553 LINE",
"306 516 LINE",
"310 516 LINE",
"493 15 LINE"
);
},
{
closed = 1;
nodes = (
"229 0 LINE",
"229 30 LINE",
"-15 30 LINE",
"-15 0 LINE"
);
},
{
closed = 1;
nodes = (
"508 204 LINE",
"508 233 LINE",
"164 233 LINE",
"164 204 LINE"
);
},
{
closed = 1;
nodes = (
"730 0 LINE",
"730 30 LINE",
"383 30 LINE",
"383 0 LINE"
);
},
{
closed = 1;
nodes = (
"106 15 LINE",
"342 604 LINE",
"394 763 LINE",
"368 763 LINE",
"73 15 LINE"
);
},
{
closed = 1;
nodes = (
"476 825 OFFCURVE",
"529 885 OFFCURVE",
"529 962 CURVE",
"485 962 LINE",
"482 932 OFFCURVE",
"432 918 OFFCURVE",
"381 918 CURVE SMOOTH",
"331 918 OFFCURVE",
"283 930 OFFCURVE",
"280 962 CURVE",
"236 962 LINE",
"236 881 OFFCURVE",
"293 825 OFFCURVE",
"383 825 CURVE SMOOTH"
);
},
{
closed = 1;
nodes = (
"220 1008 LINE",
"229 1032 OFFCURVE",
"260 1049 OFFCURVE",
"303 1049 CURVE SMOOTH",
"350 1049 OFFCURVE",
"384 1009 OFFCURVE",
"440 1009 CURVE SMOOTH",
"521 1009 OFFCURVE",
"563 1077 OFFCURVE",
"579 1145 CURVE",
"545 1145 LINE",
"536 1128 OFFCURVE",
"512 1105 OFFCURVE",
"462 1105 CURVE SMOOTH",
"416 1105 OFFCURVE",
"379 1145 OFFCURVE",
"325 1145 CURVE SMOOTH",
"247 1145 OFFCURVE",
"199 1075 OFFCURVE",
"187 1008 CURVE"
);
}
);
};
components = (
{
name = A;
},
{
name = brevecomb_tildecomb;
transform = "{1, 0, 0, 1, 85, 304}";
}
);
layerId = "3AE1663F-34E8-4710-91A2-69F84C961E5F";
width = 715;
}
);
leftKerningGroup = A;
rightKerningGroup = A;
unicode = 1EB4;
},
{
glyphname = Acircumflex;
lastChange = "2022-05-05 12:24:42 +0000";
layers = (
{
background = {
anchors = (
{
name = bottom;
position = "{343, 0}";
},
{
name = ogonek;
position = "{590, 44}";
},
{
name = top;
position = "{343, 881}";
}
);
paths = (
{
closed = 1;
nodes = (
"612 15 LINE",
"361 766 LINE",
"331 766 LINE",
"283 594 LINE",
"290 565 LINE",
"294 565 LINE",
"478 15 LINE"
);
},
{
closed = 1;
nodes = (
"224 0 LINE",
"224 25 LINE",
"-16 25 LINE",
"-16 0 LINE"
);
},
{
closed = 1;
nodes = (
"503 236 LINE",
"503 261 LINE",
"179 261 LINE",
"179 236 LINE"
);
},
{
closed = 1;
nodes = (
"701 0 LINE",
"701 25 LINE",
"358 25 LINE",
"358 0 LINE"
);
},
{
closed = 1;
nodes = (
"103 15 LINE",
"300 594 LINE",
"361 766 LINE",
"331 766 LINE",
"70 15 LINE"
);
},
{
closed = 1;
nodes = (
"234 824 LINE",
"343 875 LINE",
"452 824 LINE",
"495 824 LINE",
"374 936 LINE",
"312 936 LINE",
"191 824 LINE"
);
}
);
};
components = (
{
name = A;
},
{
name = circumflexcomb.case;
transform = "{1, 0, 0, 1, 171, 11}";
}
);
layerId = UUID0;
width = 686;
},
{
background = {
anchors = (
{
name = bottom;
position = "{358, 0}";
},
{
name = ogonek;
position = "{643, 10}";
},
{
name = top;
position = "{383, 893}";
}
);
paths = (
{
closed = 1;
nodes = (
"666 15 LINE",
"394 763 LINE",
"368 763 LINE",
"300 553 LINE",
"306 516 LINE",
"310 516 LINE",
"493 15 LINE"
);
},
{
closed = 1;
nodes = (
"229 0 LINE",
"229 30 LINE",
"-15 30 LINE",
"-15 0 LINE"
);
},
{
closed = 1;
nodes = (
"508 204 LINE",
"508 233 LINE",
"164 233 LINE",
"164 204 LINE"
);
},
{
closed = 1;
nodes = (
"730 0 LINE",
"730 30 LINE",
"383 30 LINE",
"383 0 LINE"
);
},
{
closed = 1;
nodes = (
"106 15 LINE",
"342 604 LINE",
"394 763 LINE",
"368 763 LINE",
"73 15 LINE"
);
},
{
closed = 1;
nodes = (
"264 827 LINE",
"383 869 LINE",
"502 827 LINE",
"555 827 LINE",
"414 943 LINE",
"352 943 LINE",
"211 827 LINE"
);
}
);
};
components = (
{
name = A;
},
{
name = circumflexcomb.case;
transform = "{1, 0, 0, 1, 171, 20}";
}
);
layerId = "3AE1663F-34E8-4710-91A2-69F84C961E5F";
width = 715;
}
);
leftKerningGroup = A;
rightKerningGroup = A;
unicode = 00C2;
},
{
glyphname = Acircumflexacute;
lastChange = "2022-05-05 11:58:53 +0000";
layers = (
{
background = {
anchors = (
{
name = bottom;
position = "{343, 0}";
},
{
name = ogonek;
position = "{590, 44}";
},
{
name = top;
position = "{343, 1161}";
}
);
paths = (
{
closed = 1;
nodes = (
"612 15 LINE",
"361 766 LINE",
"331 766 LINE",
"283 594 LINE",
"290 565 LINE",
"294 565 LINE",
"478 15 LINE"
);
},
{
closed = 1;
nodes = (
"224 0 LINE",
"224 25 LINE",
"-16 25 LINE",
"-16 0 LINE"
);
},
{
closed = 1;
nodes = (
"503 236 LINE",
"503 261 LINE",
"179 261 LINE",
"179 236 LINE"
);
},
{
closed = 1;
nodes = (
"701 0 LINE",
"701 25 LINE",
"358 25 LINE",
"358 0 LINE"
);
},
{
closed = 1;
nodes = (
"103 15 LINE",
"300 594 LINE",
"361 766 LINE",
"331 766 LINE",
"70 15 LINE"
);
},
{
closed = 1;
nodes = (
"234 824 LINE",
"343 875 LINE",
"452 824 LINE",
"495 824 LINE",
"374 936 LINE",
"312 936 LINE",
"191 824 LINE"
);
},
{
closed = 1;
nodes = (
"252 954 LINE",
"427 990 LINE SMOOTH",
"460 997 OFFCURVE",
"477 1017 OFFCURVE",
"477 1043 CURVE SMOOTH",
"477 1069 OFFCURVE",
"461 1086 OFFCURVE",
"433 1086 CURVE SMOOTH",
"419 1086 OFFCURVE",
"407 1080 OFFCURVE",
"360 1050 CURVE SMOOTH",
"209 954 LINE"
);
}
);
};
components = (
{
name = A;
},
{
name = circumflexcomb_acutecomb;
transform = "{1, 0, 0, 1, 53, 304}";
}
);
layerId = UUID0;
width = 686;
},
{
background = {
anchors = (
{
name = bottom;
position = "{358, 0}";
},
{
name = ogonek;
position = "{643, 10}";
},
{
name = top;
position = "{383, 1169}";
}
);
paths = (
{
closed = 1;
nodes = (
"666 15 LINE",
"394 763 LINE",
"368 763 LINE",
"300 553 LINE",
"306 516 LINE",
"310 516 LINE",
"493 15 LINE"
);
},
{
closed = 1;
nodes = (
"229 0 LINE",
"229 30 LINE",
"-15 30 LINE",
"-15 0 LINE"
);
},
{
closed = 1;
nodes = (
"508 204 LINE",
"508 233 LINE",
"164 233 LINE",
"164 204 LINE"
);
},
{
closed = 1;
nodes = (
"730 0 LINE",
"730 30 LINE",
"383 30 LINE",
"383 0 LINE"
);
},
{
closed = 1;
nodes = (
"106 15 LINE",
"342 604 LINE",
"394 763 LINE",
"368 763 LINE",
"73 15 LINE"
);
},
{
closed = 1;
nodes = (
"264 827 LINE",
"383 869 LINE",
"502 827 LINE",
"555 827 LINE",
"414 943 LINE",
"352 943 LINE",
"211 827 LINE"
);
},
{
closed = 1;
nodes = (
"299 979 LINE",
"476 1014 LINE SMOOTH",
"520 1023 OFFCURVE",
"529 1047 OFFCURVE",
"529 1070 CURVE SMOOTH",
"529 1094 OFFCURVE",
"512 1116 OFFCURVE",
"479 1116 CURVE SMOOTH",
"450 1116 OFFCURVE",
"432 1106 OFFCURVE",
"397 1083 CURVE SMOOTH",
"236 979 LINE"
);
}
);
};
components = (
{
name = A;
},
{
name = circumflexcomb_acutecomb;
transform = "{1, 0, 0, 1, 87, 304}";
}
);
layerId = "3AE1663F-34E8-4710-91A2-69F84C961E5F";
width = 715;
}
);
leftKerningGroup = A;
rightKerningGroup = A;
unicode = 1EA4;
},
{
glyphname = Acircumflexdotbelow;
lastChange = "2022-05-05 12:24:42 +0000";
layers = (
{
background = {
anchors = (
{
name = bottom;
position = "{343, -231}";
},
{
name = ogonek;
position = "{590, 44}";
},
{
name = top;
position = "{343, 881}";
}
);
paths = (
{
closed = 1;
nodes = (
"612 15 LINE",
"361 766 LINE",
"331 766 LINE",
"283 594 LINE",
"290 565 LINE",
"294 565 LINE",
"478 15 LINE"
);
},
{
closed = 1;
nodes = (
"224 0 LINE",
"224 25 LINE",
"-16 25 LINE",
"-16 0 LINE"
);
},
{
closed = 1;
nodes = (
"503 236 LINE",
"503 261 LINE",
"179 261 LINE",
"179 236 LINE"
);
},
{
closed = 1;
nodes = (
"701 0 LINE",
"701 25 LINE",
"358 25 LINE",
"358 0 LINE"
);
},
{
closed = 1;
nodes = (
"103 15 LINE",
"300 594 LINE",
"361 766 LINE",
"331 766 LINE",
"70 15 LINE"
);
},
{
closed = 1;
nodes = (
"379 -231 OFFCURVE",
"409 -201 OFFCURVE",
"409 -165 CURVE SMOOTH",
"409 -129 OFFCURVE",
"379 -99 OFFCURVE",
"343 -99 CURVE SMOOTH",
"307 -99 OFFCURVE",
"277 -129 OFFCURVE",
"277 -165 CURVE SMOOTH",
"277 -201 OFFCURVE",
"307 -231 OFFCURVE",
"343 -231 CURVE SMOOTH"
);
},
{
closed = 1;
nodes = (
"234 824 LINE",
"343 875 LINE",
"452 824 LINE",
"495 824 LINE",
"374 936 LINE",
"312 936 LINE",
"191 824 LINE"
);
}
);
};
components = (
{
name = A;
},
{
name = dotbelowcomb;
transform = "{1, 0, 0, 1, 59, 0}";
},
{
name = circumflexcomb.case;
transform = "{1, 0, 0, 1, 171, 11}";
}
);
layerId = UUID0;
width = 686;
},
{
background = {
anchors = (
{
name = bottom;
position = "{358, -260}";
},
{
name = ogonek;
position = "{643, 10}";
},
{
name = top;
position = "{383, 893}";
}
);
paths = (
{
closed = 1;
nodes = (
"666 15 LINE",
"394 763 LINE",
"368 763 LINE",
"300 553 LINE",
"306 516 LINE",
"310 516 LINE",
"493 15 LINE"
);
},
{
closed = 1;
nodes = (
"229 0 LINE",
"229 30 LINE",
"-15 30 LINE",
"-15 0 LINE"
);
},
{
closed = 1;
nodes = (
"508 204 LINE",
"508 233 LINE",
"164 233 LINE",
"164 204 LINE"
);
},
{
closed = 1;
nodes = (
"730 0 LINE",
"730 30 LINE",
"383 30 LINE",
"383 0 LINE"
);
},
{
closed = 1;
nodes = (
"106 15 LINE",
"342 604 LINE",
"394 763 LINE",
"368 763 LINE",
"73 15 LINE"
);
},
{
closed = 1;
nodes = (
"401 -260 OFFCURVE",
"438 -223 OFFCURVE",
"438 -180 CURVE SMOOTH",
"438 -136 OFFCURVE",
"401 -99 OFFCURVE",
"357 -99 CURVE SMOOTH",
"314 -99 OFFCURVE",
"277 -136 OFFCURVE",
"277 -180 CURVE SMOOTH",
"277 -223 OFFCURVE",
"314 -260 OFFCURVE",
"357 -260 CURVE SMOOTH"
);
},
{
closed = 1;
nodes = (
"264 827 LINE",
"383 869 LINE",
"502 827 LINE",
"555 827 LINE",
"414 943 LINE",
"352 943 LINE",
"211 827 LINE"
);
}
);
};
components = (
{
name = A;
},
{
name = dotbelowcomb;
transform = "{1, 0, 0, 1, 65, 0}";
},
{
name = circumflexcomb.case;
transform = "{1, 0, 0, 1, 171, 20}";
}
);
layerId = "3AE1663F-34E8-4710-91A2-69F84C961E5F";
width = 715;
}
);
leftKerningGroup = A;
rightKerningGroup = A;
unicode = 1EAC;
},
{
glyphname = Acircumflexgrave;
lastChange = "2022-05-05 11:59:03 +0000";
layers = (
{
background = {
anchors = (
{
name = bottom;
position = "{343, 0}";
},
{
name = ogonek;
position = "{590, 44}";
},
{
name = top;
position = "{343, 1156}";
}
);
paths = (
{
closed = 1;
nodes = (
"612 15 LINE",
"361 766 LINE",
"331 766 LINE",
"283 594 LINE",
"290 565 LINE",
"294 565 LINE",
"478 15 LINE"
);
},
{
closed = 1;
nodes = (
"224 0 LINE",
"224 25 LINE",
"-16 25 LINE",
"-16 0 LINE"
);
},
{
closed = 1;
nodes = (
"503 236 LINE",
"503 261 LINE",
"179 261 LINE",
"179 236 LINE"
);
},
{
closed = 1;
nodes = (
"701 0 LINE",
"701 25 LINE",
"358 25 LINE",
"358 0 LINE"
);
},
{
closed = 1;
nodes = (
"103 15 LINE",
"300 594 LINE",
"361 766 LINE",
"331 766 LINE",
"70 15 LINE"
);
},
{
closed = 1;
nodes = (
"234 824 LINE",
"343 875 LINE",
"452 824 LINE",
"495 824 LINE",
"374 936 LINE",
"312 936 LINE",
"191 824 LINE"
);
},
{
closed = 1;
nodes = (
"477 949 LINE",
"326 1045 LINE SMOOTH",
"279 1075 OFFCURVE",
"267 1081 OFFCURVE",
"253 1081 CURVE SMOOTH",
"225 1081 OFFCURVE",
"209 1064 OFFCURVE",
"209 1038 CURVE SMOOTH",
"209 1012 OFFCURVE",
"226 992 OFFCURVE",
"259 985 CURVE SMOOTH",
"434 949 LINE"
);
}
);
};
components = (
{
name = A;
},
{
name = circumflexcomb_gravecomb;
transform = "{1, 0, 0, 1, 53, 304}";
}
);
layerId = UUID0;
width = 686;
},
{
background = {
anchors = (
{
name = bottom;
position = "{358, 0}";
},
{
name = ogonek;
position = "{643, 10}";
},
{
name = top;
position = "{383, 1193}";
}
);
paths = (
{
closed = 1;
nodes = (
"666 15 LINE",
"394 763 LINE",
"368 763 LINE",
"300 553 LINE",
"306 516 LINE",
"310 516 LINE",
"493 15 LINE"
);
},
{
closed = 1;
nodes = (
"229 0 LINE",
"229 30 LINE",
"-15 30 LINE",
"-15 0 LINE"
);
},
{
closed = 1;
nodes = (
"508 204 LINE",
"508 233 LINE",
"164 233 LINE",
"164 204 LINE"
);
},
{
closed = 1;
nodes = (
"730 0 LINE",
"730 30 LINE",
"383 30 LINE",
"383 0 LINE"
);
},
{
closed = 1;
nodes = (
"106 15 LINE",
"342 604 LINE",
"394 763 LINE",
"368 763 LINE",
"73 15 LINE"
);
},
{
closed = 1;
nodes = (
"264 827 LINE",
"383 869 LINE",
"502 827 LINE",
"555 827 LINE",
"414 943 LINE",
"352 943 LINE",
"211 827 LINE"
);
},
{
closed = 1;
nodes = (
"529 986 LINE",
"368 1090 LINE SMOOTH",
"333 1113 OFFCURVE",
"315 1123 OFFCURVE",
"286 1123 CURVE SMOOTH",
"253 1123 OFFCURVE",
"236 1101 OFFCURVE",
"236 1077 CURVE SMOOTH",
"236 1054 OFFCURVE",
"245 1030 OFFCURVE",
"289 1021 CURVE SMOOTH",
"466 986 LINE"
);
}
);
};
components = (
{
name = A;
},
{
name = circumflexcomb_gravecomb;
transform = "{1, 0, 0, 1, 87, 304}";
}
);
layerId = "3AE1663F-34E8-4710-91A2-69F84C961E5F";
width = 715;
}
);
leftKerningGroup = A;
rightKerningGroup = A;
unicode = 1EA6;
},
{
glyphname = Acircumflexhookabove;
lastChange = "2022-05-05 11:59:21 +0000";
layers = (
{
background = {
anchors = (
{
name = bottom;
position = "{343, 0}";
},
{
name = ogonek;
position = "{590, 44}";
},
{
name = top;
position = "{343, 1176}";
}
);
paths = (
{
closed = 1;
nodes = (
"612 15 LINE",
"361 766 LINE",
"331 766 LINE",
"283 594 LINE",
"290 565 LINE",
"294 565 LINE",
"478 15 LINE"
);
},
{
closed = 1;
nodes = (
"224 0 LINE",
"224 25 LINE",
"-16 25 LINE",
"-16 0 LINE"
);
},
{
closed = 1;
nodes = (
"503 236 LINE",
"503 261 LINE",
"179 261 LINE",
"179 236 LINE"
);
},
{
closed = 1;
nodes = (
"701 0 LINE",
"701 25 LINE",
"358 25 LINE",
"358 0 LINE"
);
},
{
closed = 1;
nodes = (
"103 15 LINE",
"300 594 LINE",
"361 766 LINE",
"331 766 LINE",
"70 15 LINE"
);
},
{
closed = 1;
nodes = (
"234 824 LINE",
"343 875 LINE",
"452 824 LINE",
"495 824 LINE",
"374 936 LINE",
"312 936 LINE",
"191 824 LINE"
);
},
{
closed = 1;
nodes = (
"488 933 LINE",
"500 959 OFFCURVE",
"557 969 OFFCURVE",
"557 1009 CURVE SMOOTH",
"557 1066 OFFCURVE",
"517 1092 OFFCURVE",
"457 1092 CURVE SMOOTH",
"413 1092 OFFCURVE",
"364 1071 OFFCURVE",
"364 1012 CURVE SMOOTH",
"364 992 OFFCURVE",
"380 977 OFFCURVE",
"403 977 CURVE SMOOTH",
"424 977 OFFCURVE",
"435 985 OFFCURVE",
"435 999 CURVE SMOOTH",
"435 1017 OFFCURVE",
"422 1015 OFFCURVE",
"422 1027 CURVE SMOOTH",
"422 1042 OFFCURVE",
"438 1052 OFFCURVE",
"459 1052 CURVE SMOOTH",
"479 1052 OFFCURVE",
"498 1045 OFFCURVE",
"498 1007 CURVE SMOOTH",
"498 983 OFFCURVE",
"461 969 OFFCURVE",
"461 933 CURVE"
);
}
);
};
components = (
{
name = A;
},
{
name = circumflexcomb_hookabovecomb;
transform = "{1, 0, 0, 1, 53, 304}";
}
);
layerId = UUID0;
width = 686;
},
{
background = {
anchors = (
{
name = bottom;
position = "{358, 0}";
},
{
name = ogonek;
position = "{643, 10}";
},
{
name = top;
position = "{383, 1203}";
}
);
paths = (
{
closed = 1;
nodes = (
"666 15 LINE",
"394 763 LINE",
"368 763 LINE",
"300 553 LINE",
"306 516 LINE",
"310 516 LINE",
"493 15 LINE"
);
},
{
closed = 1;
nodes = (
"229 0 LINE",
"229 30 LINE",
"-15 30 LINE",
"-15 0 LINE"
);
},
{
closed = 1;
nodes = (
"508 204 LINE",
"508 233 LINE",
"164 233 LINE",
"164 204 LINE"
);
},
{
closed = 1;
nodes = (
"730 0 LINE",
"730 30 LINE",
"383 30 LINE",
"383 0 LINE"
);
},
{
closed = 1;
nodes = (
"106 15 LINE",
"342 604 LINE",
"394 763 LINE",
"368 763 LINE",
"73 15 LINE"
);
},
{
closed = 1;
nodes = (
"264 827 LINE",
"383 869 LINE",
"502 827 LINE",
"555 827 LINE",
"414 943 LINE",
"352 943 LINE",
"211 827 LINE"
);
},
{
closed = 1;
nodes = (
"553 945 LINE",
"553 995 OFFCURVE",
"627 976 OFFCURVE",
"627 1038 CURVE SMOOTH",
"627 1109 OFFCURVE",
"592 1138 OFFCURVE",
"519 1138 CURVE SMOOTH",
"459 1138 OFFCURVE",
"412 1111 OFFCURVE",
"412 1046 CURVE SMOOTH",
"412 1016 OFFCURVE",
"432 997 OFFCURVE",
"456 997 CURVE SMOOTH",
"473 997 OFFCURVE",
"495 1004 OFFCURVE",
"495 1023 CURVE SMOOTH",
"495 1051 OFFCURVE",
"474 1039 OFFCURVE",
"474 1063 CURVE SMOOTH",
"474 1077 OFFCURVE",
"491 1095 OFFCURVE",
"519 1095 CURVE SMOOTH",
"548 1095 OFFCURVE",
"565 1079 OFFCURVE",
"565 1047 CURVE SMOOTH",
"565 1023 OFFCURVE",
"514 1015 OFFCURVE",
"514 945 CURVE"
);
}
);
};
components = (
{
name = A;
},
{
name = circumflexcomb_hookabovecomb;
transform = "{1, 0, 0, 1, 87, 304}";
}
);
layerId = "3AE1663F-34E8-4710-91A2-69F84C961E5F";
width = 715;
}
);
leftKerningGroup = A;
rightKerningGroup = A;
unicode = 1EA8;
},
{
glyphname = Acircumflextilde;
lastChange = "2022-05-05 11:59:28 +0000";
layers = (
{
background = {
anchors = (
{
name = bottom;
position = "{343, 0}";
},
{
name = ogonek;
position = "{590, 44}";
},
{
name = top;
position = "{343, 1159}";
}
);
paths = (
{
closed = 1;
nodes = (
"612 15 LINE",
"361 766 LINE",
"331 766 LINE",
"283 594 LINE",
"290 565 LINE",
"294 565 LINE",
"478 15 LINE"
);
},
{
closed = 1;
nodes = (
"224 0 LINE",
"224 25 LINE",
"-16 25 LINE",
"-16 0 LINE"
);
},
{
closed = 1;
nodes = (
"503 236 LINE",
"503 261 LINE",
"179 261 LINE",
"179 236 LINE"
);
},
{
closed = 1;
nodes = (
"701 0 LINE",
"701 25 LINE",
"358 25 LINE",
"358 0 LINE"
);
},
{
closed = 1;
nodes = (
"103 15 LINE",
"300 594 LINE",
"361 766 LINE",
"331 766 LINE",
"70 15 LINE"
);
},
{
closed = 1;
nodes = (
"234 824 LINE",
"343 875 LINE",
"452 824 LINE",
"495 824 LINE",
"374 936 LINE",
"312 936 LINE",
"191 824 LINE"
);
},
{
closed = 1;
nodes = (
"200 989 LINE",
"207 1017 OFFCURVE",
"230 1038 OFFCURVE",
"263 1038 CURVE SMOOTH",
"310 1038 OFFCURVE",
"344 990 OFFCURVE",
"400 990 CURVE SMOOTH",
"469 990 OFFCURVE",
"505 1054 OFFCURVE",
"519 1117 CURVE",
"485 1117 LINE",
"478 1096 OFFCURVE",
"460 1066 OFFCURVE",
"422 1066 CURVE SMOOTH",
"376 1066 OFFCURVE",
"339 1114 OFFCURVE",
"285 1114 CURVE SMOOTH",
"219 1114 OFFCURVE",
"177 1051 OFFCURVE",
"167 989 CURVE"
);
}
);
};
components = (
{
name = A;
},
{
name = circumflexcomb_tildecomb;
transform = "{1, 0, 0, 1, 53, 304}";
}
);
layerId = UUID0;
width = 686;
},
{
background = {
anchors = (
{
name = bottom;
position = "{358, 0}";
},
{
name = ogonek;
position = "{643, 10}";
},
{
name = top;
position = "{383, 1166}";
}
);
paths = (
{
closed = 1;
nodes = (
"666 15 LINE",
"394 763 LINE",
"368 763 LINE",
"300 553 LINE",
"306 516 LINE",
"310 516 LINE",
"493 15 LINE"
);
},
{
closed = 1;
nodes = (
"229 0 LINE",
"229 30 LINE",
"-15 30 LINE",
"-15 0 LINE"
);
},
{
closed = 1;
nodes = (
"508 204 LINE",
"508 233 LINE",
"164 233 LINE",
"164 204 LINE"
);
},
{
closed = 1;
nodes = (
"730 0 LINE",
"730 30 LINE",
"383 30 LINE",
"383 0 LINE"
);
},
{
closed = 1;
nodes = (
"106 15 LINE",
"342 604 LINE",
"394 763 LINE",
"368 763 LINE",
"73 15 LINE"
);
},
{
closed = 1;
nodes = (
"264 827 LINE",
"383 869 LINE",
"502 827 LINE",
"555 827 LINE",
"414 943 LINE",
"352 943 LINE",
"211 827 LINE"
);
},
{
closed = 1;
nodes = (
"220 1003 LINE",
"229 1027 OFFCURVE",
"260 1044 OFFCURVE",
"303 1044 CURVE SMOOTH",
"350 1044 OFFCURVE",
"384 1004 OFFCURVE",
"440 1004 CURVE SMOOTH",
"521 1004 OFFCURVE",
"563 1072 OFFCURVE",
"579 1140 CURVE",
"545 1140 LINE",
"536 1123 OFFCURVE",
"512 1100 OFFCURVE",
"462 1100 CURVE SMOOTH",
"416 1100 OFFCURVE",
"379 1140 OFFCURVE",
"325 1140 CURVE SMOOTH",
"247 1140 OFFCURVE",
"199 1070 OFFCURVE",
"187 1003 CURVE"
);
}
);
};
components = (
{
name = A;
},
{
name = circumflexcomb_tildecomb;
transform = "{1, 0, 0, 1, 87, 304}";
}
);
layerId = "3AE1663F-34E8-4710-91A2-69F84C961E5F";
width = 715;
}
);
leftKerningGroup = A;
rightKerningGroup = A;
unicode = 1EAA;
},
{
glyphname = Adblgrave;
lastChange = "2022-05-05 09:16:31 +0000";
layers = (
{
background = {
anchors = (
{
name = bottom;
position = "{343, 0}";
},
{
name = ogonek;
position = "{590, 44}";
},
{
name = top;
position = "{343, 924}";
}
);
paths = (
{
closed = 1;
nodes = (
"612 15 LINE",
"361 766 LINE",
"331 766 LINE",
"283 594 LINE",
"290 565 LINE",
"294 565 LINE",
"478 15 LINE"
);
},
{
closed = 1;
nodes = (
"224 0 LINE",
"224 25 LINE",
"-16 25 LINE",
"-16 0 LINE"
);
},
{
closed = 1;
nodes = (
"503 236 LINE",
"503 261 LINE",
"179 261 LINE",
"179 236 LINE"
);
},
{
closed = 1;
nodes = (
"701 0 LINE",
"701 25 LINE",
"358 25 LINE",
"358 0 LINE"
);
},
{
closed = 1;
nodes = (
"103 15 LINE",
"300 594 LINE",
"361 766 LINE",
"331 766 LINE",
"70 15 LINE"
);
},
{
closed = 1;
nodes = (
"546 792 LINE",
"428 884 LINE SMOOTH",
"384 918 OFFCURVE",
"376 924 OFFCURVE",
"362 924 CURVE SMOOTH",
"334 924 OFFCURVE",
"318 907 OFFCURVE",
"318 881 CURVE SMOOTH",
"318 855 OFFCURVE",
"335 837 OFFCURVE",
"368 828 CURVE SMOOTH",
"503 792 LINE"
);
},
{
closed = 1;
nodes = (
"368 792 LINE",
"250 884 LINE SMOOTH",
"206 918 OFFCURVE",
"198 924 OFFCURVE",
"184 924 CURVE SMOOTH",
"156 924 OFFCURVE",
"140 907 OFFCURVE",
"140 881 CURVE SMOOTH",
"140 855 OFFCURVE",
"157 837 OFFCURVE",
"190 828 CURVE SMOOTH",
"325 792 LINE"
);
}
);
};
components = (
{
name = A;
},
{
name = dblgravecomb.case;
transform = "{1, 0, 0, 1, 130, 0}";
}
);
layerId = UUID0;
width = 686;
},
{
background = {
anchors = (
{
name = bottom;
position = "{358, 0}";
},
{
name = ogonek;
position = "{643, 10}";
},
{
name = top;
position = "{383, 924}";
}
);
paths = (
{
closed = 1;
nodes = (
"666 15 LINE",
"394 763 LINE",
"368 763 LINE",
"300 553 LINE",
"306 516 LINE",
"310 516 LINE",
"493 15 LINE"
);
},
{
closed = 1;
nodes = (
"229 0 LINE",
"229 30 LINE",
"-15 30 LINE",
"-15 0 LINE"
);
},
{
closed = 1;
nodes = (
"508 204 LINE",
"508 233 LINE",
"164 233 LINE",
"164 204 LINE"
);
},
{
closed = 1;
nodes = (
"730 0 LINE",
"730 30 LINE",
"383 30 LINE",
"383 0 LINE"
);
},
{
closed = 1;
nodes = (
"106 15 LINE",
"342 604 LINE",
"394 763 LINE",
"368 763 LINE",
"73 15 LINE"
);
},
{
closed = 1;
nodes = (
"640 787 LINE",
"479 891 LINE SMOOTH",
"444 914 OFFCURVE",
"426 924 OFFCURVE",
"397 924 CURVE SMOOTH",
"364 924 OFFCURVE",
"347 902 OFFCURVE",
"347 878 CURVE SMOOTH",
"347 855 OFFCURVE",
"356 831 OFFCURVE",
"400 822 CURVE SMOOTH",
"577 787 LINE"
);
},
{
closed = 1;
nodes = (
"418 787 LINE",
"257 891 LINE SMOOTH",
"222 914 OFFCURVE",
"204 924 OFFCURVE",
"175 924 CURVE SMOOTH",
"142 924 OFFCURVE",
"125 902 OFFCURVE",
"125 878 CURVE SMOOTH",
"125 855 OFFCURVE",
"134 831 OFFCURVE",
"178 822 CURVE SMOOTH",
"355 787 LINE"
);
}
);
};
components = (
{
name = A;
},
{
name = dblgravecomb.case;
transform = "{1, 0, 0, 1, 115, 0}";
}
);
layerId = "3AE1663F-34E8-4710-91A2-69F84C961E5F";
width = 715;
}
);
leftKerningGroup = A;
rightKerningGroup = A;
unicode = 0200;
},
{
glyphname = Adieresis;
lastChange = "2022-05-05 09:16:31 +0000";
layers = (
{
background = {
anchors = (
{
name = bottom;
position = "{343, 0}";
},
{
name = ogonek;
position = "{590, 44}";
},
{
name = top;
position = "{343, 754}";
}
);
paths = (
{
closed = 1;
nodes = (
"612 15 LINE",
"361 766 LINE",
"331 766 LINE",
"283 594 LINE",
"290 565 LINE",
"294 565 LINE",
"478 15 LINE"
);
},
{
closed = 1;
nodes = (
"224 0 LINE",
"224 25 LINE",
"-16 25 LINE",
"-16 0 LINE"
);
},
{
closed = 1;
nodes = (
"503 236 LINE",
"503 261 LINE",
"179 261 LINE",
"179 236 LINE"
);
},
{
closed = 1;
nodes = (
"701 0 LINE",
"701 25 LINE",
"358 25 LINE",
"358 0 LINE"
);
},
{
closed = 1;
nodes = (
"103 15 LINE",
"300 594 LINE",
"361 766 LINE",
"331 766 LINE",
"70 15 LINE"
);
},
{
closed = 1;
nodes = (
"464 800 OFFCURVE",
"489 825 OFFCURVE",
"489 855 CURVE SMOOTH",
"489 885 OFFCURVE",
"464 910 OFFCURVE",
"434 910 CURVE SMOOTH",
"404 910 OFFCURVE",
"379 885 OFFCURVE",
"379 855 CURVE SMOOTH",
"379 825 OFFCURVE",
"404 800 OFFCURVE",
"434 800 CURVE SMOOTH"
);
},
{
closed = 1;
nodes = (
"274 800 OFFCURVE",
"299 825 OFFCURVE",
"299 855 CURVE SMOOTH",
"299 885 OFFCURVE",
"274 910 OFFCURVE",
"244 910 CURVE SMOOTH",
"214 910 OFFCURVE",
"189 885 OFFCURVE",
"189 855 CURVE SMOOTH",
"189 825 OFFCURVE",
"214 800 OFFCURVE",
"244 800 CURVE SMOOTH"
);
}
);
};
components = (
{
name = A;
},
{
name = dieresiscomb.case;
transform = "{1, 0, 0, 1, 183, 0}";
}
);
layerId = UUID0;
width = 686;
},
{
background = {
anchors = (
{
name = bottom;
position = "{358, 0}";
},
{
name = ogonek;
position = "{643, 10}";
},
{
name = top;
position = "{383, 754}";
}
);
paths = (
{
closed = 1;
nodes = (
"666 15 LINE",
"394 763 LINE",
"368 763 LINE",
"300 553 LINE",
"306 516 LINE",
"310 516 LINE",
"493 15 LINE"
);
},
{
closed = 1;
nodes = (
"229 0 LINE",
"229 30 LINE",
"-15 30 LINE",
"-15 0 LINE"
);
},
{
closed = 1;
nodes = (
"508 204 LINE",
"508 233 LINE",
"164 233 LINE",
"164 204 LINE"
);
},
{
closed = 1;
nodes = (
"730 0 LINE",
"730 30 LINE",
"383 30 LINE",
"383 0 LINE"
);
},
{
closed = 1;
nodes = (
"106 15 LINE",
"342 604 LINE",
"394 763 LINE",
"368 763 LINE",
"73 15 LINE"
);
},
{
closed = 1;
nodes = (
"515 792 OFFCURVE",
"545 822 OFFCURVE",
"545 858 CURVE SMOOTH",
"545 894 OFFCURVE",
"515 924 OFFCURVE",
"479 924 CURVE SMOOTH",
"443 924 OFFCURVE",
"413 894 OFFCURVE",
"413 858 CURVE SMOOTH",
"413 822 OFFCURVE",
"443 792 OFFCURVE",
"479 792 CURVE SMOOTH"
);
},
{
closed = 1;
nodes = (
"325 792 OFFCURVE",
"355 822 OFFCURVE",
"355 858 CURVE SMOOTH",
"355 894 OFFCURVE",
"325 924 OFFCURVE",
"289 924 CURVE SMOOTH",
"253 924 OFFCURVE",
"223 894 OFFCURVE",
"223 858 CURVE SMOOTH",
"223 822 OFFCURVE",
"253 792 OFFCURVE",
"289 792 CURVE SMOOTH"
);
}
);
};
components = (
{
name = A;
},
{
name = dieresiscomb.case;
transform = "{1, 0, 0, 1, 212, 0}";
}
);
layerId = "3AE1663F-34E8-4710-91A2-69F84C961E5F";
width = 715;
}
);
leftKerningGroup = A;
rightKerningGroup = A;
unicode = 00C4;
},
{
glyphname = Adotbelow;
lastChange = "2022-05-05 09:16:31 +0000";
layers = (
{
background = {
anchors = (
{
name = bottom;
position = "{343, -231}";
},
{
name = ogonek;
position = "{590, 44}";
},
{
name = top;
position = "{343, 754}";
}
);
paths = (
{
closed = 1;
nodes = (
"612 15 LINE",
"361 766 LINE",
"331 766 LINE",
"283 594 LINE",
"290 565 LINE",
"294 565 LINE",
"478 15 LINE"
);
},
{
closed = 1;
nodes = (
"224 0 LINE",
"224 25 LINE",
"-16 25 LINE",
"-16 0 LINE"
);
},
{
closed = 1;
nodes = (
"503 236 LINE",
"503 261 LINE",
"179 261 LINE",
"179 236 LINE"
);
},
{
closed = 1;
nodes = (
"701 0 LINE",
"701 25 LINE",
"358 25 LINE",
"358 0 LINE"
);
},
{
closed = 1;
nodes = (
"103 15 LINE",
"300 594 LINE",
"361 766 LINE",
"331 766 LINE",
"70 15 LINE"
);
},
{
closed = 1;
nodes = (
"379 -231 OFFCURVE",
"409 -201 OFFCURVE",
"409 -165 CURVE SMOOTH",
"409 -129 OFFCURVE",
"379 -99 OFFCURVE",
"343 -99 CURVE SMOOTH",
"307 -99 OFFCURVE",
"277 -129 OFFCURVE",
"277 -165 CURVE SMOOTH",
"277 -201 OFFCURVE",
"307 -231 OFFCURVE",
"343 -231 CURVE SMOOTH"
);
}
);
};
components = (
{
name = A;
},
{
name = dotbelowcomb;
transform = "{1, 0, 0, 1, 59, 0}";
}
);
layerId = UUID0;
width = 686;
},
{
background = {
anchors = (
{
name = bottom;
position = "{358, -260}";
},
{
name = ogonek;
position = "{643, 10}";
},
{
name = top;
position = "{383, 754}";
}
);
paths = (
{
closed = 1;
nodes = (
"666 15 LINE",
"394 763 LINE",
"368 763 LINE",
"300 553 LINE",
"306 516 LINE",
"310 516 LINE",
"493 15 LINE"
);
},
{
closed = 1;
nodes = (
"229 0 LINE",
"229 30 LINE",
"-15 30 LINE",
"-15 0 LINE"
);
},
{
closed = 1;
nodes = (
"508 204 LINE",
"508 233 LINE",
"164 233 LINE",
"164 204 LINE"
);
},
{
closed = 1;
nodes = (
"730 0 LINE",
"730 30 LINE",
"383 30 LINE",
"383 0 LINE"
);
},
{
closed = 1;
nodes = (
"106 15 LINE",
"342 604 LINE",
"394 763 LINE",
"368 763 LINE",
"73 15 LINE"
);
},
{
closed = 1;
nodes = (
"401 -260 OFFCURVE",
"438 -223 OFFCURVE",
"438 -180 CURVE SMOOTH",
"438 -136 OFFCURVE",
"401 -99 OFFCURVE",
"357 -99 CURVE SMOOTH",
"314 -99 OFFCURVE",
"277 -136 OFFCURVE",
"277 -180 CURVE SMOOTH",
"277 -223 OFFCURVE",
"314 -260 OFFCURVE",
"357 -260 CURVE SMOOTH"
);
}
);
};
components = (
{
name = A;
},
{
name = dotbelowcomb;
transform = "{1, 0, 0, 1, 65, 0}";
}
);
layerId = "3AE1663F-34E8-4710-91A2-69F84C961E5F";
width = 715;
}
);
leftKerningGroup = A;
rightKerningGroup = A;
unicode = 1EA0;
},
{
glyphname = Agrave;
lastChange = "2022-05-05 12:25:34 +0000";
layers = (
{
background = {
anchors = (
{
name = bottom;
position = "{343, 0}";
},
{
name = ogonek;
position = "{590, 44}";
},
{
name = top;
position = "{343, 954}";
}
);
paths = (
{
closed = 1;
nodes = (
"612 15 LINE",
"361 766 LINE",
"331 766 LINE",
"283 594 LINE",
"290 565 LINE",
"294 565 LINE",
"478 15 LINE"
);
},
{
closed = 1;
nodes = (
"224 0 LINE",
"224 25 LINE",
"-16 25 LINE",
"-16 0 LINE"
);
},
{
closed = 1;
nodes = (
"503 236 LINE",
"503 261 LINE",
"179 261 LINE",
"179 236 LINE"
);
},
{
closed = 1;
nodes = (
"701 0 LINE",
"701 25 LINE",
"358 25 LINE",
"358 0 LINE"
);
},
{
closed = 1;
nodes = (
"103 15 LINE",
"300 594 LINE",
"361 766 LINE",
"331 766 LINE",
"70 15 LINE"
);
},
{
closed = 1;
nodes = (
"477 822 LINE",
"326 918 LINE SMOOTH",
"279 948 OFFCURVE",
"267 954 OFFCURVE",
"253 954 CURVE SMOOTH",
"225 954 OFFCURVE",
"209 937 OFFCURVE",
"209 911 CURVE SMOOTH",
"209 885 OFFCURVE",
"226 865 OFFCURVE",
"259 858 CURVE SMOOTH",
"434 822 LINE"
);
}
);
};
components = (
{
name = A;
},
{
name = gravecomb.case;
transform = "{1, 0, 0, 1, 199, 30}";
}
);
layerId = UUID0;
width = 686;
},
{
background = {
anchors = (
{
name = bottom;
position = "{358, 0}";
},
{
name = ogonek;
position = "{643, 10}";
},
{
name = top;
position = "{383, 984}";
}
);
paths = (
{
closed = 1;
nodes = (
"666 15 LINE",
"394 763 LINE",
"368 763 LINE",
"300 553 LINE",
"306 516 LINE",
"310 516 LINE",
"493 15 LINE"
);
},
{
closed = 1;
nodes = (
"229 0 LINE",
"229 30 LINE",
"-15 30 LINE",
"-15 0 LINE"
);
},
{
closed = 1;
nodes = (
"508 204 LINE",
"508 233 LINE",
"164 233 LINE",
"164 204 LINE"
);
},
{
closed = 1;
nodes = (
"730 0 LINE",
"730 30 LINE",
"383 30 LINE",
"383 0 LINE"
);
},
{
closed = 1;
nodes = (
"106 15 LINE",
"342 604 LINE",
"394 763 LINE",
"368 763 LINE",
"73 15 LINE"
);
},
{
closed = 1;
nodes = (
"529 847 LINE",
"368 951 LINE SMOOTH",
"333 974 OFFCURVE",
"315 984 OFFCURVE",
"286 984 CURVE SMOOTH",
"253 984 OFFCURVE",
"236 962 OFFCURVE",
"236 938 CURVE SMOOTH",
"236 915 OFFCURVE",
"245 891 OFFCURVE",
"289 882 CURVE SMOOTH",
"466 847 LINE"
);
}
);
};
components = (
{
name = A;
},
{
name = gravecomb.case;
transform = "{1, 0, 0, 1, 226, 60}";
}
);
layerId = "3AE1663F-34E8-4710-91A2-69F84C961E5F";
width = 715;
}
);
leftKerningGroup = A;
rightKerningGroup = A;
unicode = 00C0;
},
{
glyphname = Ahookabove;
lastChange = "2022-05-05 11:17:02 +0000";
layers = (
{
background = {
anchors = (
{
name = bottom;
position = "{343, 0}";
},
{
name = ogonek;
position = "{590, 44}";
},
{
name = top;
position = "{343, 963}";
}
);
paths = (
{
closed = 1;
nodes = (
"612 15 LINE",
"361 766 LINE",
"331 766 LINE",
"283 594 LINE",
"290 565 LINE",
"294 565 LINE",
"478 15 LINE"
);
},
{
closed = 1;
nodes = (
"224 0 LINE",
"224 25 LINE",
"-16 25 LINE",
"-16 0 LINE"
);
},
{
closed = 1;
nodes = (
"503 236 LINE",
"503 261 LINE",
"179 261 LINE",
"179 236 LINE"
);
},
{
closed = 1;
nodes = (
"701 0 LINE",
"701 25 LINE",
"358 25 LINE",
"358 0 LINE"
);
},
{
closed = 1;
nodes = (
"103 15 LINE",
"300 594 LINE",
"361 766 LINE",
"331 766 LINE",
"70 15 LINE"
);
},
{
closed = 1;
nodes = (
"370 828 LINE",
"382 854 OFFCURVE",
"439 864 OFFCURVE",
"439 904 CURVE SMOOTH",
"439 961 OFFCURVE",
"399 987 OFFCURVE",
"339 987 CURVE SMOOTH",
"295 987 OFFCURVE",
"246 966 OFFCURVE",
"246 907 CURVE SMOOTH",
"246 887 OFFCURVE",
"262 872 OFFCURVE",
"285 872 CURVE SMOOTH",
"306 872 OFFCURVE",
"317 880 OFFCURVE",
"317 894 CURVE SMOOTH",
"317 912 OFFCURVE",
"304 910 OFFCURVE",
"304 922 CURVE SMOOTH",
"304 937 OFFCURVE",
"320 947 OFFCURVE",
"341 947 CURVE SMOOTH",
"361 947 OFFCURVE",
"380 940 OFFCURVE",
"380 902 CURVE SMOOTH",
"380 878 OFFCURVE",
"343 864 OFFCURVE",
"343 828 CURVE"
);
}
);
};
components = (
{
name = A;
},
{
name = hookabovecomb;
transform = "{1, 0, 0, 1, 58, 284}";
}
);
layerId = UUID0;
width = 686;
},
{
background = {
anchors = (
{
name = bottom;
position = "{358, 0}";
},
{
name = ogonek;
position = "{643, 10}";
},
{
name = top;
position = "{380, 992}";
}
);
paths = (
{
closed = 1;
nodes = (
"666 15 LINE",
"394 763 LINE",
"368 763 LINE",
"300 553 LINE",
"306 516 LINE",
"310 516 LINE",
"493 15 LINE"
);
},
{
closed = 1;
nodes = (
"229 0 LINE",
"229 30 LINE",
"-15 30 LINE",
"-15 0 LINE"
);
},
{
closed = 1;
nodes = (
"508 204 LINE",
"508 233 LINE",
"164 233 LINE",
"164 204 LINE"
);
},
{
closed = 1;
nodes = (
"730 0 LINE",
"730 30 LINE",
"383 30 LINE",
"383 0 LINE"
);
},
{
closed = 1;
nodes = (
"106 15 LINE",
"342 604 LINE",
"394 763 LINE",
"368 763 LINE",
"73 15 LINE"
);
},
{
closed = 1;
nodes = (
"414 811 LINE",
"414 861 OFFCURVE",
"488 842 OFFCURVE",
"488 904 CURVE SMOOTH",
"488 975 OFFCURVE",
"453 1004 OFFCURVE",
"380 1004 CURVE SMOOTH",
"320 1004 OFFCURVE",
"273 977 OFFCURVE",
"273 912 CURVE SMOOTH",
"273 882 OFFCURVE",
"293 863 OFFCURVE",
"317 863 CURVE SMOOTH",
"334 863 OFFCURVE",
"356 870 OFFCURVE",
"356 889 CURVE SMOOTH",
"356 917 OFFCURVE",
"335 905 OFFCURVE",
"335 929 CURVE SMOOTH",
"335 943 OFFCURVE",
"352 961 OFFCURVE",
"380 961 CURVE SMOOTH",
"409 961 OFFCURVE",
"426 945 OFFCURVE",
"426 913 CURVE SMOOTH",
"426 889 OFFCURVE",
"375 881 OFFCURVE",
"375 811 CURVE"
);
}
);
};
components = (
{
name = A;
},
{
name = hookabovecomb;
transform = "{1, 0, 0, 1, 101, 304}";
}
);
layerId = "3AE1663F-34E8-4710-91A2-69F84C961E5F";
width = 715;
}
);
leftKerningGroup = A;
rightKerningGroup = A;
unicode = 1EA2;
},
{
glyphname = Ainvertedbreve;
lastChange = "2022-05-05 09:16:31 +0000";
layers = (
{
background = {
anchors = (
{
name = bottom;
position = "{343, 0}";
},
{
name = ogonek;
position = "{590, 44}";
},
{
name = top;
position = "{343, 924}";
}
);
paths = (
{
closed = 1;
nodes = (
"612 15 LINE",
"361 766 LINE",
"331 766 LINE",
"283 594 LINE",
"290 565 LINE",
"294 565 LINE",
"478 15 LINE"
);
},
{
closed = 1;
nodes = (
"224 0 LINE",
"224 25 LINE",
"-16 25 LINE",
"-16 0 LINE"
);
},
{
closed = 1;
nodes = (
"503 236 LINE",
"503 261 LINE",
"179 261 LINE",
"179 236 LINE"
);
},
{
closed = 1;
nodes = (
"701 0 LINE",
"701 25 LINE",
"358 25 LINE",
"358 0 LINE"
);
},
{
closed = 1;
nodes = (
"103 15 LINE",
"300 594 LINE",
"361 766 LINE",
"331 766 LINE",
"70 15 LINE"
);
},
{
closed = 1;
nodes = (
"220 792 LINE",
"223 838 OFFCURVE",
"271 856 OFFCURVE",
"341 856 CURVE SMOOTH",
"412 856 OFFCURVE",
"462 836 OFFCURVE",
"465 792 CURVE",
"499 792 LINE",
"499 869 OFFCURVE",
"449 924 OFFCURVE",
"343 924 CURVE SMOOTH",
"240 924 OFFCURVE",
"186 873 OFFCURVE",
"186 792 CURVE"
);
}
);
};
components = (
{
name = A;
},
{
name = breveinvertedcomb.case;
transform = "{1, 0, 0, 1, 176, 0}";
}
);
layerId = UUID0;
width = 686;
},
{
background = {
anchors = (
{
name = bottom;
position = "{358, 0}";
},
{
name = ogonek;
position = "{643, 10}";
},
{
name = top;
position = "{383, 924}";
}
);
paths = (
{
closed = 1;
nodes = (
"666 15 LINE",
"394 763 LINE",
"368 763 LINE",
"300 553 LINE",
"306 516 LINE",
"310 516 LINE",
"493 15 LINE"
);
},
{
closed = 1;
nodes = (
"229 0 LINE",
"229 30 LINE",
"-15 30 LINE",
"-15 0 LINE"
);
},
{
closed = 1;
nodes = (
"508 204 LINE",
"508 233 LINE",
"164 233 LINE",
"164 204 LINE"
);
},
{
closed = 1;
nodes = (
"730 0 LINE",
"730 30 LINE",
"383 30 LINE",
"383 0 LINE"
);
},
{
closed = 1;
nodes = (
"106 15 LINE",
"342 604 LINE",
"394 763 LINE",
"368 763 LINE",
"73 15 LINE"
);
},
{
closed = 1;
nodes = (
"260 787 LINE",
"263 819 OFFCURVE",
"311 831 OFFCURVE",
"381 831 CURVE SMOOTH",
"452 831 OFFCURVE",
"502 817 OFFCURVE",
"505 787 CURVE",
"549 787 LINE",
"549 864 OFFCURVE",
"496 924 OFFCURVE",
"383 924 CURVE SMOOTH",
"273 924 OFFCURVE",
"216 868 OFFCURVE",
"216 787 CURVE"
);
}
);
};
components = (
{
name = A;
},
{
name = breveinvertedcomb.case;
transform = "{1, 0, 0, 1, 206, 0}";
}
);
layerId = "3AE1663F-34E8-4710-91A2-69F84C961E5F";
width = 715;
}
);
leftKerningGroup = A;
rightKerningGroup = A;
unicode = 0202;
},
{
glyphname = Amacron;
lastChange = "2022-05-05 12:25:24 +0000";
layers = (
{
background = {
anchors = (
{
name = bottom;
position = "{343, 0}";
},
{
name = ogonek;
position = "{590, 44}";
},
{
name = top;
position = "{343, 754}";
}
);
paths = (
{
closed = 1;
nodes = (
"612 15 LINE",
"361 766 LINE",
"331 766 LINE",
"283 594 LINE",
"290 565 LINE",
"294 565 LINE",
"478 15 LINE"
);
},
{
closed = 1;
nodes = (
"224 0 LINE",
"224 25 LINE",
"-16 25 LINE",
"-16 0 LINE"
);
},
{
closed = 1;
nodes = (
"503 236 LINE",
"503 261 LINE",
"179 261 LINE",
"179 236 LINE"
);
},
{
closed = 1;
nodes = (
"701 0 LINE",
"701 25 LINE",
"358 25 LINE",
"358 0 LINE"
);
},
{
closed = 1;
nodes = (
"103 15 LINE",
"300 594 LINE",
"361 766 LINE",
"331 766 LINE",
"70 15 LINE"
);
},
{
closed = 1;
nodes = (
"505 851 LINE",
"505 917 LINE",
"185 917 LINE",
"185 851 LINE"
);
}
);
};
components = (
{
name = A;
},
{
name = macroncomb.case;
transform = "{1, 0, 0, 1, 173, 0}";
}
);
layerId = UUID0;
width = 686;
},
{
background = {
anchors = (
{
name = bottom;
position = "{358, 0}";
},
{
name = ogonek;
position = "{643, 10}";
},
{
name = top;
position = "{383, 754}";
}
);
paths = (
{
closed = 1;
nodes = (
"666 15 LINE",
"394 763 LINE",
"368 763 LINE",
"300 553 LINE",
"306 516 LINE",
"310 516 LINE",
"493 15 LINE"
);
},
{
closed = 1;
nodes = (
"229 0 LINE",
"229 30 LINE",
"-15 30 LINE",
"-15 0 LINE"
);
},
{
closed = 1;
nodes = (
"508 204 LINE",
"508 233 LINE",
"164 233 LINE",
"164 204 LINE"
);
},
{
closed = 1;
nodes = (
"730 0 LINE",
"730 30 LINE",
"383 30 LINE",
"383 0 LINE"
);
},
{
closed = 1;
nodes = (
"106 15 LINE",
"342 604 LINE",
"394 763 LINE",
"368 763 LINE",
"73 15 LINE"
);
},
{
closed = 1;
nodes = (
"561 812 LINE",
"561 898 LINE",
"221 898 LINE",
"221 812 LINE"
);
}
);
};
components = (
{
name = A;
},
{
name = macroncomb.case;
transform = "{1, 0, 0, 1, 210, 23}";
}
);
layerId = "3AE1663F-34E8-4710-91A2-69F84C961E5F";
width = 715;
}
);
leftKerningGroup = A;
rightKerningGroup = A;
unicode = 0100;
},
{
glyphname = Aogonek;
lastChange = "2022-05-05 09:16:31 +0000";
layers = (
{
background = {
anchors = (
{
name = bottom;
position = "{343, 0}";
},
{
name = ogonek;
position = "{590, 44}";
},
{
name = top;
position = "{343, 754}";
}
);
paths = (
{
closed = 1;
nodes = (
"612 15 LINE",
"361 766 LINE",
"331 766 LINE",
"283 594 LINE",
"290 565 LINE",
"294 565 LINE",
"478 15 LINE"
);
},
{
closed = 1;
nodes = (
"224 0 LINE",
"224 25 LINE",
"-16 25 LINE",
"-16 0 LINE"
);
},
{
closed = 1;
nodes = (
"503 236 LINE",
"503 261 LINE",
"179 261 LINE",
"179 236 LINE"
);
},
{
closed = 1;
nodes = (
"701 0 LINE",
"701 25 LINE",
"358 25 LINE",
"358 0 LINE"
);
},
{
closed = 1;
nodes = (
"103 15 LINE",
"300 594 LINE",
"361 766 LINE",
"331 766 LINE",
"70 15 LINE"
);
},
{
closed = 1;
nodes = (
"824 -231 OFFCURVE",
"862 -214 OFFCURVE",
"883 -188 CURVE",
"883 -161 LINE",
"879 -161 LINE",
"850 -182 OFFCURVE",
"830 -190 OFFCURVE",
"812 -190 CURVE SMOOTH",
"783 -190 OFFCURVE",
"766 -171 OFFCURVE",
"766 -137 CURVE SMOOTH",
"766 -87 OFFCURVE",
"804 -34 OFFCURVE",
"880 22 CURVE",
"844 22 LINE",
"733 -51 OFFCURVE",
"696 -94 OFFCURVE",
"696 -147 CURVE SMOOTH",
"696 -198 OFFCURVE",
"732 -231 OFFCURVE",
"786 -231 CURVE"
);
}
);
};
components = (
{
name = A;
},
{
name = ogonekcomb;
transform = "{1, 0, 0, 1, 393, 22}";
}
);
layerId = UUID0;
width = 686;
},
{
background = {
anchors = (
{
name = bottom;
position = "{358, 0}";
},
{
name = ogonek;
position = "{643, 10}";
},
{
name = top;
position = "{383, 754}";
}
);
paths = (
{
closed = 1;
nodes = (
"666 15 LINE",
"394 763 LINE",
"368 763 LINE",
"300 553 LINE",
"306 516 LINE",
"310 516 LINE",
"493 15 LINE"
);
},
{
closed = 1;
nodes = (
"229 0 LINE",
"229 30 LINE",
"-15 30 LINE",
"-15 0 LINE"
);
},
{
closed = 1;
nodes = (
"508 204 LINE",
"508 233 LINE",
"164 233 LINE",
"164 204 LINE"
);
},
{
closed = 1;
nodes = (
"730 0 LINE",
"730 30 LINE",
"383 30 LINE",
"383 0 LINE"
);
},
{
closed = 1;
nodes = (
"106 15 LINE",
"342 604 LINE",
"394 763 LINE",
"368 763 LINE",
"73 15 LINE"
);
},
{
closed = 1;
nodes = (
"853 -231 OFFCURVE",
"889 -215 OFFCURVE",
"912 -188 CURVE",
"912 -153 LINE",
"908 -153 LINE",
"887 -171 OFFCURVE",
"870 -178 OFFCURVE",
"851 -178 CURVE SMOOTH",
"827 -178 OFFCURVE",
"815 -166 OFFCURVE",
"815 -140 CURVE SMOOTH",
"815 -94 OFFCURVE",
"852 -33 OFFCURVE",
"912 22 CURVE",
"866 22 LINE",
"762 -53 OFFCURVE",
"725 -97 OFFCURVE",
"725 -149 CURVE SMOOTH",
"725 -199 OFFCURVE",
"760 -231 OFFCURVE",
"814 -231 CURVE SMOOTH"
);
}
);
};
components = (
{
name = A;
},
{
name = ogonekcomb;
transform = "{1, 0, 0, 1, 446, -12}";
}
);
layerId = "3AE1663F-34E8-4710-91A2-69F84C961E5F";
width = 715;
}
);
leftKerningGroup = A;
rightKerningGroup = A;
unicode = 0104;
},
{
glyphname = Aring;
lastChange = "2022-05-05 12:22:33 +0000";
layers = (
{
background = {
anchors = (
{
name = bottom;
position = "{343, 0}";
},
{
name = ogonek;
position = "{590, 44}";
},
{
name = top;
position = "{343, 964}";
}
);
paths = (
{
closed = 1;
nodes = (
"612 15 LINE",
"361 766 LINE",
"331 766 LINE",
"283 594 LINE",
"290 565 LINE",
"294 565 LINE",
"478 15 LINE"
);
},
{
closed = 1;
nodes = (
"224 0 LINE",
"224 25 LINE",
"-16 25 LINE",
"-16 0 LINE"
);
},
{
closed = 1;
nodes = (
"503 236 LINE",
"503 261 LINE",
"179 261 LINE",
"179 236 LINE"
);
},
{
closed = 1;
nodes = (
"701 0 LINE",
"701 25 LINE",
"358 25 LINE",
"358 0 LINE"
);
},
{
closed = 1;
nodes = (
"103 15 LINE",
"300 594 LINE",
"361 766 LINE",
"331 766 LINE",
"70 15 LINE"
);
},
{
closed = 1;
nodes = (
"384 817 OFFCURVE",
"416 851 OFFCURVE",
"416 892 CURVE SMOOTH",
"416 933 OFFCURVE",
"383 964 OFFCURVE",
"343 964 CURVE SMOOTH",
"303 964 OFFCURVE",
"269 932 OFFCURVE",
"269 892 CURVE SMOOTH",
"269 851 OFFCURVE",
"303 817 OFFCURVE",
"343 817 CURVE SMOOTH"
);
},
{
closed = 1;
nodes = (
"321 850 OFFCURVE",
"302 870 OFFCURVE",
"302 892 CURVE SMOOTH",
"302 913 OFFCURVE",
"322 931 OFFCURVE",
"343 931 CURVE SMOOTH",
"364 931 OFFCURVE",
"383 913 OFFCURVE",
"383 892 CURVE SMOOTH",
"383 870 OFFCURVE",
"365 850 OFFCURVE",
"343 850 CURVE SMOOTH"
);
}
);
};
components = (
{
name = A;
},
{
name = ringcomb.case;
transform = "{1, 0, 0, 1, 242, 40}";
}
);
layerId = UUID0;
width = 686;
},
{
background = {
anchors = (
{
name = bottom;
position = "{358, 0}";
},
{
name = ogonek;
position = "{643, 10}";
},
{
name = top;
position = "{381, 1004}";
}
);
paths = (
{
closed = 1;
nodes = (
"666 15 LINE",
"394 763 LINE",
"368 763 LINE",
"300 553 LINE",
"306 516 LINE",
"310 516 LINE",
"493 15 LINE"
);
},
{
closed = 1;
nodes = (
"229 0 LINE",
"229 30 LINE",
"-15 30 LINE",
"-15 0 LINE"
);
},
{
closed = 1;
nodes = (
"508 204 LINE",
"508 233 LINE",
"164 233 LINE",
"164 204 LINE"
);
},
{
closed = 1;
nodes = (
"730 0 LINE",
"730 30 LINE",
"383 30 LINE",
"383 0 LINE"
);
},
{
closed = 1;
nodes = (
"106 15 LINE",
"342 604 LINE",
"394 763 LINE",
"368 763 LINE",
"73 15 LINE"
);
},
{
closed = 1;
nodes = (
"434 812 OFFCURVE",
"478 856 OFFCURVE",
"478 908 CURVE SMOOTH",
"478 961 OFFCURVE",
"434 1004 OFFCURVE",
"381 1004 CURVE SMOOTH",
"329 1004 OFFCURVE",
"285 961 OFFCURVE",
"285 908 CURVE SMOOTH",
"285 856 OFFCURVE",
"329 812 OFFCURVE",
"381 812 CURVE SMOOTH"
);
},
{
closed = 1;
nodes = (
"358 865 OFFCURVE",
"339 886 OFFCURVE",
"339 908 CURVE SMOOTH",
"339 931 OFFCURVE",
"359 950 OFFCURVE",
"381 950 CURVE SMOOTH",
"404 950 OFFCURVE",
"424 931 OFFCURVE",
"424 908 CURVE SMOOTH",
"424 885 OFFCURVE",
"405 865 OFFCURVE",
"381 865 CURVE SMOOTH"
);
}
);
};
components = (
{
name = A;
},
{
name = ringcomb.case;
transform = "{1, 0, 0, 1, 276, 80}";
}
);
layerId = "3AE1663F-34E8-4710-91A2-69F84C961E5F";
width = 715;
}
);
leftKerningGroup = A;
rightKerningGroup = A;
unicode = 00C5;
},
{
glyphname = Aringacute;
lastChange = "2022-05-05 12:24:37 +0000";
layers = (
{
background = {
anchors = (
{
name = bottom;
position = "{343, 0}";
},
{
name = ogonek;
position = "{590, 44}";
},
{
name = top;
position = "{343, 1169}";
}
);
paths = (
{
closed = 1;
nodes = (
"612 15 LINE",
"361 766 LINE",
"331 766 LINE",
"283 594 LINE",
"290 565 LINE",
"294 565 LINE",
"478 15 LINE"
);
},
{
closed = 1;
nodes = (
"224 0 LINE",
"224 25 LINE",
"-16 25 LINE",
"-16 0 LINE"
);
},
{
closed = 1;
nodes = (
"503 236 LINE",
"503 261 LINE",
"179 261 LINE",
"179 236 LINE"
);
},
{
closed = 1;
nodes = (
"701 0 LINE",
"701 25 LINE",
"358 25 LINE",
"358 0 LINE"
);
},
{
closed = 1;
nodes = (
"103 15 LINE",
"300 594 LINE",
"361 766 LINE",
"331 766 LINE",
"70 15 LINE"
);
},
{
closed = 1;
nodes = (
"384 817 OFFCURVE",
"416 851 OFFCURVE",
"416 892 CURVE SMOOTH",
"416 933 OFFCURVE",
"383 964 OFFCURVE",
"343 964 CURVE SMOOTH",
"303 964 OFFCURVE",
"269 932 OFFCURVE",
"269 892 CURVE SMOOTH",
"269 851 OFFCURVE",
"303 817 OFFCURVE",
"343 817 CURVE SMOOTH"
);
},
{
closed = 1;
nodes = (
"321 850 OFFCURVE",
"302 870 OFFCURVE",
"302 892 CURVE SMOOTH",
"302 913 OFFCURVE",
"322 931 OFFCURVE",
"343 931 CURVE SMOOTH",
"364 931 OFFCURVE",
"383 913 OFFCURVE",
"383 892 CURVE SMOOTH",
"383 870 OFFCURVE",
"365 850 OFFCURVE",
"343 850 CURVE SMOOTH"
);
},
{
closed = 1;
nodes = (
"252 1037 LINE",
"427 1073 LINE SMOOTH",
"460 1080 OFFCURVE",
"477 1100 OFFCURVE",
"477 1126 CURVE SMOOTH",
"477 1152 OFFCURVE",
"461 1169 OFFCURVE",
"433 1169 CURVE SMOOTH",
"419 1169 OFFCURVE",
"407 1163 OFFCURVE",
"360 1133 CURVE SMOOTH",
"209 1037 LINE"
);
}
);
};
components = (
{
name = A;
},
{
name = ringcomb.case;
transform = "{1, 0, 0, 1, 242, 40}";
},
{
name = acutecomb.case;
transform = "{1, 0, 0, 1, 199, 280}";
}
);
layerId = UUID0;
width = 686;
},
{
background = {
anchors = (
{
name = bottom;
position = "{358, 0}";
},
{
name = ogonek;
position = "{643, 10}";
},
{
name = top;
position = "{381, 1210}";
}
);
paths = (
{
closed = 1;
nodes = (
"666 15 LINE",
"394 763 LINE",
"368 763 LINE",
"300 553 LINE",
"306 516 LINE",
"310 516 LINE",
"493 15 LINE"
);
},
{
closed = 1;
nodes = (
"229 0 LINE",
"229 30 LINE",
"-15 30 LINE",
"-15 0 LINE"
);
},
{
closed = 1;
nodes = (
"508 204 LINE",
"508 233 LINE",
"164 233 LINE",
"164 204 LINE"
);
},
{
closed = 1;
nodes = (
"730 0 LINE",
"730 30 LINE",
"383 30 LINE",
"383 0 LINE"
);
},
{
closed = 1;
nodes = (
"106 15 LINE",
"342 604 LINE",
"394 763 LINE",
"368 763 LINE",
"73 15 LINE"
);
},
{
closed = 1;
nodes = (
"434 812 OFFCURVE",
"478 856 OFFCURVE",
"478 908 CURVE SMOOTH",
"478 961 OFFCURVE",
"434 1004 OFFCURVE",
"381 1004 CURVE SMOOTH",
"329 1004 OFFCURVE",
"285 961 OFFCURVE",
"285 908 CURVE SMOOTH",
"285 856 OFFCURVE",
"329 812 OFFCURVE",
"381 812 CURVE SMOOTH"
);
},
{
closed = 1;
nodes = (
"358 865 OFFCURVE",
"339 886 OFFCURVE",
"339 908 CURVE SMOOTH",
"339 931 OFFCURVE",
"359 950 OFFCURVE",
"381 950 CURVE SMOOTH",
"404 950 OFFCURVE",
"424 931 OFFCURVE",
"424 908 CURVE SMOOTH",
"424 885 OFFCURVE",
"405 865 OFFCURVE",
"381 865 CURVE SMOOTH"
);
},
{
closed = 1;
nodes = (
"297 1073 LINE",
"474 1108 LINE SMOOTH",
"518 1117 OFFCURVE",
"527 1141 OFFCURVE",
"527 1164 CURVE SMOOTH",
"527 1188 OFFCURVE",
"510 1210 OFFCURVE",
"477 1210 CURVE SMOOTH",
"448 1210 OFFCURVE",
"430 1200 OFFCURVE",
"395 1177 CURVE SMOOTH",
"234 1073 LINE"
);
}
);
};
components = (
{
name = A;
},
{
name = ringcomb.case;
transform = "{1, 0, 0, 1, 276, 80}";
},
{
name = acutecomb.case;
transform = "{1, 0, 0, 1, 226, 323}";
}
);
layerId = "3AE1663F-34E8-4710-91A2-69F84C961E5F";
width = 715;
}
);
leftKerningGroup = A;
rightKerningGroup = A;
unicode = 01FA;
},
{
glyphname = Atilde;
lastChange = "2022-05-05 12:25:02 +0000";
layers = (
{
background = {
anchors = (
{
name = bottom;
position = "{343, 0}";
},
{
name = ogonek;
position = "{590, 44}";
},
{
name = top;
position = "{343, 1004}";
}
);
paths = (
{
closed = 1;
nodes = (
"612 15 LINE",
"361 766 LINE",
"331 766 LINE",
"283 594 LINE",
"290 565 LINE",
"294 565 LINE",
"478 15 LINE"
);
},
{
closed = 1;
nodes = (
"224 0 LINE",
"224 25 LINE",
"-16 25 LINE",
"-16 0 LINE"
);
},
{
closed = 1;
nodes = (
"503 236 LINE",
"503 261 LINE",
"179 261 LINE",
"179 236 LINE"
);
},
{
closed = 1;
nodes = (
"701 0 LINE",
"701 25 LINE",
"358 25 LINE",
"358 0 LINE"
);
},
{
closed = 1;
nodes = (
"103 15 LINE",
"300 594 LINE",
"361 766 LINE",
"331 766 LINE",
"70 15 LINE"
);
},
{
closed = 1;
nodes = (
"200 862 LINE",
"207 890 OFFCURVE",
"230 911 OFFCURVE",
"263 911 CURVE SMOOTH",
"310 911 OFFCURVE",
"344 863 OFFCURVE",
"400 863 CURVE SMOOTH",
"469 863 OFFCURVE",
"505 927 OFFCURVE",
"519 990 CURVE",
"485 990 LINE",
"478 969 OFFCURVE",
"460 939 OFFCURVE",
"422 939 CURVE SMOOTH",
"376 939 OFFCURVE",
"339 987 OFFCURVE",
"285 987 CURVE SMOOTH",
"219 987 OFFCURVE",
"177 924 OFFCURVE",
"167 862 CURVE"
);
}
);
};
components = (
{
name = A;
},
{
name = tildecomb.case;
transform = "{1, 0, 0, 1, 157, 70}";
}
);
layerId = UUID0;
width = 686;
},
{
background = {
anchors = (
{
name = bottom;
position = "{358, 0}";
},
{
name = ogonek;
position = "{643, 10}";
},
{
name = top;
position = "{383, 1001}";
}
);
paths = (
{
closed = 1;
nodes = (
"666 15 LINE",
"394 763 LINE",
"368 763 LINE",
"300 553 LINE",
"306 516 LINE",
"310 516 LINE",
"493 15 LINE"
);
},
{
closed = 1;
nodes = (
"229 0 LINE",
"229 30 LINE",
"-15 30 LINE",
"-15 0 LINE"
);
},
{
closed = 1;
nodes = (
"508 204 LINE",
"508 233 LINE",
"164 233 LINE",
"164 204 LINE"
);
},
{
closed = 1;
nodes = (
"730 0 LINE",
"730 30 LINE",
"383 30 LINE",
"383 0 LINE"
);
},
{
closed = 1;
nodes = (
"106 15 LINE",
"342 604 LINE",
"394 763 LINE",
"368 763 LINE",
"73 15 LINE"
);
},
{
closed = 1;
nodes = (
"220 864 LINE",
"229 888 OFFCURVE",
"260 905 OFFCURVE",
"303 905 CURVE SMOOTH",
"350 905 OFFCURVE",
"384 865 OFFCURVE",
"440 865 CURVE SMOOTH",
"521 865 OFFCURVE",
"563 933 OFFCURVE",
"579 1001 CURVE",
"545 1001 LINE",
"536 984 OFFCURVE",
"512 961 OFFCURVE",
"462 961 CURVE SMOOTH",
"416 961 OFFCURVE",
"379 1001 OFFCURVE",
"325 1001 CURVE SMOOTH",
"247 1001 OFFCURVE",
"199 931 OFFCURVE",
"187 864 CURVE"
);
}
);
};
components = (
{
name = A;
},
{
name = tildecomb.case;
transform = "{1, 0, 0, 1, 177, 77}";
}
);
layerId = "3AE1663F-34E8-4710-91A2-69F84C961E5F";
width = 715;
}
);
leftKerningGroup = A;
rightKerningGroup = A;
unicode = 00C3;
},
{
glyphname = AE;
lastChange = "2022-05-05 09:20:46 +0000";
layers = (
{
anchors = (
{
name = bottom;
position = "{524, 0}";
},
{
name = top;
position = "{644, 754}";
}
);
background = {
anchors = (
{
name = bottom;
position = "{524, 0}";
},
{
name = top;
position = "{524, 754}";
}
);
paths = (
{
closed = 1;
nodes = (
"254 0 LINE",
"254 25 LINE",
"138 25 LINE",
"238 236 LINE",
"497 236 LINE",
"497 25 LINE",
"379 25 LINE",
"379 0 LINE",
"1010 0 LINE",
"1010 235 LINE",
"975 235 LINE",
"973 123 OFFCURVE",
"916 25 OFFCURVE",
"817 25 CURVE SMOOTH",
"631 25 LINE",
"631 363 LINE",
"752 362 OFFCURVE",
"783 327 OFFCURVE",
"786 216 CURVE",
"821 216 LINE",
"821 526 LINE",
"786 526 LINE",
"786 419 OFFCURVE",
"752 388 OFFCURVE",
"631 388 CURVE",
"631 729 LINE",
"787 729 LINE SMOOTH",
"886 729 OFFCURVE",
"943 646 OFFCURVE",
"945 549 CURVE",
"980 549 LINE",
"980 754 LINE",
"339 754 LINE",
"339 729 LINE",
"442 729 LINE",
"108 25 LINE",
"10 25 LINE",
"10 0 LINE"
);
},
{
closed = 1;
nodes = (
"473 729 LINE",
"497 729 LINE",
"497 261 LINE",
"250 261 LINE"
);
}
);
};
layerId = UUID0;
paths = (
{
closed = 1;
nodes = (
"254 0 LINE",
"254 25 LINE",
"138 25 LINE",
"238 236 LINE",
"497 236 LINE",
"497 25 LINE",
"379 25 LINE",
"379 0 LINE",
"1010 0 LINE",
"1010 235 LINE",
"975 235 LINE",
"973 123 OFFCURVE",
"916 25 OFFCURVE",
"817 25 CURVE SMOOTH",
"631 25 LINE",
"631 363 LINE",
"752 362 OFFCURVE",
"783 327 OFFCURVE",
"786 216 CURVE",
"821 216 LINE",
"821 526 LINE",
"786 526 LINE",
"786 419 OFFCURVE",
"752 388 OFFCURVE",
"631 388 CURVE",
"631 729 LINE",
"787 729 LINE SMOOTH",
"886 729 OFFCURVE",
"943 646 OFFCURVE",
"945 549 CURVE",
"980 549 LINE",
"980 754 LINE",
"339 754 LINE",
"339 729 LINE",
"442 729 LINE",
"108 25 LINE",
"10 25 LINE",
"10 0 LINE"
);
},
{
closed = 1;
nodes = (
"473 729 LINE",
"497 729 LINE",
"497 261 LINE",
"250 261 LINE"
);
}
);
width = 1047;
},
{
anchors = (
{
name = bottom;
position = "{566, 0}";
},
{
name = top;
position = "{726, 754}";
}
);
background = {
anchors = (
{
name = bottom;
position = "{566, 0}";
},
{
name = top;
position = "{566, 754}";
}
);
paths = (
{
closed = 1;
nodes = (
"254 0 LINE",
"254 30 LINE",
"150 30 LINE",
"257 231 LINE",
"550 231 LINE",
"550 30 LINE",
"455 30 LINE",
"455 0 LINE",
"1096 0 LINE",
"1096 245 LINE",
"1056 245 LINE",
"1054 131 OFFCURVE",
"989 30 OFFCURVE",
"878 30 CURVE SMOOTH",
"708 30 LINE",
"708 356 LINE",
"837 355 OFFCURVE",
"885 311 OFFCURVE",
"887 216 CURVE",
"927 216 LINE",
"927 516 LINE",
"887 516 LINE",
"885 428 OFFCURVE",
"837 387 OFFCURVE",
"708 386 CURVE",
"708 724 LINE",
"878 724 LINE SMOOTH",
"980 724 OFFCURVE",
"1039 646 OFFCURVE",
"1041 554 CURVE",
"1081 554 LINE",
"1081 754 LINE",
"385 754 LINE",
"385 724 LINE",
"470 724 LINE",
"102 30 LINE",
"10 30 LINE",
"10 0 LINE"
);
},
{
closed = 1;
nodes = (
"520 724 LINE",
"550 724 LINE",
"550 263 LINE",
"274 263 LINE"
);
}
);
};
layerId = "3AE1663F-34E8-4710-91A2-69F84C961E5F";
paths = (
{
closed = 1;
nodes = (
"254 0 LINE",
"254 30 LINE",
"150 30 LINE",
"257 231 LINE",
"550 231 LINE",
"550 30 LINE",
"455 30 LINE",
"455 0 LINE",
"1096 0 LINE",
"1096 245 LINE",
"1056 245 LINE",
"1054 131 OFFCURVE",
"989 30 OFFCURVE",
"878 30 CURVE SMOOTH",
"708 30 LINE",
"708 356 LINE",
"837 355 OFFCURVE",
"885 311 OFFCURVE",
"887 216 CURVE",
"927 216 LINE",
"927 516 LINE",
"887 516 LINE",
"885 428 OFFCURVE",
"837 387 OFFCURVE",
"708 386 CURVE",
"708 724 LINE",
"878 724 LINE SMOOTH",
"980 724 OFFCURVE",
"1039 646 OFFCURVE",
"1041 554 CURVE",
"1081 554 LINE",
"1081 754 LINE",
"385 754 LINE",
"385 724 LINE",
"470 724 LINE",
"102 30 LINE",
"10 30 LINE",
"10 0 LINE"
);
},
{
closed = 1;
nodes = (
"520 724 LINE",
"550 724 LINE",
"550 263 LINE",
"274 263 LINE"
);
}
);
width = 1131;
}
);
leftKerningGroup = AE;
rightKerningGroup = E;
unicode = 00C6;
},
{
glyphname = AEacute;
lastChange = "2022-05-05 12:24:37 +0000";
layers = (
{
background = {
anchors = (
{
name = bottom;
position = "{524, 0}";
},
{
name = top;
position = "{524, 959}";
}
);
paths = (
{
closed = 1;
nodes = (
"254 0 LINE",
"254 25 LINE",
"138 25 LINE",
"238 236 LINE",
"497 236 LINE",
"497 25 LINE",
"379 25 LINE",
"379 0 LINE",
"1010 0 LINE",
"1010 235 LINE",
"975 235 LINE",
"973 123 OFFCURVE",
"916 25 OFFCURVE",
"817 25 CURVE SMOOTH",
"631 25 LINE",
"631 363 LINE",
"752 362 OFFCURVE",
"783 327 OFFCURVE",
"786 216 CURVE",
"821 216 LINE",
"821 526 LINE",
"786 526 LINE",
"786 419 OFFCURVE",
"752 388 OFFCURVE",
"631 388 CURVE",
"631 729 LINE",
"787 729 LINE SMOOTH",
"886 729 OFFCURVE",
"943 646 OFFCURVE",
"945 549 CURVE",
"980 549 LINE",
"980 754 LINE",
"339 754 LINE",
"339 729 LINE",
"442 729 LINE",
"108 25 LINE",
"10 25 LINE",
"10 0 LINE"
);
},
{
closed = 1;
nodes = (
"473 729 LINE",
"497 729 LINE",
"497 261 LINE",
"250 261 LINE"
);
},
{
closed = 1;
nodes = (
"433 827 LINE",
"608 863 LINE SMOOTH",
"641 870 OFFCURVE",
"658 890 OFFCURVE",
"658 916 CURVE SMOOTH",
"658 942 OFFCURVE",
"642 959 OFFCURVE",
"614 959 CURVE SMOOTH",
"600 959 OFFCURVE",
"588 953 OFFCURVE",
"541 923 CURVE SMOOTH",
"390 827 LINE"
);
}
);
};
components = (
{
name = AE;
},
{
name = acutecomb.case;
transform = "{1, 0, 0, 1, 500, 35}";
}
);
layerId = UUID0;
width = 1047;
},
{
background = {
anchors = (
{
name = bottom;
position = "{566, 0}";
},
{
name = top;
position = "{566, 960}";
}
);
paths = (
{
closed = 1;
nodes = (
"254 0 LINE",
"254 30 LINE",
"150 30 LINE",
"257 231 LINE",
"550 231 LINE",
"550 30 LINE",
"455 30 LINE",
"455 0 LINE",
"1096 0 LINE",
"1096 245 LINE",
"1056 245 LINE",
"1054 131 OFFCURVE",
"989 30 OFFCURVE",
"878 30 CURVE SMOOTH",
"708 30 LINE",
"708 356 LINE",
"837 355 OFFCURVE",
"885 311 OFFCURVE",
"887 216 CURVE",
"927 216 LINE",
"927 516 LINE",
"887 516 LINE",
"885 428 OFFCURVE",
"837 387 OFFCURVE",
"708 386 CURVE",
"708 724 LINE",
"878 724 LINE SMOOTH",
"980 724 OFFCURVE",
"1039 646 OFFCURVE",
"1041 554 CURVE",
"1081 554 LINE",
"1081 754 LINE",
"385 754 LINE",
"385 724 LINE",
"470 724 LINE",
"102 30 LINE",
"10 30 LINE",
"10 0 LINE"
);
},
{
closed = 1;
nodes = (
"520 724 LINE",
"550 724 LINE",
"550 263 LINE",
"274 263 LINE"
);
},
{
closed = 1;
nodes = (
"482 823 LINE",
"659 858 LINE SMOOTH",
"703 867 OFFCURVE",
"712 891 OFFCURVE",
"712 914 CURVE SMOOTH",
"712 938 OFFCURVE",
"695 960 OFFCURVE",
"662 960 CURVE SMOOTH",
"633 960 OFFCURVE",
"615 950 OFFCURVE",
"580 927 CURVE SMOOTH",
"419 823 LINE"
);
}
);
};
components = (
{
name = AE;
},
{
name = acutecomb.case;
transform = "{1, 0, 0, 1, 569, 37}";
}
);
layerId = "3AE1663F-34E8-4710-91A2-69F84C961E5F";
width = 1131;
}
);
leftKerningGroup = AE;
rightKerningGroup = E;
unicode = 01FC;
},
{
glyphname = B;
lastChange = "2022-05-05 09:13:26 +0000";
layers = (
{
anchors = (
{
name = bottom;
position = "{352, 0}";
},
{
name = top;
position = "{352, 754}";
}
);
background = {
anchors = (
{
name = bottom;
position = "{352, 0}";
},
{
name = top;
position = "{352, 754}";
}
);
paths = (
{
closed = 1;
nodes = (
"380 0 LINE SMOOTH",
"529 0 OFFCURVE",
"643 83 OFFCURVE",
"643 204 CURVE SMOOTH",
"643 345 OFFCURVE",
"487 412 OFFCURVE",
"280 412 CURVE",
"310 382 LINE",
"445 382 OFFCURVE",
"490 344 OFFCURVE",
"490 209 CURVE SMOOTH",
"490 59 OFFCURVE",
"434 25 OFFCURVE",
"340 25 CURVE SMOOTH",
"-6 25 LINE",
"-6 0 LINE"
);
},
{
closed = 1;
nodes = (
"238 15 LINE",
"238 754 LINE",
"104 754 LINE",
"104 15 LINE"
);
},
{
closed = 1;
nodes = (
"340 382 LINE SMOOTH",
"493 382 OFFCURVE",
"615 459 OFFCURVE",
"615 572 CURVE SMOOTH",
"615 677 OFFCURVE",
"511 754 OFFCURVE",
"380 754 CURVE SMOOTH",
"-6 754 LINE",
"-6 729 LINE",
"340 729 LINE SMOOTH",
"428 729 OFFCURVE",
"470 703 OFFCURVE",
"470 568 CURVE SMOOTH",
"470 440 OFFCURVE",
"432 412 OFFCURVE",
"340 412 CURVE SMOOTH",
"207 412 LINE",
"207 382 LINE"
);
}
);
};
layerId = UUID0;
paths = (
{
closed = 1;
nodes = (
"380 0 LINE SMOOTH",
"529 0 OFFCURVE",
"643 83 OFFCURVE",
"643 204 CURVE SMOOTH",
"643 345 OFFCURVE",
"487 412 OFFCURVE",
"280 412 CURVE",
"310 382 LINE",
"445 382 OFFCURVE",
"490 344 OFFCURVE",
"490 209 CURVE SMOOTH",
"490 59 OFFCURVE",
"434 25 OFFCURVE",
"340 25 CURVE SMOOTH",
"-6 25 LINE",
"-6 0 LINE"
);
},
{
closed = 1;
nodes = (
"238 15 LINE",
"238 754 LINE",
"104 754 LINE",
"104 15 LINE"
);
},
{
closed = 1;
nodes = (
"340 382 LINE SMOOTH",
"493 382 OFFCURVE",
"615 459 OFFCURVE",
"615 572 CURVE SMOOTH",
"615 677 OFFCURVE",
"511 754 OFFCURVE",
"380 754 CURVE SMOOTH",
"-6 754 LINE",
"-6 729 LINE",
"340 729 LINE SMOOTH",
"428 729 OFFCURVE",
"470 703 OFFCURVE",
"470 568 CURVE SMOOTH",
"470 440 OFFCURVE",
"432 412 OFFCURVE",
"340 412 CURVE SMOOTH",
"207 412 LINE",
"207 382 LINE"
);
}
);
width = 703;
},
{
anchors = (
{
name = bottom;
position = "{376, 0}";
},
{
name = top;
position = "{376, 754}";
}
);
background = {
anchors = (
{
name = bottom;
position = "{376, 0}";
},
{
name = top;
position = "{376, 754}";
}
);
paths = (
{
closed = 1;
nodes = (
"428 0 LINE SMOOTH",
"586 0 OFFCURVE",
"706 60 OFFCURVE",
"706 194 CURVE SMOOTH",
"706 345 OFFCURVE",
"558 402 OFFCURVE",
"341 402 CURVE",
"371 367 LINE",
"489 367 OFFCURVE",
"528 332 OFFCURVE",
"528 206 CURVE SMOOTH",
"528 63 OFFCURVE",
"475 30 OFFCURVE",
"388 30 CURVE SMOOTH",
"25 30 LINE",
"25 0 LINE"
);
},
{
closed = 1;
nodes = (
"283 15 LINE",
"283 754 LINE",
"125 754 LINE",
"125 15 LINE"
);
},
{
closed = 1;
nodes = (
"388 367 LINE SMOOTH",
"559 367 OFFCURVE",
"678 434 OFFCURVE",
"678 565 CURVE SMOOTH",
"678 691 OFFCURVE",
"568 754 OFFCURVE",
"428 754 CURVE SMOOTH",
"25 754 LINE",
"25 724 LINE",
"388 724 LINE SMOOTH",
"471 724 OFFCURVE",
"508 698 OFFCURVE",
"508 564 CURVE SMOOTH",
"508 432 OFFCURVE",
"472 402 OFFCURVE",
"388 402 CURVE SMOOTH",
"228 402 LINE",
"228 367 LINE"
);
}
);
};
layerId = "3AE1663F-34E8-4710-91A2-69F84C961E5F";
paths = (
{
closed = 1;
nodes = (
"428 0 LINE SMOOTH",
"586 0 OFFCURVE",
"706 60 OFFCURVE",
"706 194 CURVE SMOOTH",
"706 345 OFFCURVE",
"558 402 OFFCURVE",
"341 402 CURVE",
"371 367 LINE",
"489 367 OFFCURVE",
"528 332 OFFCURVE",
"528 206 CURVE SMOOTH",
"528 63 OFFCURVE",
"475 30 OFFCURVE",
"388 30 CURVE SMOOTH",
"25 30 LINE",
"25 0 LINE"
);
},
{
closed = 1;
nodes = (
"283 15 LINE",
"283 754 LINE",
"125 754 LINE",
"125 15 LINE"
);
},
{
closed = 1;
nodes = (
"388 367 LINE SMOOTH",
"559 367 OFFCURVE",
"678 434 OFFCURVE",
"678 565 CURVE SMOOTH",
"678 691 OFFCURVE",
"568 754 OFFCURVE",
"428 754 CURVE SMOOTH",
"25 754 LINE",
"25 724 LINE",
"388 724 LINE SMOOTH",
"471 724 OFFCURVE",
"508 698 OFFCURVE",
"508 564 CURVE SMOOTH",
"508 432 OFFCURVE",
"472 402 OFFCURVE",
"388 402 CURVE SMOOTH",
"228 402 LINE",
"228 367 LINE"
);
}
);
width = 751;
}
);
unicode = 0042;
},
{
glyphname = C;
lastChange = "2022-05-05 09:13:26 +0000";
layers = (
{
anchors = (
{
name = bottom;
position = "{393, 0}";
},
{
name = top;
position = "{397, 754}";
}
);
background = {
anchors = (
{
name = bottom;
position = "{393, 0}";
},
{
name = top;
position = "{397, 754}";
}
);
paths = (
{
closed = 1;
nodes = (
"458 -12 OFFCURVE",
"525 6 OFFCURVE",
"578 46 CURVE",
"612 0 LINE",
"637 0 LINE",
"637 212 LINE",
"612 212 LINE",
"588 103 OFFCURVE",
"531 18 OFFCURVE",
"393 18 CURVE SMOOTH",
"279 18 OFFCURVE",
"206 87 OFFCURVE",
"206 377 CURVE SMOOTH",
"206 667 OFFCURVE",
"281 736 OFFCURVE",
"395 736 CURVE SMOOTH",
"526 736 OFFCURVE",
"581 640 OFFCURVE",
"603 528 CURVE",
"628 528 LINE",
"628 754 LINE",
"603 754 LINE",
"564 704 LINE",
"513 747 OFFCURVE",
"459 766 OFFCURVE",
"396 766 CURVE SMOOTH",
"200 766 OFFCURVE",
"46 583 OFFCURVE",
"46 377 CURVE SMOOTH",
"46 171 OFFCURVE",
"197 -12 OFFCURVE",
"393 -12 CURVE SMOOTH"
);
}
);
};
layerId = UUID0;
paths = (
{
closed = 1;
nodes = (
"458 -12 OFFCURVE",
"525 6 OFFCURVE",
"578 46 CURVE",
"612 0 LINE",
"637 0 LINE",
"637 212 LINE",
"612 212 LINE",
"588 103 OFFCURVE",
"531 18 OFFCURVE",
"393 18 CURVE SMOOTH",
"279 18 OFFCURVE",
"206 87 OFFCURVE",
"206 377 CURVE SMOOTH",
"206 667 OFFCURVE",
"281 736 OFFCURVE",
"395 736 CURVE SMOOTH",
"526 736 OFFCURVE",
"581 640 OFFCURVE",
"603 528 CURVE",
"628 528 LINE",
"628 754 LINE",
"603 754 LINE",
"564 704 LINE",
"513 747 OFFCURVE",
"459 766 OFFCURVE",
"396 766 CURVE SMOOTH",
"200 766 OFFCURVE",
"46 583 OFFCURVE",
"46 377 CURVE SMOOTH",
"46 171 OFFCURVE",
"197 -12 OFFCURVE",
"393 -12 CURVE SMOOTH"
);
}
);
width = 687;
},
{
anchors = (
{
name = bottom;
position = "{412, -3}";
},
{
name = top;
position = "{410, 754}";
}
);
background = {
anchors = (
{
name = bottom;
position = "{412, -3}";
},
{
name = top;
position = "{410, 754}";
}
);
paths = (
{
closed = 1;
nodes = (
"476 -13 OFFCURVE",
"534 4 OFFCURVE",
"592 46 CURVE",
"636 0 LINE",
"666 0 LINE",
"666 217 LINE",
"636 217 LINE",
"613 112 OFFCURVE",
"549 22 OFFCURVE",
"413 22 CURVE SMOOTH",
"297 22 OFFCURVE",
"240 86 OFFCURVE",
"240 361 CURVE SMOOTH",
"240 672 OFFCURVE",
"313 728 OFFCURVE",
"412 728 CURVE SMOOTH",
"537 728 OFFCURVE",
"600 639 OFFCURVE",
"622 523 CURVE",
"652 523 LINE",
"652 754 LINE",
"627 754 LINE",
"583 704 LINE",
"530 744 OFFCURVE",
"485 763 OFFCURVE",
"416 763 CURVE SMOOTH",
"201 763 OFFCURVE",
"50 577 OFFCURVE",
"50 372 CURVE SMOOTH",
"50 167 OFFCURVE",
"202 -13 OFFCURVE",
"412 -13 CURVE SMOOTH"
);
}
);
};
layerId = "3AE1663F-34E8-4710-91A2-69F84C961E5F";
paths = (
{
closed = 1;
nodes = (
"476 -13 OFFCURVE",
"534 4 OFFCURVE",
"592 46 CURVE",
"636 0 LINE",
"666 0 LINE",
"666 217 LINE",
"636 217 LINE",
"613 112 OFFCURVE",
"549 22 OFFCURVE",
"413 22 CURVE SMOOTH",
"297 22 OFFCURVE",
"240 86 OFFCURVE",
"240 361 CURVE SMOOTH",
"240 672 OFFCURVE",
"313 728 OFFCURVE",
"412 728 CURVE SMOOTH",
"537 728 OFFCURVE",
"600 639 OFFCURVE",
"622 523 CURVE",
"652 523 LINE",
"652 754 LINE",
"627 754 LINE",
"583 704 LINE",
"530 744 OFFCURVE",
"485 763 OFFCURVE",
"416 763 CURVE SMOOTH",
"201 763 OFFCURVE",
"50 577 OFFCURVE",
"50 372 CURVE SMOOTH",
"50 167 OFFCURVE",
"202 -13 OFFCURVE",
"412 -13 CURVE SMOOTH"
);
}
);
width = 711;
}
);
leftKerningGroup = C;
rightKerningGroup = C;
unicode = 0043;
},
{
glyphname = Cacute;
lastChange = "2022-05-05 12:24:37 +0000";
layers = (
{
background = {
anchors = (
{
name = bottom;
position = "{393, 0}";
},
{
name = top;
position = "{397, 959}";
}
);
paths = (
{
closed = 1;
nodes = (
"458 -12 OFFCURVE",
"525 6 OFFCURVE",
"578 46 CURVE",
"612 0 LINE",
"637 0 LINE",
"637 212 LINE",
"612 212 LINE",
"588 103 OFFCURVE",
"531 18 OFFCURVE",
"393 18 CURVE SMOOTH",
"279 18 OFFCURVE",
"206 87 OFFCURVE",
"206 377 CURVE SMOOTH",
"206 667 OFFCURVE",
"281 736 OFFCURVE",
"395 736 CURVE SMOOTH",
"526 736 OFFCURVE",
"581 640 OFFCURVE",
"603 528 CURVE",
"628 528 LINE",
"628 754 LINE",
"603 754 LINE",
"564 704 LINE",
"513 747 OFFCURVE",
"459 766 OFFCURVE",
"396 766 CURVE SMOOTH",
"200 766 OFFCURVE",
"46 583 OFFCURVE",
"46 377 CURVE SMOOTH",
"46 171 OFFCURVE",
"197 -12 OFFCURVE",
"393 -12 CURVE SMOOTH"
);
},
{
closed = 1;
nodes = (
"306 827 LINE",
"481 863 LINE SMOOTH",
"514 870 OFFCURVE",
"531 890 OFFCURVE",
"531 916 CURVE SMOOTH",
"531 942 OFFCURVE",
"515 959 OFFCURVE",
"487 959 CURVE SMOOTH",
"473 959 OFFCURVE",
"461 953 OFFCURVE",
"414 923 CURVE SMOOTH",
"263 827 LINE"
);
}
);
};
components = (
{
name = C;
},
{
name = acutecomb.case;
transform = "{1, 0, 0, 1, 253, 35}";
}
);
layerId = UUID0;
width = 687;
},
{
background = {
anchors = (
{
name = bottom;
position = "{412, -3}";
},
{
name = top;
position = "{410, 960}";
}
);
paths = (
{
closed = 1;
nodes = (
"476 -13 OFFCURVE",
"534 4 OFFCURVE",
"592 46 CURVE",
"636 0 LINE",
"666 0 LINE",
"666 217 LINE",
"636 217 LINE",
"613 112 OFFCURVE",
"549 22 OFFCURVE",
"413 22 CURVE SMOOTH",
"297 22 OFFCURVE",
"240 86 OFFCURVE",
"240 361 CURVE SMOOTH",
"240 672 OFFCURVE",
"313 728 OFFCURVE",
"412 728 CURVE SMOOTH",
"537 728 OFFCURVE",
"600 639 OFFCURVE",
"622 523 CURVE",
"652 523 LINE",
"652 754 LINE",
"627 754 LINE",
"583 704 LINE",
"530 744 OFFCURVE",
"485 763 OFFCURVE",
"416 763 CURVE SMOOTH",
"201 763 OFFCURVE",
"50 577 OFFCURVE",
"50 372 CURVE SMOOTH",
"50 167 OFFCURVE",
"202 -13 OFFCURVE",
"412 -13 CURVE SMOOTH"
);
},
{
closed = 1;
nodes = (
"326 823 LINE",
"503 858 LINE SMOOTH",
"547 867 OFFCURVE",
"556 891 OFFCURVE",
"556 914 CURVE SMOOTH",
"556 938 OFFCURVE",
"539 960 OFFCURVE",
"506 960 CURVE SMOOTH",
"477 960 OFFCURVE",
"459 950 OFFCURVE",
"424 927 CURVE SMOOTH",
"263 823 LINE"
);
}
);
};
components = (
{
name = C;
},
{
name = acutecomb.case;
transform = "{1, 0, 0, 1, 253, 37}";
}
);
layerId = "3AE1663F-34E8-4710-91A2-69F84C961E5F";
width = 711;
}
);
leftKerningGroup = C;
rightKerningGroup = C;
unicode = 0106;
},
{
glyphname = Ccaron;
lastChange = "2022-05-05 09:16:31 +0000";
layers = (
{
background = {
anchors = (
{
name = bottom;
position = "{393, 0}";
},
{
name = top;
position = "{397, 754}";
}
);
paths = (
{
closed = 1;
nodes = (
"458 -12 OFFCURVE",
"525 6 OFFCURVE",
"578 46 CURVE",
"612 0 LINE",
"637 0 LINE",
"637 212 LINE",
"612 212 LINE",
"588 103 OFFCURVE",
"531 18 OFFCURVE",
"393 18 CURVE SMOOTH",
"279 18 OFFCURVE",
"206 87 OFFCURVE",
"206 377 CURVE SMOOTH",
"206 667 OFFCURVE",
"281 736 OFFCURVE",
"395 736 CURVE SMOOTH",
"526 736 OFFCURVE",
"581 640 OFFCURVE",
"603 528 CURVE",
"628 528 LINE",
"628 754 LINE",
"603 754 LINE",
"564 704 LINE",
"513 747 OFFCURVE",
"459 766 OFFCURVE",
"396 766 CURVE SMOOTH",
"200 766 OFFCURVE",
"46 583 OFFCURVE",
"46 377 CURVE SMOOTH",
"46 171 OFFCURVE",
"197 -12 OFFCURVE",
"393 -12 CURVE SMOOTH"
);
},
{
closed = 1;
nodes = (
"430 793 LINE",
"561 925 LINE",
"518 925 LINE",
"399 864 LINE",
"280 925 LINE",
"237 925 LINE",
"368 793 LINE"
);
}
);
};
components = (
{
name = C;
},
{
name = caroncomb.case;
transform = "{1, 0, 0, 1, 225, 0}";
}
);
layerId = UUID0;
width = 687;
},
{
background = {
anchors = (
{
name = bottom;
position = "{412, -3}";
},
{
name = top;
position = "{410, 754}";
}
);
paths = (
{
closed = 1;
nodes = (
"476 -13 OFFCURVE",
"534 4 OFFCURVE",
"592 46 CURVE",
"636 0 LINE",
"666 0 LINE",
"666 217 LINE",
"636 217 LINE",
"613 112 OFFCURVE",
"549 22 OFFCURVE",
"413 22 CURVE SMOOTH",
"297 22 OFFCURVE",
"240 86 OFFCURVE",
"240 361 CURVE SMOOTH",
"240 672 OFFCURVE",
"313 728 OFFCURVE",
"412 728 CURVE SMOOTH",
"537 728 OFFCURVE",
"600 639 OFFCURVE",
"622 523 CURVE",
"652 523 LINE",
"652 754 LINE",
"627 754 LINE",
"583 704 LINE",
"530 744 OFFCURVE",
"485 763 OFFCURVE",
"416 763 CURVE SMOOTH",
"201 763 OFFCURVE",
"50 577 OFFCURVE",
"50 372 CURVE SMOOTH",
"50 167 OFFCURVE",
"202 -13 OFFCURVE",
"412 -13 CURVE SMOOTH"
);
},
{
closed = 1;
nodes = (
"439 790 LINE",
"610 926 LINE",
"557 926 LINE",
"408 884 LINE",
"259 926 LINE",
"206 926 LINE",
"377 790 LINE"
);
}
);
};
components = (
{
name = C;
},
{
name = caroncomb.case;
transform = "{1, 0, 0, 1, 198, 0}";
}
);
layerId = "3AE1663F-34E8-4710-91A2-69F84C961E5F";
width = 711;
}
);
leftKerningGroup = C;
rightKerningGroup = C;
unicode = 010C;
},
{
glyphname = Ccedilla;
lastChange = "2022-05-05 09:16:31 +0000";
layers = (
{
background = {
anchors = (
{
name = bottom;
position = "{393, 0}";
},
{
name = top;
position = "{397, 754}";
}
);
paths = (
{
closed = 1;
nodes = (
"458 -12 OFFCURVE",
"525 6 OFFCURVE",
"578 46 CURVE",
"612 0 LINE",
"637 0 LINE",
"637 212 LINE",
"612 212 LINE",
"588 103 OFFCURVE",
"531 18 OFFCURVE",
"393 18 CURVE SMOOTH",
"279 18 OFFCURVE",
"206 87 OFFCURVE",
"206 377 CURVE SMOOTH",
"206 667 OFFCURVE",
"281 736 OFFCURVE",
"395 736 CURVE SMOOTH",
"526 736 OFFCURVE",
"581 640 OFFCURVE",
"603 528 CURVE",
"628 528 LINE",
"628 754 LINE",
"603 754 LINE",
"564 704 LINE",
"513 747 OFFCURVE",
"459 766 OFFCURVE",
"396 766 CURVE SMOOTH",
"200 766 OFFCURVE",
"46 583 OFFCURVE",
"46 377 CURVE SMOOTH",
"46 171 OFFCURVE",
"197 -12 OFFCURVE",
"393 -12 CURVE SMOOTH"
);
},
{
closed = 1;
nodes = (
"453 -220 OFFCURVE",
"505 -185 OFFCURVE",
"505 -132 CURVE SMOOTH",
"505 -86 OFFCURVE",
"466 -60 OFFCURVE",
"409 -60 CURVE SMOOTH",
"390 -60 LINE",
"414 16 LINE",
"384 16 LINE",
"350 -84 LINE",
"402 -85 OFFCURVE",
"425 -104 OFFCURVE",
"425 -139 CURVE SMOOTH",
"425 -173 OFFCURVE",
"402 -189 OFFCURVE",
"365 -189 CURVE SMOOTH",
"345 -189 OFFCURVE",
"319 -184 OFFCURVE",
"309 -178 CURVE",
"298 -203 LINE",
"309 -210 OFFCURVE",
"338 -220 OFFCURVE",
"378 -220 CURVE SMOOTH"
);
}
);
};
components = (
{
name = C;
},
{
name = cedillacomb;
transform = "{1, 0, 0, 1, 279, 0}";
}
);
layerId = UUID0;
width = 687;
},
{
background = {
anchors = (
{
name = bottom;
position = "{412, -3}";
},
{
name = top;
position = "{410, 754}";
}
);
paths = (
{
closed = 1;
nodes = (
"476 -13 OFFCURVE",
"534 4 OFFCURVE",
"592 46 CURVE",
"636 0 LINE",
"666 0 LINE",
"666 217 LINE",
"636 217 LINE",
"613 112 OFFCURVE",
"549 22 OFFCURVE",
"413 22 CURVE SMOOTH",
"297 22 OFFCURVE",
"240 86 OFFCURVE",
"240 361 CURVE SMOOTH",
"240 672 OFFCURVE",
"313 728 OFFCURVE",
"412 728 CURVE SMOOTH",
"537 728 OFFCURVE",
"600 639 OFFCURVE",
"622 523 CURVE",
"652 523 LINE",
"652 754 LINE",
"627 754 LINE",
"583 704 LINE",
"530 744 OFFCURVE",
"485 763 OFFCURVE",
"416 763 CURVE SMOOTH",
"201 763 OFFCURVE",
"50 577 OFFCURVE",
"50 372 CURVE SMOOTH",
"50 167 OFFCURVE",
"202 -13 OFFCURVE",
"412 -13 CURVE SMOOTH"
);
},
{
closed = 1;
nodes = (
"475 -225 OFFCURVE",
"535 -190 OFFCURVE",
"535 -128 CURVE SMOOTH",
"535 -82 OFFCURVE",
"494 -56 OFFCURVE",
"431 -56 CURVE SMOOTH",
"412 -56 LINE",
"436 20 LINE",
"391 20 LINE",
"352 -90 LINE",
"407 -91 OFFCURVE",
"432 -108 OFFCURVE",
"432 -140 CURVE SMOOTH",
"432 -171 OFFCURVE",
"409 -185 OFFCURVE",
"372 -185 CURVE SMOOTH",
"352 -185 OFFCURVE",
"326 -180 OFFCURVE",
"316 -174 CURVE",
"305 -208 LINE",
"316 -215 OFFCURVE",
"345 -225 OFFCURVE",
"385 -225 CURVE SMOOTH"
);
}
);
};
components = (
{
name = C;
},
{
name = cedillacomb;
transform = "{1, 0, 0, 1, 287, -3}";
}
);
layerId = "3AE1663F-34E8-4710-91A2-69F84C961E5F";
width = 711;
}
);
leftKerningGroup = C;
rightKerningGroup = C;
unicode = 00C7;
},
{
glyphname = Ccircumflex;
lastChange = "2022-05-05 12:24:42 +0000";
layers = (
{
background = {
anchors = (
{
name = bottom;
position = "{393, 0}";
},
{
name = top;
position = "{397, 881}";
}
);
paths = (
{
closed = 1;
nodes = (
"458 -12 OFFCURVE",
"525 6 OFFCURVE",
"578 46 CURVE",
"612 0 LINE",
"637 0 LINE",
"637 212 LINE",
"612 212 LINE",
"588 103 OFFCURVE",
"531 18 OFFCURVE",
"393 18 CURVE SMOOTH",
"279 18 OFFCURVE",
"206 87 OFFCURVE",
"206 377 CURVE SMOOTH",
"206 667 OFFCURVE",
"281 736 OFFCURVE",
"395 736 CURVE SMOOTH",
"526 736 OFFCURVE",
"581 640 OFFCURVE",
"603 528 CURVE",
"628 528 LINE",
"628 754 LINE",
"603 754 LINE",
"564 704 LINE",
"513 747 OFFCURVE",
"459 766 OFFCURVE",
"396 766 CURVE SMOOTH",
"200 766 OFFCURVE",
"46 583 OFFCURVE",
"46 377 CURVE SMOOTH",
"46 171 OFFCURVE",
"197 -12 OFFCURVE",
"393 -12 CURVE SMOOTH"
);
},
{
closed = 1;
nodes = (
"288 824 LINE",
"397 875 LINE",
"506 824 LINE",
"549 824 LINE",
"428 936 LINE",
"366 936 LINE",
"245 824 LINE"
);
}
);
};
components = (
{
name = C;
},
{
name = circumflexcomb.case;
transform = "{1, 0, 0, 1, 225, 11}";
}
);
layerId = UUID0;
width = 687;
},
{
background = {
anchors = (
{
name = bottom;
position = "{412, -3}";
},
{
name = top;
position = "{410, 893}";
}
);
paths = (
{
closed = 1;
nodes = (
"476 -13 OFFCURVE",
"534 4 OFFCURVE",
"592 46 CURVE",
"636 0 LINE",
"666 0 LINE",
"666 217 LINE",
"636 217 LINE",
"613 112 OFFCURVE",
"549 22 OFFCURVE",
"413 22 CURVE SMOOTH",
"297 22 OFFCURVE",
"240 86 OFFCURVE",
"240 361 CURVE SMOOTH",
"240 672 OFFCURVE",
"313 728 OFFCURVE",
"412 728 CURVE SMOOTH",
"537 728 OFFCURVE",
"600 639 OFFCURVE",
"622 523 CURVE",
"652 523 LINE",
"652 754 LINE",
"627 754 LINE",
"583 704 LINE",
"530 744 OFFCURVE",
"485 763 OFFCURVE",
"416 763 CURVE SMOOTH",
"201 763 OFFCURVE",
"50 577 OFFCURVE",
"50 372 CURVE SMOOTH",
"50 167 OFFCURVE",
"202 -13 OFFCURVE",
"412 -13 CURVE SMOOTH"
);
},
{
closed = 1;
nodes = (
"291 827 LINE",
"410 869 LINE",
"529 827 LINE",
"582 827 LINE",
"441 943 LINE",
"379 943 LINE",
"238 827 LINE"
);
}
);
};
components = (
{
name = C;
},
{
name = circumflexcomb.case;
transform = "{1, 0, 0, 1, 198, 20}";
}
);
layerId = "3AE1663F-34E8-4710-91A2-69F84C961E5F";
width = 711;
}
);
leftKerningGroup = C;
rightKerningGroup = C;
unicode = 0108;
},
{
glyphname = Cdotaccent;
lastChange = "2022-05-05 09:47:42 +0000";
layers = (
{
background = {
anchors = (
{
name = bottom;
position = "{393, 0}";
},
{
name = top;
position = "{397, 754}";
}
);
paths = (
{
closed = 1;
nodes = (
"458 -12 OFFCURVE",
"525 6 OFFCURVE",
"578 46 CURVE",
"612 0 LINE",
"637 0 LINE",
"637 212 LINE",
"612 212 LINE",
"588 103 OFFCURVE",
"531 18 OFFCURVE",
"393 18 CURVE SMOOTH",
"279 18 OFFCURVE",
"206 87 OFFCURVE",
"206 377 CURVE SMOOTH",
"206 667 OFFCURVE",
"281 736 OFFCURVE",
"395 736 CURVE SMOOTH",
"526 736 OFFCURVE",
"581 640 OFFCURVE",
"603 528 CURVE",
"628 528 LINE",
"628 754 LINE",
"603 754 LINE",
"564 704 LINE",
"513 747 OFFCURVE",
"459 766 OFFCURVE",
"396 766 CURVE SMOOTH",
"200 766 OFFCURVE",
"46 583 OFFCURVE",
"46 377 CURVE SMOOTH",
"46 171 OFFCURVE",
"197 -12 OFFCURVE",
"393 -12 CURVE SMOOTH"
);
},
{
closed = 1;
nodes = (
"434 797 OFFCURVE",
"464 827 OFFCURVE",
"464 863 CURVE SMOOTH",
"464 899 OFFCURVE",
"434 929 OFFCURVE",
"398 929 CURVE SMOOTH",
"362 929 OFFCURVE",
"332 899 OFFCURVE",
"332 863 CURVE SMOOTH",
"332 827 OFFCURVE",
"362 797 OFFCURVE",
"398 797 CURVE SMOOTH"
);
}
);
};
components = (
{
name = C;
},
{
name = dotaccentcomb.case;
transform = "{1, 0, 0, 1, 321, 0}";
}
);
layerId = UUID0;
width = 687;
},
{
background = {
anchors = (
{
name = bottom;
position = "{412, -3}";
},
{
name = top;
position = "{410, 754}";
}
);
paths = (
{
closed = 1;
nodes = (
"476 -13 OFFCURVE",
"534 4 OFFCURVE",
"592 46 CURVE",
"636 0 LINE",
"666 0 LINE",
"666 217 LINE",
"636 217 LINE",
"613 112 OFFCURVE",
"549 22 OFFCURVE",
"413 22 CURVE SMOOTH",
"297 22 OFFCURVE",
"240 86 OFFCURVE",
"240 361 CURVE SMOOTH",
"240 672 OFFCURVE",
"313 728 OFFCURVE",
"412 728 CURVE SMOOTH",
"537 728 OFFCURVE",
"600 639 OFFCURVE",
"622 523 CURVE",
"652 523 LINE",
"652 754 LINE",
"627 754 LINE",
"583 704 LINE",
"530 744 OFFCURVE",
"485 763 OFFCURVE",
"416 763 CURVE SMOOTH",
"201 763 OFFCURVE",
"50 577 OFFCURVE",
"50 372 CURVE SMOOTH",
"50 167 OFFCURVE",
"202 -13 OFFCURVE",
"412 -13 CURVE SMOOTH"
);
},
{
closed = 1;
nodes = (
"447 789 OFFCURVE",
"478 820 OFFCURVE",
"478 857 CURVE SMOOTH",
"478 895 OFFCURVE",
"447 926 OFFCURVE",
"409 926 CURVE SMOOTH",
"372 926 OFFCURVE",
"341 895 OFFCURVE",
"341 857 CURVE SMOOTH",
"341 820 OFFCURVE",
"372 789 OFFCURVE",
"409 789 CURVE SMOOTH"
);
}
);
};
components = (
{
name = C;
},
{
name = dotaccentcomb.case;
transform = "{1, 0, 0, 1, 331, 0}";
}
);
layerId = "3AE1663F-34E8-4710-91A2-69F84C961E5F";
width = 711;
}
);
leftKerningGroup = C;
rightKerningGroup = C;
unicode = 010A;
},
{
glyphname = D;
lastChange = "2022-05-05 12:23:23 +0000";
layers = (
{
anchors = (
{
name = bottom;
position = "{389, 0}";
},
{
name = center;
position = "{184, 389}";
},
{
name = top;
position = "{389, 754}";
}
);
background = {
anchors = (
{
name = bottom;
position = "{389, 0}";
},
{
name = center;
position = "{389, 377}";
},
{
name = top;
position = "{389, 754}";
}
);
paths = (
{
closed = 1;
nodes = (
"376 0 LINE SMOOTH",
"576 0 OFFCURVE",
"733 179 OFFCURVE",
"733 377 CURVE SMOOTH",
"733 575 OFFCURVE",
"577 754 OFFCURVE",
"377 754 CURVE SMOOTH",
"11 754 LINE",
"11 729 LINE",
"345 729 LINE SMOOTH",
"509 729 OFFCURVE",
"573 663 OFFCURVE",
"573 377 CURVE SMOOTH",
"573 91 OFFCURVE",
"510 25 OFFCURVE",
"346 25 CURVE SMOOTH",
"11 25 LINE",
"11 0 LINE"
);
},
{
closed = 1;
nodes = (
"255 15 LINE",
"255 754 LINE",
"121 754 LINE",
"121 15 LINE"
);
}
);
};
layerId = UUID0;
paths = (
{
closed = 1;
nodes = (
"376 0 LINE SMOOTH",
"576 0 OFFCURVE",
"733 179 OFFCURVE",
"733 377 CURVE SMOOTH",
"733 575 OFFCURVE",
"577 754 OFFCURVE",
"377 754 CURVE SMOOTH",
"11 754 LINE",
"11 729 LINE",
"345 729 LINE SMOOTH",
"509 729 OFFCURVE",
"573 663 OFFCURVE",
"573 377 CURVE SMOOTH",
"573 91 OFFCURVE",
"510 25 OFFCURVE",
"346 25 CURVE SMOOTH",
"11 25 LINE",
"11 0 LINE"
);
},
{
closed = 1;
nodes = (
"255 15 LINE",
"255 754 LINE",
"121 754 LINE",
"121 15 LINE"
);
}
);
width = 777;
},
{
anchors = (
{
name = bottom;
position = "{399, 0}";
},
{
name = center;
position = "{183, 397}";
},
{
name = top;
position = "{399, 754}";
}
);
background = {
anchors = (
{
name = bottom;
position = "{399, 0}";
},
{
name = center;
position = "{399, 377}";
},
{
name = top;
position = "{399, 754}";
}
);
paths = (
{
closed = 1;
nodes = (
"411 0 LINE SMOOTH",
"611 0 OFFCURVE",
"768 180 OFFCURVE",
"768 380 CURVE SMOOTH",
"768 578 OFFCURVE",
"615 754 OFFCURVE",
"421 754 CURVE SMOOTH",
"20 754 LINE",
"20 724 LINE",
"390 724 LINE SMOOTH",
"527 724 OFFCURVE",
"578 657 OFFCURVE",
"578 379 CURVE SMOOTH",
"578 95 OFFCURVE",
"525 30 OFFCURVE",
"381 30 CURVE SMOOTH",
"20 30 LINE",
"20 0 LINE"
);
},
{
closed = 1;
nodes = (
"273 15 LINE",
"273 754 LINE",
"115 754 LINE",
"115 15 LINE"
);
}
);
};
layerId = "3AE1663F-34E8-4710-91A2-69F84C961E5F";
paths = (
{
closed = 1;
nodes = (
"411 0 LINE SMOOTH",
"611 0 OFFCURVE",
"768 180 OFFCURVE",
"768 380 CURVE SMOOTH",
"768 578 OFFCURVE",
"615 754 OFFCURVE",
"421 754 CURVE SMOOTH",
"20 754 LINE",
"20 724 LINE",
"390 724 LINE SMOOTH",
"527 724 OFFCURVE",
"578 657 OFFCURVE",
"578 379 CURVE SMOOTH",
"578 95 OFFCURVE",
"525 30 OFFCURVE",
"381 30 CURVE SMOOTH",
"20 30 LINE",
"20 0 LINE"
);
},
{
closed = 1;
nodes = (
"273 15 LINE",
"273 754 LINE",
"115 754 LINE",
"115 15 LINE"
);
}
);
width = 798;
}
);
leftKerningGroup = D;
rightKerningGroup = D;
unicode = 0044;
},
{
glyphname = DZ;
lastChange = "2022-05-05 09:16:31 +0000";
layers = (
{
background = {
anchors = (
{
name = bottom;
position = "{1103, 0}";
},
{
name = center;
position = "{389, 377}";
},
{
name = top;
position = "{1103, 754}";
}
);
paths = (
{
closed = 1;
nodes = (
"376 0 LINE SMOOTH",
"576 0 OFFCURVE",
"733 179 OFFCURVE",
"733 377 CURVE SMOOTH",
"733 575 OFFCURVE",
"577 754 OFFCURVE",
"377 754 CURVE SMOOTH",
"11 754 LINE",
"11 729 LINE",
"345 729 LINE SMOOTH",
"509 729 OFFCURVE",
"573 663 OFFCURVE",
"573 377 CURVE SMOOTH",
"573 91 OFFCURVE",
"510 25 OFFCURVE",
"346 25 CURVE SMOOTH",
"11 25 LINE",
"11 0 LINE"
);
},
{
closed = 1;
nodes = (
"255 15 LINE",
"255 754 LINE",
"121 754 LINE",
"121 15 LINE"
);
},
{
closed = 1;
nodes = (
"970 18 LINE",
"970 29 LINE",
"1385 719 LINE",
"1385 737 LINE",
"1223 731 LINE",
"1223 725 LINE",
"805 32 LINE",
"805 7 LINE"
);
},
{
closed = 1;
nodes = (
"1385 0 LINE",
"1385 245 LINE",
"1350 245 LINE",
"1348 128 OFFCURVE",
"1291 25 OFFCURVE",
"1192 25 CURVE SMOOTH",
"805 25 LINE",
"805 0 LINE"
);
},
{
closed = 1;
nodes = (
"880 549 LINE",
"882 646 OFFCURVE",
"939 729 OFFCURVE",
"1038 729 CURVE SMOOTH",
"1385 729 LINE",
"1385 754 LINE",
"845 754 LINE",
"845 549 LINE"
);
}
);
};
components = (
{
name = D;
},
{
name = Z;
transform = "{1, 0, 0, 1, 777, 0}";
}
);
layerId = UUID0;
width = 1428;
},
{
background = {
anchors = (
{
name = bottom;
position = "{1109, 0}";
},
{
name = center;
position = "{399, 377}";
},
{
name = top;
position = "{1109, 754}";
}
);
paths = (
{
closed = 1;
nodes = (
"411 0 LINE SMOOTH",
"611 0 OFFCURVE",
"768 180 OFFCURVE",
"768 380 CURVE SMOOTH",
"768 578 OFFCURVE",
"615 754 OFFCURVE",
"421 754 CURVE SMOOTH",
"20 754 LINE",
"20 724 LINE",
"390 724 LINE SMOOTH",
"527 724 OFFCURVE",
"578 657 OFFCURVE",
"578 379 CURVE SMOOTH",
"578 95 OFFCURVE",
"525 30 OFFCURVE",
"381 30 CURVE SMOOTH",
"20 30 LINE",
"20 0 LINE"
);
},
{
closed = 1;
nodes = (
"273 15 LINE",
"273 754 LINE",
"115 754 LINE",
"115 15 LINE"
);
},
{
closed = 1;
nodes = (
"993 23 LINE",
"993 36 LINE",
"1414 714 LINE",
"1414 732 LINE",
"1222 726 LINE",
"1222 720 LINE",
"808 39 LINE",
"808 7 LINE"
);
},
{
closed = 1;
nodes = (
"1404 0 LINE",
"1404 245 LINE",
"1364 245 LINE",
"1362 133 OFFCURVE",
"1289 32 OFFCURVE",
"1166 32 CURVE SMOOTH",
"808 32 LINE",
"808 0 LINE"
);
},
{
closed = 1;
nodes = (
"898 549 LINE",
"900 643 OFFCURVE",
"969 724 OFFCURVE",
"1086 724 CURVE SMOOTH",
"1414 724 LINE",
"1414 754 LINE",
"858 754 LINE",
"858 549 LINE"
);
}
);
};
components = (
{
name = D;
},
{
name = Z;
transform = "{1, 0, 0, 1, 798, 0}";
}
);
layerId = "3AE1663F-34E8-4710-91A2-69F84C961E5F";
width = 1419;
}
);
leftKerningGroup = D;
rightKerningGroup = Z;
unicode = 01F1;
},
{
glyphname = DZcaron;
lastChange = "2022-05-05 09:16:31 +0000";
layers = (
{
background = {
anchors = (
{
name = bottom;
position = "{1103, 0}";
},
{
name = center;
position = "{389, 377}";
},
{
name = top;
position = "{1103, 754}";
}
);
paths = (
{
closed = 1;
nodes = (
"376 0 LINE SMOOTH",
"576 0 OFFCURVE",
"733 179 OFFCURVE",
"733 377 CURVE SMOOTH",
"733 575 OFFCURVE",
"577 754 OFFCURVE",
"377 754 CURVE SMOOTH",
"11 754 LINE",
"11 729 LINE",
"345 729 LINE SMOOTH",
"509 729 OFFCURVE",
"573 663 OFFCURVE",
"573 377 CURVE SMOOTH",
"573 91 OFFCURVE",
"510 25 OFFCURVE",
"346 25 CURVE SMOOTH",
"11 25 LINE",
"11 0 LINE"
);
},
{
closed = 1;
nodes = (
"255 15 LINE",
"255 754 LINE",
"121 754 LINE",
"121 15 LINE"
);
},
{
closed = 1;
nodes = (
"970 18 LINE",
"970 29 LINE",
"1385 719 LINE",
"1385 737 LINE",
"1223 731 LINE",
"1223 725 LINE",
"805 32 LINE",
"805 7 LINE"
);
},
{
closed = 1;
nodes = (
"1385 0 LINE",
"1385 245 LINE",
"1350 245 LINE",
"1348 128 OFFCURVE",
"1291 25 OFFCURVE",
"1192 25 CURVE SMOOTH",
"805 25 LINE",
"805 0 LINE"
);
},
{
closed = 1;
nodes = (
"880 549 LINE",
"882 646 OFFCURVE",
"939 729 OFFCURVE",
"1038 729 CURVE SMOOTH",
"1385 729 LINE",
"1385 754 LINE",
"845 754 LINE",
"845 549 LINE"
);
},
{
closed = 1;
nodes = (
"1136 793 LINE",
"1267 925 LINE",
"1224 925 LINE",
"1105 864 LINE",
"986 925 LINE",
"943 925 LINE",
"1074 793 LINE"
);
}
);
};
components = (
{
name = DZ;
},
{
name = caroncomb.case;
transform = "{1, 0, 0, 1, 931, 0}";
}
);
layerId = UUID0;
width = 1428;
},
{
background = {
anchors = (
{
name = bottom;
position = "{1109, 0}";
},
{
name = center;
position = "{399, 377}";
},
{
name = top;
position = "{1109, 754}";
}
);
paths = (
{
closed = 1;
nodes = (
"411 0 LINE SMOOTH",
"611 0 OFFCURVE",
"768 180 OFFCURVE",
"768 380 CURVE SMOOTH",
"768 578 OFFCURVE",
"615 754 OFFCURVE",
"421 754 CURVE SMOOTH",
"20 754 LINE",
"20 724 LINE",
"390 724 LINE SMOOTH",
"527 724 OFFCURVE",
"578 657 OFFCURVE",
"578 379 CURVE SMOOTH",
"578 95 OFFCURVE",
"525 30 OFFCURVE",
"381 30 CURVE SMOOTH",
"20 30 LINE",
"20 0 LINE"
);
},
{
closed = 1;
nodes = (
"273 15 LINE",
"273 754 LINE",
"115 754 LINE",
"115 15 LINE"
);
},
{
closed = 1;
nodes = (
"993 23 LINE",
"993 36 LINE",
"1414 714 LINE",
"1414 732 LINE",
"1222 726 LINE",
"1222 720 LINE",
"808 39 LINE",
"808 7 LINE"
);
},
{
closed = 1;
nodes = (
"1404 0 LINE",
"1404 245 LINE",
"1364 245 LINE",
"1362 133 OFFCURVE",
"1289 32 OFFCURVE",
"1166 32 CURVE SMOOTH",
"808 32 LINE",
"808 0 LINE"
);
},
{
closed = 1;
nodes = (
"898 549 LINE",
"900 643 OFFCURVE",
"969 724 OFFCURVE",
"1086 724 CURVE SMOOTH",
"1414 724 LINE",
"1414 754 LINE",
"858 754 LINE",
"858 549 LINE"
);
},
{
closed = 1;
nodes = (
"1138 790 LINE",
"1309 926 LINE",
"1256 926 LINE",
"1107 884 LINE",
"958 926 LINE",
"905 926 LINE",
"1076 790 LINE"
);
}
);
};
components = (
{
name = DZ;
},
{
name = caroncomb.case;
transform = "{1, 0, 0, 1, 897, 0}";
}
);
layerId = "3AE1663F-34E8-4710-91A2-69F84C961E5F";
width = 1419;
}
);
leftKerningGroup = D;
rightKerningGroup = Z;
unicode = 01C4;
},
{
glyphname = Eth;
lastChange = "2022-05-05 12:23:23 +0000";
layers = (
{
background = {
anchors = (
{
name = bottom;
position = "{389, 0}";
},
{
name = center;
position = "{389, 377}";
},
{
name = top;
position = "{389, 754}";
}
);
paths = (
{
closed = 1;
nodes = (
"376 0 LINE SMOOTH",
"576 0 OFFCURVE",
"733 179 OFFCURVE",
"733 377 CURVE SMOOTH",
"733 575 OFFCURVE",
"577 754 OFFCURVE",
"377 754 CURVE SMOOTH",
"11 754 LINE",
"11 729 LINE",
"345 729 LINE SMOOTH",
"509 729 OFFCURVE",
"573 663 OFFCURVE",
"573 377 CURVE SMOOTH",
"573 91 OFFCURVE",
"510 25 OFFCURVE",
"346 25 CURVE SMOOTH",
"11 25 LINE",
"11 0 LINE"
);
},
{
closed = 1;
nodes = (
"255 15 LINE",
"255 754 LINE",
"121 754 LINE",
"121 15 LINE"
);
},
{
closed = 1;
nodes = (
"366 371 LINE",
"366 406 LINE",
"1 406 LINE",
"1 371 LINE"
);
}
);
};
components = (
{
name = D;
},
{
name = strokeshortcomb;
transform = "{1, 0, 0, 1, 390, 377}";
}
);
layerId = UUID0;
width = 777;
},
{
background = {
anchors = (
{
name = bottom;
position = "{399, 0}";
},
{
name = center;
position = "{399, 377}";
},
{
name = top;
position = "{399, 754}";
}
);
paths = (
{
closed = 1;
nodes = (
"411 0 LINE SMOOTH",
"611 0 OFFCURVE",
"768 180 OFFCURVE",
"768 380 CURVE SMOOTH",
"768 578 OFFCURVE",
"615 754 OFFCURVE",
"421 754 CURVE SMOOTH",
"20 754 LINE",
"20 724 LINE",
"390 724 LINE SMOOTH",
"527 724 OFFCURVE",
"578 657 OFFCURVE",
"578 379 CURVE SMOOTH",
"578 95 OFFCURVE",
"525 30 OFFCURVE",
"381 30 CURVE SMOOTH",
"20 30 LINE",
"20 0 LINE"
);
},
{
closed = 1;
nodes = (
"273 15 LINE",
"273 754 LINE",
"115 754 LINE",
"115 15 LINE"
);
},
{
closed = 1;
nodes = (
"380 374 LINE",
"380 421 LINE",
"-15 421 LINE",
"-15 374 LINE"
);
}
);
};
components = (
{
name = D;
},
{
name = strokeshortcomb;
transform = "{1, 0, 0, 1, -65, 376}";
}
);
layerId = "3AE1663F-34E8-4710-91A2-69F84C961E5F";
width = 798;
}
);
rightKerningGroup = D;
unicode = 00D0;
},
{
glyphname = Dcaron;
lastChange = "2022-05-05 09:16:31 +0000";
layers = (
{
background = {
anchors = (
{
name = bottom;
position = "{389, 0}";
},
{
name = center;
position = "{389, 377}";
},
{
name = top;
position = "{389, 754}";
}
);
paths = (
{
closed = 1;
nodes = (
"376 0 LINE SMOOTH",
"576 0 OFFCURVE",
"733 179 OFFCURVE",
"733 377 CURVE SMOOTH",
"733 575 OFFCURVE",
"577 754 OFFCURVE",
"377 754 CURVE SMOOTH",
"11 754 LINE",
"11 729 LINE",
"345 729 LINE SMOOTH",
"509 729 OFFCURVE",
"573 663 OFFCURVE",
"573 377 CURVE SMOOTH",
"573 91 OFFCURVE",
"510 25 OFFCURVE",
"346 25 CURVE SMOOTH",
"11 25 LINE",
"11 0 LINE"
);
},
{
closed = 1;
nodes = (
"255 15 LINE",
"255 754 LINE",
"121 754 LINE",
"121 15 LINE"
);
},
{
closed = 1;
nodes = (
"422 793 LINE",
"553 925 LINE",
"510 925 LINE",
"391 864 LINE",
"272 925 LINE",
"229 925 LINE",
"360 793 LINE"
);
}
);
};
components = (
{
name = D;
},
{
name = caroncomb.case;
transform = "{1, 0, 0, 1, 217, 0}";
}
);
layerId = UUID0;
width = 777;
},
{
background = {
anchors = (
{
name = bottom;
position = "{399, 0}";
},
{
name = center;
position = "{399, 377}";
},
{
name = top;
position = "{399, 754}";
}
);
paths = (
{
closed = 1;
nodes = (
"411 0 LINE SMOOTH",
"611 0 OFFCURVE",
"768 180 OFFCURVE",
"768 380 CURVE SMOOTH",
"768 578 OFFCURVE",
"615 754 OFFCURVE",
"421 754 CURVE SMOOTH",
"20 754 LINE",
"20 724 LINE",
"390 724 LINE SMOOTH",
"527 724 OFFCURVE",
"578 657 OFFCURVE",
"578 379 CURVE SMOOTH",
"578 95 OFFCURVE",
"525 30 OFFCURVE",
"381 30 CURVE SMOOTH",
"20 30 LINE",
"20 0 LINE"
);
},
{
closed = 1;
nodes = (
"273 15 LINE",
"273 754 LINE",
"115 754 LINE",
"115 15 LINE"
);
},
{
closed = 1;
nodes = (
"428 790 LINE",
"599 926 LINE",
"546 926 LINE",
"397 884 LINE",
"248 926 LINE",
"195 926 LINE",
"366 790 LINE"
);
}
);
};
components = (
{
name = D;
},
{
name = caroncomb.case;
transform = "{1, 0, 0, 1, 187, 0}";
}
);
layerId = "3AE1663F-34E8-4710-91A2-69F84C961E5F";
width = 798;
}
);
leftKerningGroup = D;
rightKerningGroup = D;
unicode = 010E;
},
{
glyphname = Dcroat;
lastChange = "2022-05-05 09:16:31 +0000";
layers = (
{
background = {
anchors = (
{
name = bottom;
position = "{389, 0}";
},
{
name = center;
position = "{389, 377}";
},
{
name = top;
position = "{389, 754}";
}
);
paths = (
{
closed = 1;
nodes = (
"381 367 LINE",
"381 402 LINE",
"16 402 LINE",
"16 367 LINE"
);
},
{
closed = 1;
nodes = (
"376 0 LINE SMOOTH",
"576 0 OFFCURVE",
"733 179 OFFCURVE",
"733 377 CURVE SMOOTH",
"733 575 OFFCURVE",
"577 754 OFFCURVE",
"377 754 CURVE SMOOTH",
"11 754 LINE",
"11 729 LINE",
"345 729 LINE SMOOTH",
"509 729 OFFCURVE",
"573 663 OFFCURVE",
"573 377 CURVE SMOOTH",
"573 91 OFFCURVE",
"510 25 OFFCURVE",
"346 25 CURVE SMOOTH",
"11 25 LINE",
"11 0 LINE"
);
},
{
closed = 1;
nodes = (
"255 15 LINE",
"255 754 LINE",
"121 754 LINE",
"121 15 LINE"
);
}
);
};
components = (
{
name = Eth;
}
);
layerId = UUID0;
width = 777;
},
{
background = {
anchors = (
{
name = bottom;
position = "{399, 0}";
},
{
name = center;
position = "{399, 377}";
},
{
name = top;
position = "{399, 754}";
}
);
paths = (
{
closed = 1;
nodes = (
"411 361 LINE",
"411 408 LINE",
"16 408 LINE",
"16 361 LINE"
);
},
{
closed = 1;
nodes = (
"411 0 LINE SMOOTH",
"611 0 OFFCURVE",
"768 180 OFFCURVE",
"768 380 CURVE SMOOTH",
"768 578 OFFCURVE",
"615 754 OFFCURVE",
"421 754 CURVE SMOOTH",
"20 754 LINE",
"20 724 LINE",
"390 724 LINE SMOOTH",
"527 724 OFFCURVE",
"578 657 OFFCURVE",
"578 379 CURVE SMOOTH",
"578 95 OFFCURVE",
"525 30 OFFCURVE",
"381 30 CURVE SMOOTH",
"20 30 LINE",
"20 0 LINE"
);
},
{
closed = 1;
nodes = (
"273 15 LINE",
"273 754 LINE",
"115 754 LINE",
"115 15 LINE"
);
}
);
};
components = (
{
name = Eth;
}
);
layerId = "3AE1663F-34E8-4710-91A2-69F84C961E5F";
width = 798;
}
);
rightKerningGroup = D;
unicode = 0110;
},
{
glyphname = Ddotbelow;
lastChange = "2022-05-05 09:16:31 +0000";
layers = (
{
background = {
anchors = (
{
name = bottom;
position = "{389, -231}";
},
{
name = center;
position = "{389, 377}";
},
{
name = top;
position = "{389, 754}";
}
);
paths = (
{
closed = 1;
nodes = (
"376 0 LINE SMOOTH",
"576 0 OFFCURVE",
"733 179 OFFCURVE",
"733 377 CURVE SMOOTH",
"733 575 OFFCURVE",
"577 754 OFFCURVE",
"377 754 CURVE SMOOTH",
"11 754 LINE",
"11 729 LINE",
"345 729 LINE SMOOTH",
"509 729 OFFCURVE",
"573 663 OFFCURVE",
"573 377 CURVE SMOOTH",
"573 91 OFFCURVE",
"510 25 OFFCURVE",
"346 25 CURVE SMOOTH",
"11 25 LINE",
"11 0 LINE"
);
},
{
closed = 1;
nodes = (
"255 15 LINE",
"255 754 LINE",
"121 754 LINE",
"121 15 LINE"
);
},
{
closed = 1;
nodes = (
"425 -231 OFFCURVE",
"455 -201 OFFCURVE",
"455 -165 CURVE SMOOTH",
"455 -129 OFFCURVE",
"425 -99 OFFCURVE",
"389 -99 CURVE SMOOTH",
"353 -99 OFFCURVE",
"323 -129 OFFCURVE",
"323 -165 CURVE SMOOTH",
"323 -201 OFFCURVE",
"353 -231 OFFCURVE",
"389 -231 CURVE SMOOTH"
);
}
);
};
components = (
{
name = D;
},
{
name = dotbelowcomb;
transform = "{1, 0, 0, 1, 105, 0}";
}
);
layerId = UUID0;
width = 777;
},
{
background = {
anchors = (
{
name = bottom;
position = "{399, -260}";
},
{
name = center;
position = "{399, 377}";
},
{
name = top;
position = "{399, 754}";
}
);
paths = (
{
closed = 1;
nodes = (
"411 0 LINE SMOOTH",
"611 0 OFFCURVE",
"768 180 OFFCURVE",
"768 380 CURVE SMOOTH",
"768 578 OFFCURVE",
"615 754 OFFCURVE",
"421 754 CURVE SMOOTH",
"20 754 LINE",
"20 724 LINE",
"390 724 LINE SMOOTH",
"527 724 OFFCURVE",
"578 657 OFFCURVE",
"578 379 CURVE SMOOTH",
"578 95 OFFCURVE",
"525 30 OFFCURVE",
"381 30 CURVE SMOOTH",
"20 30 LINE",
"20 0 LINE"
);
},
{
closed = 1;
nodes = (
"273 15 LINE",
"273 754 LINE",
"115 754 LINE",
"115 15 LINE"
);
},
{
closed = 1;
nodes = (
"442 -260 OFFCURVE",
"479 -223 OFFCURVE",
"479 -180 CURVE SMOOTH",
"479 -136 OFFCURVE",
"442 -99 OFFCURVE",
"398 -99 CURVE SMOOTH",
"355 -99 OFFCURVE",
"318 -136 OFFCURVE",
"318 -180 CURVE SMOOTH",
"318 -223 OFFCURVE",
"355 -260 OFFCURVE",
"398 -260 CURVE SMOOTH"
);
}
);
};
components = (
{
name = D;
},
{
name = dotbelowcomb;
transform = "{1, 0, 0, 1, 106, 0}";
}
);
layerId = "3AE1663F-34E8-4710-91A2-69F84C961E5F";
width = 798;
}
);
leftKerningGroup = D;
rightKerningGroup = D;
unicode = 1E0C;
},
{
glyphname = Dz;
lastChange = "2022-05-05 09:16:31 +0000";
layers = (
{
background = {
anchors = (
{
name = bottom;
position = "{1017, 0}";
},
{
name = center;
position = "{389, 377}";
},
{
name = top;
position = "{1017, 450}";
}
);
paths = (
{
closed = 1;
nodes = (
"376 0 LINE SMOOTH",
"576 0 OFFCURVE",
"733 179 OFFCURVE",
"733 377 CURVE SMOOTH",
"733 575 OFFCURVE",
"577 754 OFFCURVE",
"377 754 CURVE SMOOTH",
"11 754 LINE",
"11 729 LINE",
"345 729 LINE SMOOTH",
"509 729 OFFCURVE",
"573 663 OFFCURVE",
"573 377 CURVE SMOOTH",
"573 91 OFFCURVE",
"510 25 OFFCURVE",
"346 25 CURVE SMOOTH",
"11 25 LINE",
"11 0 LINE"
);
},
{
closed = 1;
nodes = (
"255 15 LINE",
"255 754 LINE",
"121 754 LINE",
"121 15 LINE"
);
},
{
closed = 1;
nodes = (
"938 15 LINE",
"1199 415 LINE",
"1185 440 LINE",
"1091 440 LINE",
"823 35 LINE",
"826 15 LINE"
);
},
{
closed = 1;
nodes = (
"1208 0 LINE",
"1208 185 LINE",
"1183 185 LINE",
"1182 169 LINE SMOOTH",
"1178 73 OFFCURVE",
"1119 25 OFFCURVE",
"1045 25 CURVE SMOOTH",
"831 25 LINE",
"823 35 LINE",
"823 0 LINE"
);
},
{
closed = 1;
nodes = (
"870 275 LINE",
"872 357 OFFCURVE",
"921 425 OFFCURVE",
"1008 425 CURVE SMOOTH",
"1191 425 LINE",
"1199 415 LINE",
"1199 450 LINE",
"845 450 LINE",
"845 275 LINE"
);
}
);
};
components = (
{
name = D;
},
{
name = z;
transform = "{1, 0, 0, 1, 777, 0}";
}
);
layerId = UUID0;
width = 1257;
},
{
background = {
anchors = (
{
name = bottom;
position = "{1036, 0}";
},
{
name = center;
position = "{399, 377}";
},
{
name = top;
position = "{1036, 450}";
}
);
paths = (
{
closed = 1;
nodes = (
"411 0 LINE SMOOTH",
"611 0 OFFCURVE",
"768 180 OFFCURVE",
"768 380 CURVE SMOOTH",
"768 578 OFFCURVE",
"615 754 OFFCURVE",
"421 754 CURVE SMOOTH",
"20 754 LINE",
"20 724 LINE",
"390 724 LINE SMOOTH",
"527 724 OFFCURVE",
"578 657 OFFCURVE",
"578 379 CURVE SMOOTH",
"578 95 OFFCURVE",
"525 30 OFFCURVE",
"381 30 CURVE SMOOTH",
"20 30 LINE",
"20 0 LINE"
);
},
{
closed = 1;
nodes = (
"273 15 LINE",
"273 754 LINE",
"115 754 LINE",
"115 15 LINE"
);
},
{
closed = 1;
nodes = (
"973 15 LINE",
"1244 416 LINE",
"1230 441 LINE",
"1101 441 LINE",
"823 35 LINE",
"826 15 LINE"
);
},
{
closed = 1;
nodes = (
"1238 0 LINE",
"1238 185 LINE",
"1208 185 LINE",
"1207 169 LINE SMOOTH",
"1203 76 OFFCURVE",
"1144 30 OFFCURVE",
"1070 30 CURVE SMOOTH",
"831 30 LINE",
"823 35 LINE",
"823 0 LINE"
);
},
{
closed = 1;
nodes = (
"885 275 LINE",
"887 354 OFFCURVE",
"936 420 OFFCURVE",
"1023 420 CURVE SMOOTH",
"1236 420 LINE",
"1244 416 LINE",
"1244 450 LINE",
"855 450 LINE",
"855 275 LINE"
);
}
);
};
components = (
{
name = D;
},
{
name = z;
transform = "{1, 0, 0, 1, 798, 0}";
}
);
layerId = "3AE1663F-34E8-4710-91A2-69F84C961E5F";
width = 1274;
}
);
leftKerningGroup = D;
rightKerningGroup = z;
unicode = 01F2;
},
{
glyphname = Dzcaron;
lastChange = "2022-05-05 09:16:31 +0000";
layers = (
{
background = {
anchors = (
{
name = bottom;
position = "{1017, 0}";
},
{
name = center;
position = "{389, 377}";
},
{
name = top;
position = "{1017, 450}";
}
);
paths = (
{
closed = 1;
nodes = (
"376 0 LINE SMOOTH",
"576 0 OFFCURVE",
"733 179 OFFCURVE",
"733 377 CURVE SMOOTH",
"733 575 OFFCURVE",
"577 754 OFFCURVE",
"377 754 CURVE SMOOTH",
"11 754 LINE",
"11 729 LINE",
"345 729 LINE SMOOTH",
"509 729 OFFCURVE",
"573 663 OFFCURVE",
"573 377 CURVE SMOOTH",
"573 91 OFFCURVE",
"510 25 OFFCURVE",
"346 25 CURVE SMOOTH",
"11 25 LINE",
"11 0 LINE"
);
},
{
closed = 1;
nodes = (
"255 15 LINE",
"255 754 LINE",
"121 754 LINE",
"121 15 LINE"
);
},
{
closed = 1;
nodes = (
"938 15 LINE",
"1199 415 LINE",
"1185 440 LINE",
"1091 440 LINE",
"823 35 LINE",
"826 15 LINE"
);
},
{
closed = 1;
nodes = (
"1208 0 LINE",
"1208 185 LINE",
"1183 185 LINE",
"1182 169 LINE SMOOTH",
"1178 73 OFFCURVE",
"1119 25 OFFCURVE",
"1045 25 CURVE SMOOTH",
"831 25 LINE",
"823 35 LINE",
"823 0 LINE"
);
},
{
closed = 1;
nodes = (
"870 275 LINE",
"872 357 OFFCURVE",
"921 425 OFFCURVE",
"1008 425 CURVE SMOOTH",
"1191 425 LINE",
"1199 415 LINE",
"1199 450 LINE",
"845 450 LINE",
"845 275 LINE"
);
},
{
closed = 1;
nodes = (
"1050 489 LINE",
"1181 621 LINE",
"1138 621 LINE",
"1019 560 LINE",
"900 621 LINE",
"857 621 LINE",
"988 489 LINE"
);
}
);
};
components = (
{
name = D;
},
{
name = zcaron;
transform = "{1, 0, 0, 1, 777, 0}";
}
);
layerId = UUID0;
width = 1257;
},
{
background = {
anchors = (
{
name = bottom;
position = "{1036, 0}";
},
{
name = center;
position = "{399, 377}";
},
{
name = top;
position = "{1036, 450}";
}
);
paths = (
{
closed = 1;
nodes = (
"411 0 LINE SMOOTH",
"611 0 OFFCURVE",
"768 180 OFFCURVE",
"768 380 CURVE SMOOTH",
"768 578 OFFCURVE",
"615 754 OFFCURVE",
"421 754 CURVE SMOOTH",
"20 754 LINE",
"20 724 LINE",
"390 724 LINE SMOOTH",
"527 724 OFFCURVE",
"578 657 OFFCURVE",
"578 379 CURVE SMOOTH",
"578 95 OFFCURVE",
"525 30 OFFCURVE",
"381 30 CURVE SMOOTH",
"20 30 LINE",
"20 0 LINE"
);
},
{
closed = 1;
nodes = (
"273 15 LINE",
"273 754 LINE",
"115 754 LINE",
"115 15 LINE"
);
},
{
closed = 1;
nodes = (
"973 15 LINE",
"1244 416 LINE",
"1230 441 LINE",
"1101 441 LINE",
"823 35 LINE",
"826 15 LINE"
);
},
{
closed = 1;
nodes = (
"1238 0 LINE",
"1238 185 LINE",
"1208 185 LINE",
"1207 169 LINE SMOOTH",
"1203 76 OFFCURVE",
"1144 30 OFFCURVE",
"1070 30 CURVE SMOOTH",
"831 30 LINE",
"823 35 LINE",
"823 0 LINE"
);
},
{
closed = 1;
nodes = (
"885 275 LINE",
"887 354 OFFCURVE",
"936 420 OFFCURVE",
"1023 420 CURVE SMOOTH",
"1236 420 LINE",
"1244 416 LINE",
"1244 450 LINE",
"855 450 LINE",
"855 275 LINE"
);
},
{
closed = 1;
nodes = (
"1065 486 LINE",
"1236 622 LINE",
"1183 622 LINE",
"1034 580 LINE",
"885 622 LINE",
"832 622 LINE",
"1003 486 LINE"
);
}
);
};
components = (
{
name = D;
},
{
name = zcaron;
transform = "{1, 0, 0, 1, 798, 0}";
}
);
layerId = "3AE1663F-34E8-4710-91A2-69F84C961E5F";
width = 1274;
}
);
leftKerningGroup = D;
rightKerningGroup = z;
unicode = 01C5;
},
{
glyphname = E;
lastChange = "2022-05-05 09:13:26 +0000";
layers = (
{
anchors = (
{
name = bottom;
position = "{346, 0}";
},
{
name = ogonek;
position = "{622, 10}";
},
{
name = top;
position = "{346, 754}";
},
{
name = topleft;
position = "{20, 754}";
}
);
background = {
anchors = (
{
name = bottom;
position = "{346, 0}";
},
{
name = ogonek;
position = "{622, 10}";
},
{
name = top;
position = "{346, 754}";
},
{
name = topleft;
position = "{20, 754}";
}
);
paths = (
{
closed = 1;
nodes = (
"639 0 LINE",
"639 235 LINE",
"604 235 LINE",
"602 123 OFFCURVE",
"545 25 OFFCURVE",
"446 25 CURVE SMOOTH",
"8 25 LINE",
"8 0 LINE"
);
},
{
closed = 1;
nodes = (
"260 15 LINE",
"260 744 LINE",
"126 744 LINE",
"126 15 LINE"
);
},
{
closed = 1;
nodes = (
"450 216 LINE",
"450 526 LINE",
"415 526 LINE",
"415 418 OFFCURVE",
"381 388 OFFCURVE",
"257 388 CURVE",
"257 363 LINE",
"381 363 OFFCURVE",
"412 328 OFFCURVE",
"415 216 CURVE"
);
},
{
closed = 1;
nodes = (
"609 549 LINE",
"609 754 LINE",
"8 754 LINE",
"8 729 LINE",
"416 729 LINE SMOOTH",
"515 729 OFFCURVE",
"572 646 OFFCURVE",
"574 549 CURVE"
);
}
);
};
layerId = UUID0;
paths = (
{
closed = 1;
nodes = (
"639 0 LINE",
"639 235 LINE",
"604 235 LINE",
"602 123 OFFCURVE",
"545 25 OFFCURVE",
"446 25 CURVE SMOOTH",
"8 25 LINE",
"8 0 LINE"
);
},
{
closed = 1;
nodes = (
"260 15 LINE",
"260 744 LINE",
"126 744 LINE",
"126 15 LINE"
);
},
{
closed = 1;
nodes = (
"450 216 LINE",
"450 526 LINE",
"415 526 LINE",
"415 418 OFFCURVE",
"381 388 OFFCURVE",
"257 388 CURVE",
"257 363 LINE",
"381 363 OFFCURVE",
"412 328 OFFCURVE",
"415 216 CURVE"
);
},
{
closed = 1;
nodes = (
"609 549 LINE",
"609 754 LINE",
"8 754 LINE",
"8 729 LINE",
"416 729 LINE SMOOTH",
"515 729 OFFCURVE",
"572 646 OFFCURVE",
"574 549 CURVE"
);
}
);
width = 691;
},
{
anchors = (
{
name = bottom;
position = "{348, 0}";
},
{
name = ogonek;
position = "{626, 10}";
},
{
name = top;
position = "{348, 754}";
},
{
name = topleft;
position = "{20, 754}";
}
);
background = {
anchors = (
{
name = bottom;
position = "{348, 0}";
},
{
name = ogonek;
position = "{626, 10}";
},
{
name = top;
position = "{348, 754}";
},
{
name = topleft;
position = "{20, 754}";
}
);
paths = (
{
closed = 1;
nodes = (
"661 0 LINE",
"661 245 LINE",
"621 245 LINE",
"619 131 OFFCURVE",
"554 30 OFFCURVE",
"443 30 CURVE SMOOTH",
"20 30 LINE",
"20 0 LINE"
);
},
{
closed = 1;
nodes = (
"273 15 LINE",
"273 754 LINE",
"115 754 LINE",
"115 15 LINE"
);
},
{
closed = 1;
nodes = (
"492 216 LINE",
"492 516 LINE",
"452 516 LINE",
"450 427 OFFCURVE",
"401 386 OFFCURVE",
"269 386 CURVE",
"269 356 LINE",
"401 356 OFFCURVE",
"450 312 OFFCURVE",
"452 216 CURVE"
);
},
{
closed = 1;
nodes = (
"646 554 LINE",
"646 754 LINE",
"20 754 LINE",
"20 724 LINE",
"443 724 LINE SMOOTH",
"545 724 OFFCURVE",
"604 646 OFFCURVE",
"606 554 CURVE"
);
}
);
};
layerId = "3AE1663F-34E8-4710-91A2-69F84C961E5F";
paths = (
{
closed = 1;
nodes = (
"661 0 LINE",
"661 245 LINE",
"621 245 LINE",
"619 131 OFFCURVE",
"554 30 OFFCURVE",
"443 30 CURVE SMOOTH",
"20 30 LINE",
"20 0 LINE"
);
},
{
closed = 1;
nodes = (
"273 15 LINE",
"273 754 LINE",
"115 754 LINE",
"115 15 LINE"
);
},
{
closed = 1;
nodes = (
"492 216 LINE",
"492 516 LINE",
"452 516 LINE",
"450 427 OFFCURVE",
"401 386 OFFCURVE",
"269 386 CURVE",
"269 356 LINE",
"401 356 OFFCURVE",
"450 312 OFFCURVE",
"452 216 CURVE"
);
},
{
closed = 1;
nodes = (
"646 554 LINE",
"646 754 LINE",
"20 754 LINE",
"20 724 LINE",
"443 724 LINE SMOOTH",
"545 724 OFFCURVE",
"604 646 OFFCURVE",
"606 554 CURVE"
);
}
);
width = 696;
}
);
leftKerningGroup = E;
rightKerningGroup = E;
unicode = 0045;
},
{
glyphname = Eacute;
lastChange = "2022-05-05 12:24:37 +0000";
layers = (
{
background = {
anchors = (
{
name = bottom;
position = "{346, 0}";
},
{
name = ogonek;
position = "{622, 10}";
},
{
name = top;
position = "{346, 959}";
},
{
name = topleft;
position = "{20, 754}";
}
);
paths = (
{
closed = 1;
nodes = (
"639 0 LINE",
"639 235 LINE",
"604 235 LINE",
"602 123 OFFCURVE",
"545 25 OFFCURVE",
"446 25 CURVE SMOOTH",
"8 25 LINE",
"8 0 LINE"
);
},
{
closed = 1;
nodes = (
"260 15 LINE",
"260 744 LINE",
"126 744 LINE",
"126 15 LINE"
);
},
{
closed = 1;
nodes = (
"450 216 LINE",
"450 526 LINE",
"415 526 LINE",
"415 418 OFFCURVE",
"381 388 OFFCURVE",
"257 388 CURVE",
"257 363 LINE",
"381 363 OFFCURVE",
"412 328 OFFCURVE",
"415 216 CURVE"
);
},
{
closed = 1;
nodes = (
"609 549 LINE",
"609 754 LINE",
"8 754 LINE",
"8 729 LINE",
"416 729 LINE SMOOTH",
"515 729 OFFCURVE",
"572 646 OFFCURVE",
"574 549 CURVE"
);
},
{
closed = 1;
nodes = (
"255 827 LINE",
"430 863 LINE SMOOTH",
"463 870 OFFCURVE",
"480 890 OFFCURVE",
"480 916 CURVE SMOOTH",
"480 942 OFFCURVE",
"464 959 OFFCURVE",
"436 959 CURVE SMOOTH",
"422 959 OFFCURVE",
"410 953 OFFCURVE",
"363 923 CURVE SMOOTH",
"212 827 LINE"
);
}
);
};
components = (
{
name = E;
},
{
name = acutecomb.case;
transform = "{1, 0, 0, 1, 202, 35}";
}
);
layerId = UUID0;
width = 691;
},
{
background = {
anchors = (
{
name = bottom;
position = "{348, 0}";
},
{
name = ogonek;
position = "{626, 10}";
},
{
name = top;
position = "{348, 960}";
},
{
name = topleft;
position = "{20, 754}";
}
);
paths = (
{
closed = 1;
nodes = (
"661 0 LINE",
"661 245 LINE",
"621 245 LINE",
"619 131 OFFCURVE",
"554 30 OFFCURVE",
"443 30 CURVE SMOOTH",
"20 30 LINE",
"20 0 LINE"
);
},
{
closed = 1;
nodes = (
"273 15 LINE",
"273 754 LINE",
"115 754 LINE",
"115 15 LINE"
);
},
{
closed = 1;
nodes = (
"492 216 LINE",
"492 516 LINE",
"452 516 LINE",
"450 427 OFFCURVE",
"401 386 OFFCURVE",
"269 386 CURVE",
"269 356 LINE",
"401 356 OFFCURVE",
"450 312 OFFCURVE",
"452 216 CURVE"
);
},
{
closed = 1;
nodes = (
"646 554 LINE",
"646 754 LINE",
"20 754 LINE",
"20 724 LINE",
"443 724 LINE SMOOTH",
"545 724 OFFCURVE",
"604 646 OFFCURVE",
"606 554 CURVE"
);
},
{
closed = 1;
nodes = (
"264 823 LINE",
"441 858 LINE SMOOTH",
"485 867 OFFCURVE",
"494 891 OFFCURVE",
"494 914 CURVE SMOOTH",
"494 938 OFFCURVE",
"477 960 OFFCURVE",
"444 960 CURVE SMOOTH",
"415 960 OFFCURVE",
"397 950 OFFCURVE",
"362 927 CURVE SMOOTH",
"201 823 LINE"
);
}
);
};
components = (
{
name = E;
},
{
name = acutecomb.case;
transform = "{1, 0, 0, 1, 191, 37}";
}
);
layerId = "3AE1663F-34E8-4710-91A2-69F84C961E5F";
width = 696;
}
);
leftKerningGroup = E;
rightKerningGroup = E;
unicode = 00C9;
},
{
glyphname = Ebreve;
lastChange = "2022-05-05 11:19:39 +0000";
layers = (
{
background = {
anchors = (
{
name = bottom;
position = "{346, 0}";
},
{
name = ogonek;
position = "{622, 10}";
},
{
name = top;
position = "{346, 952}";
},
{
name = topleft;
position = "{20, 754}";
}
);
paths = (
{
closed = 1;
nodes = (
"639 0 LINE",
"639 235 LINE",
"604 235 LINE",
"602 123 OFFCURVE",
"545 25 OFFCURVE",
"446 25 CURVE SMOOTH",
"8 25 LINE",
"8 0 LINE"
);
},
{
closed = 1;
nodes = (
"260 15 LINE",
"260 744 LINE",
"126 744 LINE",
"126 15 LINE"
);
},
{
closed = 1;
nodes = (
"450 216 LINE",
"450 526 LINE",
"415 526 LINE",
"415 418 OFFCURVE",
"381 388 OFFCURVE",
"257 388 CURVE",
"257 363 LINE",
"381 363 OFFCURVE",
"412 328 OFFCURVE",
"415 216 CURVE"
);
},
{
closed = 1;
nodes = (
"609 549 LINE",
"609 754 LINE",
"8 754 LINE",
"8 729 LINE",
"416 729 LINE SMOOTH",
"515 729 OFFCURVE",
"572 646 OFFCURVE",
"574 549 CURVE"
);
},
{
closed = 1;
nodes = (
"452 820 OFFCURVE",
"482 875 OFFCURVE",
"482 952 CURVE",
"448 952 LINE",
"445 908 OFFCURVE",
"415 888 OFFCURVE",
"344 888 CURVE SMOOTH",
"274 888 OFFCURVE",
"246 906 OFFCURVE",
"243 952 CURVE",
"209 952 LINE",
"209 871 OFFCURVE",
"243 820 OFFCURVE",
"346 820 CURVE SMOOTH"
);
}
);
};
components = (
{
name = E;
},
{
name = brevecomb.case;
transform = "{1, 0, 0, 1, 179, 61}";
}
);
layerId = UUID0;
width = 691;
},
{
background = {
anchors = (
{
name = bottom;
position = "{348, 0}";
},
{
name = ogonek;
position = "{626, 10}";
},
{
name = top;
position = "{348, 962}";
},
{
name = topleft;
position = "{20, 754}";
}
);
paths = (
{
closed = 1;
nodes = (
"661 0 LINE",
"661 245 LINE",
"621 245 LINE",
"619 131 OFFCURVE",
"554 30 OFFCURVE",
"443 30 CURVE SMOOTH",
"20 30 LINE",
"20 0 LINE"
);
},
{
closed = 1;
nodes = (
"273 15 LINE",
"273 754 LINE",
"115 754 LINE",
"115 15 LINE"
);
},
{
closed = 1;
nodes = (
"492 216 LINE",
"492 516 LINE",
"452 516 LINE",
"450 427 OFFCURVE",
"401 386 OFFCURVE",
"269 386 CURVE",
"269 356 LINE",
"401 356 OFFCURVE",
"450 312 OFFCURVE",
"452 216 CURVE"
);
},
{
closed = 1;
nodes = (
"646 554 LINE",
"646 754 LINE",
"20 754 LINE",
"20 724 LINE",
"443 724 LINE SMOOTH",
"545 724 OFFCURVE",
"604 646 OFFCURVE",
"606 554 CURVE"
);
},
{
closed = 1;
nodes = (
"441 825 OFFCURVE",
"494 885 OFFCURVE",
"494 962 CURVE",
"450 962 LINE",
"447 932 OFFCURVE",
"397 918 OFFCURVE",
"346 918 CURVE SMOOTH",
"296 918 OFFCURVE",
"248 930 OFFCURVE",
"245 962 CURVE",
"201 962 LINE",
"201 881 OFFCURVE",
"258 825 OFFCURVE",
"348 825 CURVE SMOOTH"
);
}
);
};
components = (
{
name = E;
},
{
name = brevecomb.case;
transform = "{1, 0, 0, 1, 171, 41}";
}
);
layerId = "3AE1663F-34E8-4710-91A2-69F84C961E5F";
width = 696;
}
);
leftKerningGroup = E;
rightKerningGroup = E;
unicode = 0114;
},
{
glyphname = Ecaron;
lastChange = "2022-05-05 09:16:31 +0000";
layers = (
{
background = {
anchors = (
{
name = bottom;
position = "{346, 0}";
},
{
name = ogonek;
position = "{622, 10}";
},
{
name = top;
position = "{346, 754}";
},
{
name = topleft;
position = "{20, 754}";
}
);
paths = (
{
closed = 1;
nodes = (
"639 0 LINE",
"639 235 LINE",
"604 235 LINE",
"602 123 OFFCURVE",
"545 25 OFFCURVE",
"446 25 CURVE SMOOTH",
"8 25 LINE",
"8 0 LINE"
);
},
{
closed = 1;
nodes = (
"260 15 LINE",
"260 744 LINE",
"126 744 LINE",
"126 15 LINE"
);
},
{
closed = 1;
nodes = (
"450 216 LINE",
"450 526 LINE",
"415 526 LINE",
"415 418 OFFCURVE",
"381 388 OFFCURVE",
"257 388 CURVE",
"257 363 LINE",
"381 363 OFFCURVE",
"412 328 OFFCURVE",
"415 216 CURVE"
);
},
{
closed = 1;
nodes = (
"609 549 LINE",
"609 754 LINE",
"8 754 LINE",
"8 729 LINE",
"416 729 LINE SMOOTH",
"515 729 OFFCURVE",
"572 646 OFFCURVE",
"574 549 CURVE"
);
},
{
closed = 1;
nodes = (
"379 793 LINE",
"510 925 LINE",
"467 925 LINE",
"348 864 LINE",
"229 925 LINE",
"186 925 LINE",
"317 793 LINE"
);
}
);
};
components = (
{
name = E;
},
{
name = caroncomb.case;
transform = "{1, 0, 0, 1, 174, 0}";
}
);
layerId = UUID0;
width = 691;
},
{
background = {
anchors = (
{
name = bottom;
position = "{348, 0}";
},
{
name = ogonek;
position = "{626, 10}";
},
{
name = top;
position = "{348, 754}";
},
{
name = topleft;
position = "{20, 754}";
}
);
paths = (
{
closed = 1;
nodes = (
"661 0 LINE",
"661 245 LINE",
"621 245 LINE",
"619 131 OFFCURVE",
"554 30 OFFCURVE",
"443 30 CURVE SMOOTH",
"20 30 LINE",
"20 0 LINE"
);
},
{
closed = 1;
nodes = (
"273 15 LINE",
"273 754 LINE",
"115 754 LINE",
"115 15 LINE"
);
},
{
closed = 1;
nodes = (
"492 216 LINE",
"492 516 LINE",
"452 516 LINE",
"450 427 OFFCURVE",
"401 386 OFFCURVE",
"269 386 CURVE",
"269 356 LINE",
"401 356 OFFCURVE",
"450 312 OFFCURVE",
"452 216 CURVE"
);
},
{
closed = 1;
nodes = (
"646 554 LINE",
"646 754 LINE",
"20 754 LINE",
"20 724 LINE",
"443 724 LINE SMOOTH",
"545 724 OFFCURVE",
"604 646 OFFCURVE",
"606 554 CURVE"
);
},
{
closed = 1;
nodes = (
"377 790 LINE",
"548 926 LINE",
"495 926 LINE",
"346 884 LINE",
"197 926 LINE",
"144 926 LINE",
"315 790 LINE"
);
}
);
};
components = (
{
name = E;
},
{
name = caroncomb.case;
transform = "{1, 0, 0, 1, 136, 0}";
}
);
layerId = "3AE1663F-34E8-4710-91A2-69F84C961E5F";
width = 696;
}
);
leftKerningGroup = E;
rightKerningGroup = E;
unicode = 011A;
},
{
glyphname = Ecircumflex;
lastChange = "2022-05-05 12:24:42 +0000";
layers = (
{
background = {
anchors = (
{
name = bottom;
position = "{346, 0}";
},
{
name = ogonek;
position = "{622, 10}";
},
{
name = top;
position = "{346, 881}";
},
{
name = topleft;
position = "{20, 754}";
}
);
paths = (
{
closed = 1;
nodes = (
"639 0 LINE",
"639 235 LINE",
"604 235 LINE",
"602 123 OFFCURVE",
"545 25 OFFCURVE",
"446 25 CURVE SMOOTH",
"8 25 LINE",
"8 0 LINE"
);
},
{
closed = 1;
nodes = (
"260 15 LINE",
"260 744 LINE",
"126 744 LINE",
"126 15 LINE"
);
},
{
closed = 1;
nodes = (
"450 216 LINE",
"450 526 LINE",
"415 526 LINE",
"415 418 OFFCURVE",
"381 388 OFFCURVE",
"257 388 CURVE",
"257 363 LINE",
"381 363 OFFCURVE",
"412 328 OFFCURVE",
"415 216 CURVE"
);
},
{
closed = 1;
nodes = (
"609 549 LINE",
"609 754 LINE",
"8 754 LINE",
"8 729 LINE",
"416 729 LINE SMOOTH",
"515 729 OFFCURVE",
"572 646 OFFCURVE",
"574 549 CURVE"
);
},
{
closed = 1;
nodes = (
"237 824 LINE",
"346 875 LINE",
"455 824 LINE",
"498 824 LINE",
"377 936 LINE",
"315 936 LINE",
"194 824 LINE"
);
}
);
};
components = (
{
name = E;
},
{
name = circumflexcomb.case;
transform = "{1, 0, 0, 1, 174, 11}";
}
);
layerId = UUID0;
width = 691;
},
{
background = {
anchors = (
{
name = bottom;
position = "{348, 0}";
},
{
name = ogonek;
position = "{626, 10}";
},
{
name = top;
position = "{348, 893}";
},
{
name = topleft;
position = "{20, 754}";
}
);
paths = (
{
closed = 1;
nodes = (
"661 0 LINE",
"661 245 LINE",
"621 245 LINE",
"619 131 OFFCURVE",
"554 30 OFFCURVE",
"443 30 CURVE SMOOTH",
"20 30 LINE",
"20 0 LINE"
);
},
{
closed = 1;
nodes = (
"273 15 LINE",
"273 754 LINE",
"115 754 LINE",
"115 15 LINE"
);
},
{
closed = 1;
nodes = (
"492 216 LINE",
"492 516 LINE",
"452 516 LINE",
"450 427 OFFCURVE",
"401 386 OFFCURVE",
"269 386 CURVE",
"269 356 LINE",
"401 356 OFFCURVE",
"450 312 OFFCURVE",
"452 216 CURVE"
);
},
{
closed = 1;
nodes = (
"646 554 LINE",
"646 754 LINE",
"20 754 LINE",
"20 724 LINE",
"443 724 LINE SMOOTH",
"545 724 OFFCURVE",
"604 646 OFFCURVE",
"606 554 CURVE"
);
},
{
closed = 1;
nodes = (
"229 827 LINE",
"348 869 LINE",
"467 827 LINE",
"520 827 LINE",
"379 943 LINE",
"317 943 LINE",
"176 827 LINE"
);
}
);
};
components = (
{
name = E;
},
{
name = circumflexcomb.case;
transform = "{1, 0, 0, 1, 136, 20}";
}
);
layerId = "3AE1663F-34E8-4710-91A2-69F84C961E5F";
width = 696;
}
);
leftKerningGroup = E;
rightKerningGroup = E;
unicode = 00CA;
},
{
glyphname = Ecircumflexacute;
lastChange = "2022-05-05 11:59:38 +0000";
layers = (
{
background = {
anchors = (
{
name = bottom;
position = "{346, 0}";
},
{
name = ogonek;
position = "{622, 10}";
},
{
name = top;
position = "{346, 1161}";
},
{
name = topleft;
position = "{20, 754}";
}
);
paths = (
{
closed = 1;
nodes = (
"639 0 LINE",
"639 235 LINE",
"604 235 LINE",
"602 123 OFFCURVE",
"545 25 OFFCURVE",
"446 25 CURVE SMOOTH",
"8 25 LINE",
"8 0 LINE"
);
},
{
closed = 1;
nodes = (
"260 15 LINE",
"260 744 LINE",
"126 744 LINE",
"126 15 LINE"
);
},
{
closed = 1;
nodes = (
"450 216 LINE",
"450 526 LINE",
"415 526 LINE",
"415 418 OFFCURVE",
"381 388 OFFCURVE",
"257 388 CURVE",
"257 363 LINE",
"381 363 OFFCURVE",
"412 328 OFFCURVE",
"415 216 CURVE"
);
},
{
closed = 1;
nodes = (
"609 549 LINE",
"609 754 LINE",
"8 754 LINE",
"8 729 LINE",
"416 729 LINE SMOOTH",
"515 729 OFFCURVE",
"572 646 OFFCURVE",
"574 549 CURVE"
);
},
{
closed = 1;
nodes = (
"237 824 LINE",
"346 875 LINE",
"455 824 LINE",
"498 824 LINE",
"377 936 LINE",
"315 936 LINE",
"194 824 LINE"
);
},
{
closed = 1;
nodes = (
"255 954 LINE",
"430 990 LINE SMOOTH",
"463 997 OFFCURVE",
"480 1017 OFFCURVE",
"480 1043 CURVE SMOOTH",
"480 1069 OFFCURVE",
"464 1086 OFFCURVE",
"436 1086 CURVE SMOOTH",
"422 1086 OFFCURVE",
"410 1080 OFFCURVE",
"363 1050 CURVE SMOOTH",
"212 954 LINE"
);
}
);
};
components = (
{
name = E;
},
{
name = circumflexcomb_acutecomb;
transform = "{1, 0, 0, 1, 56, 304}";
}
);
layerId = UUID0;
width = 691;
},
{
background = {
anchors = (
{
name = bottom;
position = "{348, 0}";
},
{
name = ogonek;
position = "{626, 10}";
},
{
name = top;
position = "{348, 1169}";
},
{
name = topleft;
position = "{20, 754}";
}
);
paths = (
{
closed = 1;
nodes = (
"661 0 LINE",
"661 245 LINE",
"621 245 LINE",
"619 131 OFFCURVE",
"554 30 OFFCURVE",
"443 30 CURVE SMOOTH",
"20 30 LINE",
"20 0 LINE"
);
},
{
closed = 1;
nodes = (
"273 15 LINE",
"273 754 LINE",
"115 754 LINE",
"115 15 LINE"
);
},
{
closed = 1;
nodes = (
"492 216 LINE",
"492 516 LINE",
"452 516 LINE",
"450 427 OFFCURVE",
"401 386 OFFCURVE",
"269 386 CURVE",
"269 356 LINE",
"401 356 OFFCURVE",
"450 312 OFFCURVE",
"452 216 CURVE"
);
},
{
closed = 1;
nodes = (
"646 554 LINE",
"646 754 LINE",
"20 754 LINE",
"20 724 LINE",
"443 724 LINE SMOOTH",
"545 724 OFFCURVE",
"604 646 OFFCURVE",
"606 554 CURVE"
);
},
{
closed = 1;
nodes = (
"229 827 LINE",
"348 869 LINE",
"467 827 LINE",
"520 827 LINE",
"379 943 LINE",
"317 943 LINE",
"176 827 LINE"
);
},
{
closed = 1;
nodes = (
"264 979 LINE",
"441 1014 LINE SMOOTH",
"485 1023 OFFCURVE",
"494 1047 OFFCURVE",
"494 1070 CURVE SMOOTH",
"494 1094 OFFCURVE",
"477 1116 OFFCURVE",
"444 1116 CURVE SMOOTH",
"415 1116 OFFCURVE",
"397 1106 OFFCURVE",
"362 1083 CURVE SMOOTH",
"201 979 LINE"
);
}
);
};
components = (
{
name = E;
},
{
name = circumflexcomb_acutecomb;
transform = "{1, 0, 0, 1, 52, 304}";
}
);
layerId = "3AE1663F-34E8-4710-91A2-69F84C961E5F";
width = 696;
}
);
leftKerningGroup = E;
rightKerningGroup = E;
unicode = 1EBE;
},
{
glyphname = Ecircumflexdotbelow;
lastChange = "2022-05-05 12:24:42 +0000";
layers = (
{
background = {
anchors = (
{
name = bottom;
position = "{346, -231}";
},
{
name = ogonek;
position = "{622, 10}";
},
{
name = top;
position = "{346, 881}";
},
{
name = topleft;
position = "{20, 754}";
}
);
paths = (
{
closed = 1;
nodes = (
"639 0 LINE",
"639 235 LINE",
"604 235 LINE",
"602 123 OFFCURVE",
"545 25 OFFCURVE",
"446 25 CURVE SMOOTH",
"8 25 LINE",
"8 0 LINE"
);
},
{
closed = 1;
nodes = (
"260 15 LINE",
"260 744 LINE",
"126 744 LINE",
"126 15 LINE"
);
},
{
closed = 1;
nodes = (
"450 216 LINE",
"450 526 LINE",
"415 526 LINE",
"415 418 OFFCURVE",
"381 388 OFFCURVE",
"257 388 CURVE",
"257 363 LINE",
"381 363 OFFCURVE",
"412 328 OFFCURVE",
"415 216 CURVE"
);
},
{
closed = 1;
nodes = (
"609 549 LINE",
"609 754 LINE",
"8 754 LINE",
"8 729 LINE",
"416 729 LINE SMOOTH",
"515 729 OFFCURVE",
"572 646 OFFCURVE",
"574 549 CURVE"
);
},
{
closed = 1;
nodes = (
"382 -231 OFFCURVE",
"412 -201 OFFCURVE",
"412 -165 CURVE SMOOTH",
"412 -129 OFFCURVE",
"382 -99 OFFCURVE",
"346 -99 CURVE SMOOTH",
"310 -99 OFFCURVE",
"280 -129 OFFCURVE",
"280 -165 CURVE SMOOTH",
"280 -201 OFFCURVE",
"310 -231 OFFCURVE",
"346 -231 CURVE SMOOTH"
);
},
{
closed = 1;
nodes = (
"237 824 LINE",
"346 875 LINE",
"455 824 LINE",
"498 824 LINE",
"377 936 LINE",
"315 936 LINE",
"194 824 LINE"
);
}
);
};
components = (
{
name = E;
},
{
name = dotbelowcomb;
transform = "{1, 0, 0, 1, 62, 0}";
},
{
name = circumflexcomb.case;
transform = "{1, 0, 0, 1, 174, 11}";
}
);
layerId = UUID0;
width = 691;
},
{
background = {
anchors = (
{
name = bottom;
position = "{348, -260}";
},
{
name = ogonek;
position = "{626, 10}";
},
{
name = top;
position = "{348, 893}";
},
{
name = topleft;
position = "{20, 754}";
}
);
paths = (
{
closed = 1;
nodes = (
"661 0 LINE",
"661 245 LINE",
"621 245 LINE",
"619 131 OFFCURVE",
"554 30 OFFCURVE",
"443 30 CURVE SMOOTH",
"20 30 LINE",
"20 0 LINE"
);
},
{
closed = 1;
nodes = (
"273 15 LINE",
"273 754 LINE",
"115 754 LINE",
"115 15 LINE"
);
},
{
closed = 1;
nodes = (
"492 216 LINE",
"492 516 LINE",
"452 516 LINE",
"450 427 OFFCURVE",
"401 386 OFFCURVE",
"269 386 CURVE",
"269 356 LINE",
"401 356 OFFCURVE",
"450 312 OFFCURVE",
"452 216 CURVE"
);
},
{
closed = 1;
nodes = (
"646 554 LINE",
"646 754 LINE",
"20 754 LINE",
"20 724 LINE",
"443 724 LINE SMOOTH",
"545 724 OFFCURVE",
"604 646 OFFCURVE",
"606 554 CURVE"
);
},
{
closed = 1;
nodes = (
"391 -260 OFFCURVE",
"428 -223 OFFCURVE",
"428 -180 CURVE SMOOTH",
"428 -136 OFFCURVE",
"391 -99 OFFCURVE",
"347 -99 CURVE SMOOTH",
"304 -99 OFFCURVE",
"267 -136 OFFCURVE",
"267 -180 CURVE SMOOTH",
"267 -223 OFFCURVE",
"304 -260 OFFCURVE",
"347 -260 CURVE SMOOTH"
);
},
{
closed = 1;
nodes = (
"229 827 LINE",
"348 869 LINE",
"467 827 LINE",
"520 827 LINE",
"379 943 LINE",
"317 943 LINE",
"176 827 LINE"
);
}
);
};
components = (
{
name = E;
},
{
name = dotbelowcomb;
transform = "{1, 0, 0, 1, 55, 0}";
},
{
name = circumflexcomb.case;
transform = "{1, 0, 0, 1, 136, 20}";
}
);
layerId = "3AE1663F-34E8-4710-91A2-69F84C961E5F";
width = 696;
}
);
leftKerningGroup = E;
rightKerningGroup = E;
unicode = 1EC6;
},
{
glyphname = Ecircumflexgrave;
lastChange = "2022-05-05 11:59:46 +0000";
layers = (
{
background = {
anchors = (
{
name = bottom;
position = "{346, 0}";
},
{
name = ogonek;
position = "{622, 10}";
},
{
name = top;
position = "{346, 1156}";
},
{
name = topleft;
position = "{20, 754}";
}
);
paths = (
{
closed = 1;
nodes = (
"639 0 LINE",
"639 235 LINE",
"604 235 LINE",
"602 123 OFFCURVE",
"545 25 OFFCURVE",
"446 25 CURVE SMOOTH",
"8 25 LINE",
"8 0 LINE"
);
},
{
closed = 1;
nodes = (
"260 15 LINE",
"260 744 LINE",
"126 744 LINE",
"126 15 LINE"
);
},
{
closed = 1;
nodes = (
"450 216 LINE",
"450 526 LINE",
"415 526 LINE",
"415 418 OFFCURVE",
"381 388 OFFCURVE",
"257 388 CURVE",
"257 363 LINE",
"381 363 OFFCURVE",
"412 328 OFFCURVE",
"415 216 CURVE"
);
},
{
closed = 1;
nodes = (
"609 549 LINE",
"609 754 LINE",
"8 754 LINE",
"8 729 LINE",
"416 729 LINE SMOOTH",
"515 729 OFFCURVE",
"572 646 OFFCURVE",
"574 549 CURVE"
);
},
{
closed = 1;
nodes = (
"237 824 LINE",
"346 875 LINE",
"455 824 LINE",
"498 824 LINE",
"377 936 LINE",
"315 936 LINE",
"194 824 LINE"
);
},
{
closed = 1;
nodes = (
"480 949 LINE",
"329 1045 LINE SMOOTH",
"282 1075 OFFCURVE",
"270 1081 OFFCURVE",
"256 1081 CURVE SMOOTH",
"228 1081 OFFCURVE",
"212 1064 OFFCURVE",
"212 1038 CURVE SMOOTH",
"212 1012 OFFCURVE",
"229 992 OFFCURVE",
"262 985 CURVE SMOOTH",
"437 949 LINE"
);
}
);
};
components = (
{
name = E;
},
{
name = circumflexcomb_gravecomb;
transform = "{1, 0, 0, 1, 56, 304}";
}
);
layerId = UUID0;
width = 691;
},
{
background = {
anchors = (
{
name = bottom;
position = "{348, 0}";
},
{
name = ogonek;
position = "{626, 10}";
},
{
name = top;
position = "{348, 1193}";
},
{
name = topleft;
position = "{20, 754}";
}
);
paths = (
{
closed = 1;
nodes = (
"661 0 LINE",
"661 245 LINE",
"621 245 LINE",
"619 131 OFFCURVE",
"554 30 OFFCURVE",
"443 30 CURVE SMOOTH",
"20 30 LINE",
"20 0 LINE"
);
},
{
closed = 1;
nodes = (
"273 15 LINE",
"273 754 LINE",
"115 754 LINE",
"115 15 LINE"
);
},
{
closed = 1;
nodes = (
"492 216 LINE",
"492 516 LINE",
"452 516 LINE",
"450 427 OFFCURVE",
"401 386 OFFCURVE",
"269 386 CURVE",
"269 356 LINE",
"401 356 OFFCURVE",
"450 312 OFFCURVE",
"452 216 CURVE"
);
},
{
closed = 1;
nodes = (
"646 554 LINE",
"646 754 LINE",
"20 754 LINE",
"20 724 LINE",
"443 724 LINE SMOOTH",
"545 724 OFFCURVE",
"604 646 OFFCURVE",
"606 554 CURVE"
);
},
{
closed = 1;
nodes = (
"229 827 LINE",
"348 869 LINE",
"467 827 LINE",
"520 827 LINE",
"379 943 LINE",
"317 943 LINE",
"176 827 LINE"
);
},
{
closed = 1;
nodes = (
"494 986 LINE",
"333 1090 LINE SMOOTH",
"298 1113 OFFCURVE",
"280 1123 OFFCURVE",
"251 1123 CURVE SMOOTH",
"218 1123 OFFCURVE",
"201 1101 OFFCURVE",
"201 1077 CURVE SMOOTH",
"201 1054 OFFCURVE",
"210 1030 OFFCURVE",
"254 1021 CURVE SMOOTH",
"431 986 LINE"
);
}
);
};
components = (
{
name = E;
},
{
name = circumflexcomb_gravecomb;
transform = "{1, 0, 0, 1, 52, 304}";
}
);
layerId = "3AE1663F-34E8-4710-91A2-69F84C961E5F";
width = 696;
}
);
leftKerningGroup = E;
rightKerningGroup = E;
unicode = 1EC0;
},
{
glyphname = Ecircumflexhookabove;
lastChange = "2022-05-05 11:59:52 +0000";
layers = (
{
background = {
anchors = (
{
name = bottom;
position = "{346, 0}";
},
{
name = ogonek;
position = "{622, 10}";
},
{
name = top;
position = "{346, 1176}";
},
{
name = topleft;
position = "{20, 754}";
}
);
paths = (
{
closed = 1;
nodes = (
"639 0 LINE",
"639 235 LINE",
"604 235 LINE",
"602 123 OFFCURVE",
"545 25 OFFCURVE",
"446 25 CURVE SMOOTH",
"8 25 LINE",
"8 0 LINE"
);
},
{
closed = 1;
nodes = (
"260 15 LINE",
"260 744 LINE",
"126 744 LINE",
"126 15 LINE"
);
},
{
closed = 1;
nodes = (
"450 216 LINE",
"450 526 LINE",
"415 526 LINE",
"415 418 OFFCURVE",
"381 388 OFFCURVE",
"257 388 CURVE",
"257 363 LINE",
"381 363 OFFCURVE",
"412 328 OFFCURVE",
"415 216 CURVE"
);
},
{
closed = 1;
nodes = (
"609 549 LINE",
"609 754 LINE",
"8 754 LINE",
"8 729 LINE",
"416 729 LINE SMOOTH",
"515 729 OFFCURVE",
"572 646 OFFCURVE",
"574 549 CURVE"
);
},
{
closed = 1;
nodes = (
"237 824 LINE",
"346 875 LINE",
"455 824 LINE",
"498 824 LINE",
"377 936 LINE",
"315 936 LINE",
"194 824 LINE"
);
},
{
closed = 1;
nodes = (
"491 933 LINE",
"503 959 OFFCURVE",
"560 969 OFFCURVE",
"560 1009 CURVE SMOOTH",
"560 1066 OFFCURVE",
"520 1092 OFFCURVE",
"460 1092 CURVE SMOOTH",
"416 1092 OFFCURVE",
"367 1071 OFFCURVE",
"367 1012 CURVE SMOOTH",
"367 992 OFFCURVE",
"383 977 OFFCURVE",
"406 977 CURVE SMOOTH",
"427 977 OFFCURVE",
"438 985 OFFCURVE",
"438 999 CURVE SMOOTH",
"438 1017 OFFCURVE",
"425 1015 OFFCURVE",
"425 1027 CURVE SMOOTH",
"425 1042 OFFCURVE",
"441 1052 OFFCURVE",
"462 1052 CURVE SMOOTH",
"482 1052 OFFCURVE",
"501 1045 OFFCURVE",
"501 1007 CURVE SMOOTH",
"501 983 OFFCURVE",
"464 969 OFFCURVE",
"464 933 CURVE"
);
}
);
};
components = (
{
name = E;
},
{
name = circumflexcomb_hookabovecomb;
transform = "{1, 0, 0, 1, 56, 304}";
}
);
layerId = UUID0;
width = 691;
},
{
background = {
anchors = (
{
name = bottom;
position = "{348, 0}";
},
{
name = ogonek;
position = "{626, 10}";
},
{
name = top;
position = "{348, 1203}";
},
{
name = topleft;
position = "{20, 754}";
}
);
paths = (
{
closed = 1;
nodes = (
"661 0 LINE",
"661 245 LINE",
"621 245 LINE",
"619 131 OFFCURVE",
"554 30 OFFCURVE",
"443 30 CURVE SMOOTH",
"20 30 LINE",
"20 0 LINE"
);
},
{
closed = 1;
nodes = (
"273 15 LINE",
"273 754 LINE",
"115 754 LINE",
"115 15 LINE"
);
},
{
closed = 1;
nodes = (
"492 216 LINE",
"492 516 LINE",
"452 516 LINE",
"450 427 OFFCURVE",
"401 386 OFFCURVE",
"269 386 CURVE",
"269 356 LINE",
"401 356 OFFCURVE",
"450 312 OFFCURVE",
"452 216 CURVE"
);
},
{
closed = 1;
nodes = (
"646 554 LINE",
"646 754 LINE",
"20 754 LINE",
"20 724 LINE",
"443 724 LINE SMOOTH",
"545 724 OFFCURVE",
"604 646 OFFCURVE",
"606 554 CURVE"
);
},
{
closed = 1;
nodes = (
"229 827 LINE",
"348 869 LINE",
"467 827 LINE",
"520 827 LINE",
"379 943 LINE",
"317 943 LINE",
"176 827 LINE"
);
},
{
closed = 1;
nodes = (
"518 945 LINE",
"518 995 OFFCURVE",
"592 976 OFFCURVE",
"592 1038 CURVE SMOOTH",
"592 1109 OFFCURVE",
"557 1138 OFFCURVE",
"484 1138 CURVE SMOOTH",
"424 1138 OFFCURVE",
"377 1111 OFFCURVE",
"377 1046 CURVE SMOOTH",
"377 1016 OFFCURVE",
"397 997 OFFCURVE",
"421 997 CURVE SMOOTH",
"438 997 OFFCURVE",
"460 1004 OFFCURVE",
"460 1023 CURVE SMOOTH",
"460 1051 OFFCURVE",
"439 1039 OFFCURVE",
"439 1063 CURVE SMOOTH",
"439 1077 OFFCURVE",
"456 1095 OFFCURVE",
"484 1095 CURVE SMOOTH",
"513 1095 OFFCURVE",
"530 1079 OFFCURVE",
"530 1047 CURVE SMOOTH",
"530 1023 OFFCURVE",
"479 1015 OFFCURVE",
"479 945 CURVE"
);
}
);
};
components = (
{
name = E;
},
{
name = circumflexcomb_hookabovecomb;
transform = "{1, 0, 0, 1, 52, 304}";
}
);
layerId = "3AE1663F-34E8-4710-91A2-69F84C961E5F";
width = 696;
}
);
leftKerningGroup = E;
rightKerningGroup = E;
unicode = 1EC2;
},
{
glyphname = Ecircumflextilde;
lastChange = "2022-05-05 11:59:58 +0000";
layers = (
{
background = {
anchors = (
{
name = bottom;
position = "{346, 0}";
},
{
name = ogonek;
position = "{622, 10}";
},
{
name = top;
position = "{346, 1159}";
},
{
name = topleft;
position = "{20, 754}";
}
);
paths = (
{
closed = 1;
nodes = (
"639 0 LINE",
"639 235 LINE",
"604 235 LINE",
"602 123 OFFCURVE",
"545 25 OFFCURVE",
"446 25 CURVE SMOOTH",
"8 25 LINE",
"8 0 LINE"
);
},
{
closed = 1;
nodes = (
"260 15 LINE",
"260 744 LINE",
"126 744 LINE",
"126 15 LINE"
);
},
{
closed = 1;
nodes = (
"450 216 LINE",
"450 526 LINE",
"415 526 LINE",
"415 418 OFFCURVE",
"381 388 OFFCURVE",
"257 388 CURVE",
"257 363 LINE",
"381 363 OFFCURVE",
"412 328 OFFCURVE",
"415 216 CURVE"
);
},
{
closed = 1;
nodes = (
"609 549 LINE",
"609 754 LINE",
"8 754 LINE",
"8 729 LINE",
"416 729 LINE SMOOTH",
"515 729 OFFCURVE",
"572 646 OFFCURVE",
"574 549 CURVE"
);
},
{
closed = 1;
nodes = (
"237 824 LINE",
"346 875 LINE",
"455 824 LINE",
"498 824 LINE",
"377 936 LINE",
"315 936 LINE",
"194 824 LINE"
);
},
{
closed = 1;
nodes = (
"203 989 LINE",
"210 1017 OFFCURVE",
"233 1038 OFFCURVE",
"266 1038 CURVE SMOOTH",
"313 1038 OFFCURVE",
"347 990 OFFCURVE",
"403 990 CURVE SMOOTH",
"472 990 OFFCURVE",
"508 1054 OFFCURVE",
"522 1117 CURVE",
"488 1117 LINE",
"481 1096 OFFCURVE",
"463 1066 OFFCURVE",
"425 1066 CURVE SMOOTH",
"379 1066 OFFCURVE",
"342 1114 OFFCURVE",
"288 1114 CURVE SMOOTH",
"222 1114 OFFCURVE",
"180 1051 OFFCURVE",
"170 989 CURVE"
);
}
);
};
components = (
{
name = E;
},
{
name = circumflexcomb_tildecomb;
transform = "{1, 0, 0, 1, 56, 304}";
}
);
layerId = UUID0;
width = 691;
},
{
background = {
anchors = (
{
name = bottom;
position = "{348, 0}";
},
{
name = ogonek;
position = "{626, 10}";
},
{
name = top;
position = "{348, 1166}";
},
{
name = topleft;
position = "{20, 754}";
}
);
paths = (
{
closed = 1;
nodes = (
"661 0 LINE",
"661 245 LINE",
"621 245 LINE",
"619 131 OFFCURVE",
"554 30 OFFCURVE",
"443 30 CURVE SMOOTH",
"20 30 LINE",
"20 0 LINE"
);
},
{
closed = 1;
nodes = (
"273 15 LINE",
"273 754 LINE",
"115 754 LINE",
"115 15 LINE"
);
},
{
closed = 1;
nodes = (
"492 216 LINE",
"492 516 LINE",
"452 516 LINE",
"450 427 OFFCURVE",
"401 386 OFFCURVE",
"269 386 CURVE",
"269 356 LINE",
"401 356 OFFCURVE",
"450 312 OFFCURVE",
"452 216 CURVE"
);
},
{
closed = 1;
nodes = (
"646 554 LINE",
"646 754 LINE",
"20 754 LINE",
"20 724 LINE",
"443 724 LINE SMOOTH",
"545 724 OFFCURVE",
"604 646 OFFCURVE",
"606 554 CURVE"
);
},
{
closed = 1;
nodes = (
"229 827 LINE",
"348 869 LINE",
"467 827 LINE",
"520 827 LINE",
"379 943 LINE",
"317 943 LINE",
"176 827 LINE"
);
},
{
closed = 1;
nodes = (
"185 1003 LINE",
"194 1027 OFFCURVE",
"225 1044 OFFCURVE",
"268 1044 CURVE SMOOTH",
"315 1044 OFFCURVE",
"349 1004 OFFCURVE",
"405 1004 CURVE SMOOTH",
"486 1004 OFFCURVE",
"528 1072 OFFCURVE",
"544 1140 CURVE",
"510 1140 LINE",
"501 1123 OFFCURVE",
"477 1100 OFFCURVE",
"427 1100 CURVE SMOOTH",
"381 1100 OFFCURVE",
"344 1140 OFFCURVE",
"290 1140 CURVE SMOOTH",
"212 1140 OFFCURVE",
"164 1070 OFFCURVE",
"152 1003 CURVE"
);
}
);
};
components = (
{
name = E;
},
{
name = circumflexcomb_tildecomb;
transform = "{1, 0, 0, 1, 52, 304}";
}
);
layerId = "3AE1663F-34E8-4710-91A2-69F84C961E5F";
width = 696;
}
);
leftKerningGroup = E;
rightKerningGroup = E;
unicode = 1EC4;
},
{
glyphname = Edblgrave;
lastChange = "2022-05-05 09:16:31 +0000";
layers = (
{
background = {
anchors = (
{
name = bottom;
position = "{346, 0}";
},
{
name = ogonek;
position = "{622, 10}";
},
{
name = top;
position = "{346, 924}";
},
{
name = topleft;
position = "{20, 754}";
}
);
paths = (
{
closed = 1;
nodes = (
"639 0 LINE",
"639 235 LINE",
"604 235 LINE",
"602 123 OFFCURVE",
"545 25 OFFCURVE",
"446 25 CURVE SMOOTH",
"8 25 LINE",
"8 0 LINE"
);
},
{
closed = 1;
nodes = (
"260 15 LINE",
"260 744 LINE",
"126 744 LINE",
"126 15 LINE"
);
},
{
closed = 1;
nodes = (
"450 216 LINE",
"450 526 LINE",
"415 526 LINE",
"415 418 OFFCURVE",
"381 388 OFFCURVE",
"257 388 CURVE",
"257 363 LINE",
"381 363 OFFCURVE",
"412 328 OFFCURVE",
"415 216 CURVE"
);
},
{
closed = 1;
nodes = (
"609 549 LINE",
"609 754 LINE",
"8 754 LINE",
"8 729 LINE",
"416 729 LINE SMOOTH",
"515 729 OFFCURVE",
"572 646 OFFCURVE",
"574 549 CURVE"
);
},
{
closed = 1;
nodes = (
"549 792 LINE",
"431 884 LINE SMOOTH",
"387 918 OFFCURVE",
"379 924 OFFCURVE",
"365 924 CURVE SMOOTH",
"337 924 OFFCURVE",
"321 907 OFFCURVE",
"321 881 CURVE SMOOTH",
"321 855 OFFCURVE",
"338 837 OFFCURVE",
"371 828 CURVE SMOOTH",
"506 792 LINE"
);
},
{
closed = 1;
nodes = (
"371 792 LINE",
"253 884 LINE SMOOTH",
"209 918 OFFCURVE",
"201 924 OFFCURVE",
"187 924 CURVE SMOOTH",
"159 924 OFFCURVE",
"143 907 OFFCURVE",
"143 881 CURVE SMOOTH",
"143 855 OFFCURVE",
"160 837 OFFCURVE",
"193 828 CURVE SMOOTH",
"328 792 LINE"
);
}
);
};
components = (
{
name = E;
},
{
name = dblgravecomb.case;
transform = "{1, 0, 0, 1, 133, 0}";
}
);
layerId = UUID0;
width = 691;
},
{
background = {
anchors = (
{
name = bottom;
position = "{348, 0}";
},
{
name = ogonek;
position = "{626, 10}";
},
{
name = top;
position = "{348, 924}";
},
{
name = topleft;
position = "{20, 754}";
}
);
paths = (
{
closed = 1;
nodes = (
"661 0 LINE",
"661 245 LINE",
"621 245 LINE",
"619 131 OFFCURVE",
"554 30 OFFCURVE",
"443 30 CURVE SMOOTH",
"20 30 LINE",
"20 0 LINE"
);
},
{
closed = 1;
nodes = (
"273 15 LINE",
"273 754 LINE",
"115 754 LINE",
"115 15 LINE"
);
},
{
closed = 1;
nodes = (
"492 216 LINE",
"492 516 LINE",
"452 516 LINE",
"450 427 OFFCURVE",
"401 386 OFFCURVE",
"269 386 CURVE",
"269 356 LINE",
"401 356 OFFCURVE",
"450 312 OFFCURVE",
"452 216 CURVE"
);
},
{
closed = 1;
nodes = (
"646 554 LINE",
"646 754 LINE",
"20 754 LINE",
"20 724 LINE",
"443 724 LINE SMOOTH",
"545 724 OFFCURVE",
"604 646 OFFCURVE",
"606 554 CURVE"
);
},
{
closed = 1;
nodes = (
"605 787 LINE",
"444 891 LINE SMOOTH",
"409 914 OFFCURVE",
"391 924 OFFCURVE",
"362 924 CURVE SMOOTH",
"329 924 OFFCURVE",
"312 902 OFFCURVE",
"312 878 CURVE SMOOTH",
"312 855 OFFCURVE",
"321 831 OFFCURVE",
"365 822 CURVE SMOOTH",
"542 787 LINE"
);
},
{
closed = 1;
nodes = (
"383 787 LINE",
"222 891 LINE SMOOTH",
"187 914 OFFCURVE",
"169 924 OFFCURVE",
"140 924 CURVE SMOOTH",
"107 924 OFFCURVE",
"90 902 OFFCURVE",
"90 878 CURVE SMOOTH",
"90 855 OFFCURVE",
"99 831 OFFCURVE",
"143 822 CURVE SMOOTH",
"320 787 LINE"
);
}
);
};
components = (
{
name = E;
},
{
name = dblgravecomb.case;
transform = "{1, 0, 0, 1, 80, 0}";
}
);
layerId = "3AE1663F-34E8-4710-91A2-69F84C961E5F";
width = 696;
}
);
leftKerningGroup = E;
rightKerningGroup = E;
unicode = 0204;
},
{
glyphname = Edieresis;
lastChange = "2022-05-05 09:16:31 +0000";
layers = (
{
background = {
anchors = (
{
name = bottom;
position = "{346, 0}";
},
{
name = ogonek;
position = "{622, 10}";
},
{
name = top;
position = "{346, 754}";
},
{
name = topleft;
position = "{20, 754}";
}
);
paths = (
{
closed = 1;
nodes = (
"639 0 LINE",
"639 235 LINE",
"604 235 LINE",
"602 123 OFFCURVE",
"545 25 OFFCURVE",
"446 25 CURVE SMOOTH",
"8 25 LINE",
"8 0 LINE"
);
},
{
closed = 1;
nodes = (
"260 15 LINE",
"260 744 LINE",
"126 744 LINE",
"126 15 LINE"
);
},
{
closed = 1;
nodes = (
"450 216 LINE",
"450 526 LINE",
"415 526 LINE",
"415 418 OFFCURVE",
"381 388 OFFCURVE",
"257 388 CURVE",
"257 363 LINE",
"381 363 OFFCURVE",
"412 328 OFFCURVE",
"415 216 CURVE"
);
},
{
closed = 1;
nodes = (
"609 549 LINE",
"609 754 LINE",
"8 754 LINE",
"8 729 LINE",
"416 729 LINE SMOOTH",
"515 729 OFFCURVE",
"572 646 OFFCURVE",
"574 549 CURVE"
);
},
{
closed = 1;
nodes = (
"467 800 OFFCURVE",
"492 825 OFFCURVE",
"492 855 CURVE SMOOTH",
"492 885 OFFCURVE",
"467 910 OFFCURVE",
"437 910 CURVE SMOOTH",
"407 910 OFFCURVE",
"382 885 OFFCURVE",
"382 855 CURVE SMOOTH",
"382 825 OFFCURVE",
"407 800 OFFCURVE",
"437 800 CURVE SMOOTH"
);
},
{
closed = 1;
nodes = (
"277 800 OFFCURVE",
"302 825 OFFCURVE",
"302 855 CURVE SMOOTH",
"302 885 OFFCURVE",
"277 910 OFFCURVE",
"247 910 CURVE SMOOTH",
"217 910 OFFCURVE",
"192 885 OFFCURVE",
"192 855 CURVE SMOOTH",
"192 825 OFFCURVE",
"217 800 OFFCURVE",
"247 800 CURVE SMOOTH"
);
}
);
};
components = (
{
name = E;
},
{
name = dieresiscomb.case;
transform = "{1, 0, 0, 1, 186, 0}";
}
);
layerId = UUID0;
width = 691;
},
{
background = {
anchors = (
{
name = bottom;
position = "{348, 0}";
},
{
name = ogonek;
position = "{626, 10}";
},
{
name = top;
position = "{348, 754}";
},
{
name = topleft;
position = "{20, 754}";
}
);
paths = (
{
closed = 1;
nodes = (
"661 0 LINE",
"661 245 LINE",
"621 245 LINE",
"619 131 OFFCURVE",
"554 30 OFFCURVE",
"443 30 CURVE SMOOTH",
"20 30 LINE",
"20 0 LINE"
);
},
{
closed = 1;
nodes = (
"273 15 LINE",
"273 754 LINE",
"115 754 LINE",
"115 15 LINE"
);
},
{
closed = 1;
nodes = (
"492 216 LINE",
"492 516 LINE",
"452 516 LINE",
"450 427 OFFCURVE",
"401 386 OFFCURVE",
"269 386 CURVE",
"269 356 LINE",
"401 356 OFFCURVE",
"450 312 OFFCURVE",
"452 216 CURVE"
);
},
{
closed = 1;
nodes = (
"646 554 LINE",
"646 754 LINE",
"20 754 LINE",
"20 724 LINE",
"443 724 LINE SMOOTH",
"545 724 OFFCURVE",
"604 646 OFFCURVE",
"606 554 CURVE"
);
},
{
closed = 1;
nodes = (
"480 792 OFFCURVE",
"510 822 OFFCURVE",
"510 858 CURVE SMOOTH",
"510 894 OFFCURVE",
"480 924 OFFCURVE",
"444 924 CURVE SMOOTH",
"408 924 OFFCURVE",
"378 894 OFFCURVE",
"378 858 CURVE SMOOTH",
"378 822 OFFCURVE",
"408 792 OFFCURVE",
"444 792 CURVE SMOOTH"
);
},
{
closed = 1;
nodes = (
"290 792 OFFCURVE",
"320 822 OFFCURVE",
"320 858 CURVE SMOOTH",
"320 894 OFFCURVE",
"290 924 OFFCURVE",
"254 924 CURVE SMOOTH",
"218 924 OFFCURVE",
"188 894 OFFCURVE",
"188 858 CURVE SMOOTH",
"188 822 OFFCURVE",
"218 792 OFFCURVE",
"254 792 CURVE SMOOTH"
);
}
);
};
components = (
{
name = E;
},
{
name = dieresiscomb.case;
transform = "{1, 0, 0, 1, 177, 0}";
}
);
layerId = "3AE1663F-34E8-4710-91A2-69F84C961E5F";
width = 696;
}
);
leftKerningGroup = E;
rightKerningGroup = E;
unicode = 00CB;
},
{
glyphname = Edotaccent;
lastChange = "2022-05-05 09:47:42 +0000";
layers = (
{
background = {
anchors = (
{
name = bottom;
position = "{346, 0}";
},
{
name = ogonek;
position = "{622, 10}";
},
{
name = top;
position = "{346, 754}";
},
{
name = topleft;
position = "{20, 754}";
}
);
paths = (
{
closed = 1;
nodes = (
"639 0 LINE",
"639 235 LINE",
"604 235 LINE",
"602 123 OFFCURVE",
"545 25 OFFCURVE",
"446 25 CURVE SMOOTH",
"8 25 LINE",
"8 0 LINE"
);
},
{
closed = 1;
nodes = (
"260 15 LINE",
"260 744 LINE",
"126 744 LINE",
"126 15 LINE"
);
},
{
closed = 1;
nodes = (
"450 216 LINE",
"450 526 LINE",
"415 526 LINE",
"415 418 OFFCURVE",
"381 388 OFFCURVE",
"257 388 CURVE",
"257 363 LINE",
"381 363 OFFCURVE",
"412 328 OFFCURVE",
"415 216 CURVE"
);
},
{
closed = 1;
nodes = (
"609 549 LINE",
"609 754 LINE",
"8 754 LINE",
"8 729 LINE",
"416 729 LINE SMOOTH",
"515 729 OFFCURVE",
"572 646 OFFCURVE",
"574 549 CURVE"
);
},
{
closed = 1;
nodes = (
"383 797 OFFCURVE",
"413 827 OFFCURVE",
"413 863 CURVE SMOOTH",
"413 899 OFFCURVE",
"383 929 OFFCURVE",
"347 929 CURVE SMOOTH",
"311 929 OFFCURVE",
"281 899 OFFCURVE",
"281 863 CURVE SMOOTH",
"281 827 OFFCURVE",
"311 797 OFFCURVE",
"347 797 CURVE SMOOTH"
);
}
);
};
components = (
{
name = E;
},
{
name = dotaccentcomb.case;
transform = "{1, 0, 0, 1, 270, 0}";
}
);
layerId = UUID0;
width = 691;
},
{
background = {
anchors = (
{
name = bottom;
position = "{348, 0}";
},
{
name = ogonek;
position = "{626, 10}";
},
{
name = top;
position = "{348, 754}";
},
{
name = topleft;
position = "{20, 754}";
}
);
paths = (
{
closed = 1;
nodes = (
"661 0 LINE",
"661 245 LINE",
"621 245 LINE",
"619 131 OFFCURVE",
"554 30 OFFCURVE",
"443 30 CURVE SMOOTH",
"20 30 LINE",
"20 0 LINE"
);
},
{
closed = 1;
nodes = (
"273 15 LINE",
"273 754 LINE",
"115 754 LINE",
"115 15 LINE"
);
},
{
closed = 1;
nodes = (
"492 216 LINE",
"492 516 LINE",
"452 516 LINE",
"450 427 OFFCURVE",
"401 386 OFFCURVE",
"269 386 CURVE",
"269 356 LINE",
"401 356 OFFCURVE",
"450 312 OFFCURVE",
"452 216 CURVE"
);
},
{
closed = 1;
nodes = (
"646 554 LINE",
"646 754 LINE",
"20 754 LINE",
"20 724 LINE",
"443 724 LINE SMOOTH",
"545 724 OFFCURVE",
"604 646 OFFCURVE",
"606 554 CURVE"
);
},
{
closed = 1;
nodes = (
"385 789 OFFCURVE",
"416 820 OFFCURVE",
"416 857 CURVE SMOOTH",
"416 895 OFFCURVE",
"385 926 OFFCURVE",
"347 926 CURVE SMOOTH",
"310 926 OFFCURVE",
"279 895 OFFCURVE",
"279 857 CURVE SMOOTH",
"279 820 OFFCURVE",
"310 789 OFFCURVE",
"347 789 CURVE SMOOTH"
);
}
);
};
components = (
{
name = E;
},
{
name = dotaccentcomb.case;
transform = "{1, 0, 0, 1, 269, 0}";
}
);
layerId = "3AE1663F-34E8-4710-91A2-69F84C961E5F";
width = 696;
}
);
leftKerningGroup = E;
rightKerningGroup = E;
unicode = 0116;
},
{
glyphname = Edotbelow;
lastChange = "2022-05-05 09:16:31 +0000";
layers = (
{
background = {
anchors = (
{
name = bottom;
position = "{346, -231}";
},
{
name = ogonek;
position = "{622, 10}";
},
{
name = top;
position = "{346, 754}";
},
{
name = topleft;
position = "{20, 754}";
}
);
paths = (
{
closed = 1;
nodes = (
"639 0 LINE",
"639 235 LINE",
"604 235 LINE",
"602 123 OFFCURVE",
"545 25 OFFCURVE",
"446 25 CURVE SMOOTH",
"8 25 LINE",
"8 0 LINE"
);
},
{
closed = 1;
nodes = (
"260 15 LINE",
"260 744 LINE",
"126 744 LINE",
"126 15 LINE"
);
},
{
closed = 1;
nodes = (
"450 216 LINE",
"450 526 LINE",
"415 526 LINE",
"415 418 OFFCURVE",
"381 388 OFFCURVE",
"257 388 CURVE",
"257 363 LINE",
"381 363 OFFCURVE",
"412 328 OFFCURVE",
"415 216 CURVE"
);
},
{
closed = 1;
nodes = (
"609 549 LINE",
"609 754 LINE",
"8 754 LINE",
"8 729 LINE",
"416 729 LINE SMOOTH",
"515 729 OFFCURVE",
"572 646 OFFCURVE",
"574 549 CURVE"
);
},
{
closed = 1;
nodes = (
"382 -231 OFFCURVE",
"412 -201 OFFCURVE",
"412 -165 CURVE SMOOTH",
"412 -129 OFFCURVE",
"382 -99 OFFCURVE",
"346 -99 CURVE SMOOTH",
"310 -99 OFFCURVE",
"280 -129 OFFCURVE",
"280 -165 CURVE SMOOTH",
"280 -201 OFFCURVE",
"310 -231 OFFCURVE",
"346 -231 CURVE SMOOTH"
);
}
);
};
components = (
{
name = E;
},
{
name = dotbelowcomb;
transform = "{1, 0, 0, 1, 62, 0}";
}
);
layerId = UUID0;
width = 691;
},
{
background = {
anchors = (
{
name = bottom;
position = "{348, -260}";
},
{
name = ogonek;
position = "{626, 10}";
},
{
name = top;
position = "{348, 754}";
},
{
name = topleft;
position = "{20, 754}";
}
);
paths = (
{
closed = 1;
nodes = (
"661 0 LINE",
"661 245 LINE",
"621 245 LINE",
"619 131 OFFCURVE",
"554 30 OFFCURVE",
"443 30 CURVE SMOOTH",
"20 30 LINE",
"20 0 LINE"
);
},
{
closed = 1;
nodes = (
"273 15 LINE",
"273 754 LINE",
"115 754 LINE",
"115 15 LINE"
);
},
{
closed = 1;
nodes = (
"492 216 LINE",
"492 516 LINE",
"452 516 LINE",
"450 427 OFFCURVE",
"401 386 OFFCURVE",
"269 386 CURVE",
"269 356 LINE",
"401 356 OFFCURVE",
"450 312 OFFCURVE",
"452 216 CURVE"
);
},
{
closed = 1;
nodes = (
"646 554 LINE",
"646 754 LINE",
"20 754 LINE",
"20 724 LINE",
"443 724 LINE SMOOTH",
"545 724 OFFCURVE",
"604 646 OFFCURVE",
"606 554 CURVE"
);
},
{
closed = 1;
nodes = (
"391 -260 OFFCURVE",
"428 -223 OFFCURVE",
"428 -180 CURVE SMOOTH",
"428 -136 OFFCURVE",
"391 -99 OFFCURVE",
"347 -99 CURVE SMOOTH",
"304 -99 OFFCURVE",
"267 -136 OFFCURVE",
"267 -180 CURVE SMOOTH",
"267 -223 OFFCURVE",
"304 -260 OFFCURVE",
"347 -260 CURVE SMOOTH"
);
}
);
};
components = (
{
name = E;
},
{
name = dotbelowcomb;
transform = "{1, 0, 0, 1, 55, 0}";
}
);
layerId = "3AE1663F-34E8-4710-91A2-69F84C961E5F";
width = 696;
}
);
leftKerningGroup = E;
rightKerningGroup = E;
unicode = 1EB8;
},
{
glyphname = Egrave;
lastChange = "2022-05-05 12:25:34 +0000";
layers = (
{
background = {
anchors = (
{
name = bottom;
position = "{346, 0}";
},
{
name = ogonek;
position = "{622, 10}";
},
{
name = top;
position = "{346, 954}";
},
{
name = topleft;
position = "{20, 754}";
}
);
paths = (
{
closed = 1;
nodes = (
"639 0 LINE",
"639 235 LINE",
"604 235 LINE",
"602 123 OFFCURVE",
"545 25 OFFCURVE",
"446 25 CURVE SMOOTH",
"8 25 LINE",
"8 0 LINE"
);
},
{
closed = 1;
nodes = (
"260 15 LINE",
"260 744 LINE",
"126 744 LINE",
"126 15 LINE"
);
},
{
closed = 1;
nodes = (
"450 216 LINE",
"450 526 LINE",
"415 526 LINE",
"415 418 OFFCURVE",
"381 388 OFFCURVE",
"257 388 CURVE",
"257 363 LINE",
"381 363 OFFCURVE",
"412 328 OFFCURVE",
"415 216 CURVE"
);
},
{
closed = 1;
nodes = (
"609 549 LINE",
"609 754 LINE",
"8 754 LINE",
"8 729 LINE",
"416 729 LINE SMOOTH",
"515 729 OFFCURVE",
"572 646 OFFCURVE",
"574 549 CURVE"
);
},
{
closed = 1;
nodes = (
"480 822 LINE",
"329 918 LINE SMOOTH",
"282 948 OFFCURVE",
"270 954 OFFCURVE",
"256 954 CURVE SMOOTH",
"228 954 OFFCURVE",
"212 937 OFFCURVE",
"212 911 CURVE SMOOTH",
"212 885 OFFCURVE",
"229 865 OFFCURVE",
"262 858 CURVE SMOOTH",
"437 822 LINE"
);
}
);
};
components = (
{
name = E;
},
{
name = gravecomb.case;
transform = "{1, 0, 0, 1, 202, 30}";
}
);
layerId = UUID0;
width = 691;
},
{
background = {
anchors = (
{
name = bottom;
position = "{348, 0}";
},
{
name = ogonek;
position = "{626, 10}";
},
{
name = top;
position = "{348, 984}";
},
{
name = topleft;
position = "{20, 754}";
}
);
paths = (
{
closed = 1;
nodes = (
"661 0 LINE",
"661 245 LINE",
"621 245 LINE",
"619 131 OFFCURVE",
"554 30 OFFCURVE",
"443 30 CURVE SMOOTH",
"20 30 LINE",
"20 0 LINE"
);
},
{
closed = 1;
nodes = (
"273 15 LINE",
"273 754 LINE",
"115 754 LINE",
"115 15 LINE"
);
},
{
closed = 1;
nodes = (
"492 216 LINE",
"492 516 LINE",
"452 516 LINE",
"450 427 OFFCURVE",
"401 386 OFFCURVE",
"269 386 CURVE",
"269 356 LINE",
"401 356 OFFCURVE",
"450 312 OFFCURVE",
"452 216 CURVE"
);
},
{
closed = 1;
nodes = (
"646 554 LINE",
"646 754 LINE",
"20 754 LINE",
"20 724 LINE",
"443 724 LINE SMOOTH",
"545 724 OFFCURVE",
"604 646 OFFCURVE",
"606 554 CURVE"
);
},
{
closed = 1;
nodes = (
"494 847 LINE",
"333 951 LINE SMOOTH",
"298 974 OFFCURVE",
"280 984 OFFCURVE",
"251 984 CURVE SMOOTH",
"218 984 OFFCURVE",
"201 962 OFFCURVE",
"201 938 CURVE SMOOTH",
"201 915 OFFCURVE",
"210 891 OFFCURVE",
"254 882 CURVE SMOOTH",
"431 847 LINE"
);
}
);
};
components = (
{
name = E;
},
{
name = gravecomb.case;
transform = "{1, 0, 0, 1, 191, 60}";
}
);
layerId = "3AE1663F-34E8-4710-91A2-69F84C961E5F";
width = 696;
}
);
leftKerningGroup = E;
rightKerningGroup = E;
unicode = 00C8;
},
{
glyphname = Ehookabove;
lastChange = "2022-05-05 11:17:02 +0000";
layers = (
{
background = {
anchors = (
{
name = bottom;
position = "{346, 0}";
},
{
name = ogonek;
position = "{622, 10}";
},
{
name = top;
position = "{346, 963}";
},
{
name = topleft;
position = "{20, 754}";
}
);
paths = (
{
closed = 1;
nodes = (
"639 0 LINE",
"639 235 LINE",
"604 235 LINE",
"602 123 OFFCURVE",
"545 25 OFFCURVE",
"446 25 CURVE SMOOTH",
"8 25 LINE",
"8 0 LINE"
);
},
{
closed = 1;
nodes = (
"260 15 LINE",
"260 744 LINE",
"126 744 LINE",
"126 15 LINE"
);
},
{
closed = 1;
nodes = (
"450 216 LINE",
"450 526 LINE",
"415 526 LINE",
"415 418 OFFCURVE",
"381 388 OFFCURVE",
"257 388 CURVE",
"257 363 LINE",
"381 363 OFFCURVE",
"412 328 OFFCURVE",
"415 216 CURVE"
);
},
{
closed = 1;
nodes = (
"609 549 LINE",
"609 754 LINE",
"8 754 LINE",
"8 729 LINE",
"416 729 LINE SMOOTH",
"515 729 OFFCURVE",
"572 646 OFFCURVE",
"574 549 CURVE"
);
},
{
closed = 1;
nodes = (
"373 828 LINE",
"385 854 OFFCURVE",
"442 864 OFFCURVE",
"442 904 CURVE SMOOTH",
"442 961 OFFCURVE",
"402 987 OFFCURVE",
"342 987 CURVE SMOOTH",
"298 987 OFFCURVE",
"249 966 OFFCURVE",
"249 907 CURVE SMOOTH",
"249 887 OFFCURVE",
"265 872 OFFCURVE",
"288 872 CURVE SMOOTH",
"309 872 OFFCURVE",
"320 880 OFFCURVE",
"320 894 CURVE SMOOTH",
"320 912 OFFCURVE",
"307 910 OFFCURVE",
"307 922 CURVE SMOOTH",
"307 937 OFFCURVE",
"323 947 OFFCURVE",
"344 947 CURVE SMOOTH",
"364 947 OFFCURVE",
"383 940 OFFCURVE",
"383 902 CURVE SMOOTH",
"383 878 OFFCURVE",
"346 864 OFFCURVE",
"346 828 CURVE"
);
}
);
};
components = (
{
name = E;
},
{
name = hookabovecomb;
transform = "{1, 0, 0, 1, 61, 284}";
}
);
layerId = UUID0;
width = 691;
},
{
background = {
anchors = (
{
name = bottom;
position = "{348, 0}";
},
{
name = ogonek;
position = "{626, 10}";
},
{
name = top;
position = "{345, 992}";
},
{
name = topleft;
position = "{20, 754}";
}
);
paths = (
{
closed = 1;
nodes = (
"661 0 LINE",
"661 245 LINE",
"621 245 LINE",
"619 131 OFFCURVE",
"554 30 OFFCURVE",
"443 30 CURVE SMOOTH",
"20 30 LINE",
"20 0 LINE"
);
},
{
closed = 1;
nodes = (
"273 15 LINE",
"273 754 LINE",
"115 754 LINE",
"115 15 LINE"
);
},
{
closed = 1;
nodes = (
"492 216 LINE",
"492 516 LINE",
"452 516 LINE",
"450 427 OFFCURVE",
"401 386 OFFCURVE",
"269 386 CURVE",
"269 356 LINE",
"401 356 OFFCURVE",
"450 312 OFFCURVE",
"452 216 CURVE"
);
},
{
closed = 1;
nodes = (
"646 554 LINE",
"646 754 LINE",
"20 754 LINE",
"20 724 LINE",
"443 724 LINE SMOOTH",
"545 724 OFFCURVE",
"604 646 OFFCURVE",
"606 554 CURVE"
);
},
{
closed = 1;
nodes = (
"379 811 LINE",
"379 861 OFFCURVE",
"453 842 OFFCURVE",
"453 904 CURVE SMOOTH",
"453 975 OFFCURVE",
"418 1004 OFFCURVE",
"345 1004 CURVE SMOOTH",
"285 1004 OFFCURVE",
"238 977 OFFCURVE",
"238 912 CURVE SMOOTH",
"238 882 OFFCURVE",
"258 863 OFFCURVE",
"282 863 CURVE SMOOTH",
"299 863 OFFCURVE",
"321 870 OFFCURVE",
"321 889 CURVE SMOOTH",
"321 917 OFFCURVE",
"300 905 OFFCURVE",
"300 929 CURVE SMOOTH",
"300 943 OFFCURVE",
"317 961 OFFCURVE",
"345 961 CURVE SMOOTH",
"374 961 OFFCURVE",
"391 945 OFFCURVE",
"391 913 CURVE SMOOTH",
"391 889 OFFCURVE",
"340 881 OFFCURVE",
"340 811 CURVE"
);
}
);
};
components = (
{
name = E;
},
{
name = hookabovecomb;
transform = "{1, 0, 0, 1, 66, 304}";
}
);
layerId = "3AE1663F-34E8-4710-91A2-69F84C961E5F";
width = 696;
}
);
leftKerningGroup = E;
rightKerningGroup = E;
unicode = 1EBA;
},
{
glyphname = Einvertedbreve;
lastChange = "2022-05-05 09:16:31 +0000";
layers = (
{
background = {
anchors = (
{
name = bottom;
position = "{346, 0}";
},
{
name = ogonek;
position = "{622, 10}";
},
{
name = top;
position = "{346, 924}";
},
{
name = topleft;
position = "{20, 754}";
}
);
paths = (
{
closed = 1;
nodes = (
"639 0 LINE",
"639 235 LINE",
"604 235 LINE",
"602 123 OFFCURVE",
"545 25 OFFCURVE",
"446 25 CURVE SMOOTH",
"8 25 LINE",
"8 0 LINE"
);
},
{
closed = 1;
nodes = (
"260 15 LINE",
"260 744 LINE",
"126 744 LINE",
"126 15 LINE"
);
},
{
closed = 1;
nodes = (
"450 216 LINE",
"450 526 LINE",
"415 526 LINE",
"415 418 OFFCURVE",
"381 388 OFFCURVE",
"257 388 CURVE",
"257 363 LINE",
"381 363 OFFCURVE",
"412 328 OFFCURVE",
"415 216 CURVE"
);
},
{
closed = 1;
nodes = (
"609 549 LINE",
"609 754 LINE",
"8 754 LINE",
"8 729 LINE",
"416 729 LINE SMOOTH",
"515 729 OFFCURVE",
"572 646 OFFCURVE",
"574 549 CURVE"
);
},
{
closed = 1;
nodes = (
"223 792 LINE",
"226 838 OFFCURVE",
"274 856 OFFCURVE",
"344 856 CURVE SMOOTH",
"415 856 OFFCURVE",
"465 836 OFFCURVE",
"468 792 CURVE",
"502 792 LINE",
"502 869 OFFCURVE",
"452 924 OFFCURVE",
"346 924 CURVE SMOOTH",
"243 924 OFFCURVE",
"189 873 OFFCURVE",
"189 792 CURVE"
);
}
);
};
components = (
{
name = E;
},
{
name = breveinvertedcomb.case;
transform = "{1, 0, 0, 1, 179, 0}";
}
);
layerId = UUID0;
width = 691;
},
{
background = {
anchors = (
{
name = bottom;
position = "{348, 0}";
},
{
name = ogonek;
position = "{626, 10}";
},
{
name = top;
position = "{348, 924}";
},
{
name = topleft;
position = "{20, 754}";
}
);
paths = (
{
closed = 1;
nodes = (
"661 0 LINE",
"661 245 LINE",
"621 245 LINE",
"619 131 OFFCURVE",
"554 30 OFFCURVE",
"443 30 CURVE SMOOTH",
"20 30 LINE",
"20 0 LINE"
);
},
{
closed = 1;
nodes = (
"273 15 LINE",
"273 754 LINE",
"115 754 LINE",
"115 15 LINE"
);
},
{
closed = 1;
nodes = (
"492 216 LINE",
"492 516 LINE",
"452 516 LINE",
"450 427 OFFCURVE",
"401 386 OFFCURVE",
"269 386 CURVE",
"269 356 LINE",
"401 356 OFFCURVE",
"450 312 OFFCURVE",
"452 216 CURVE"
);
},
{
closed = 1;
nodes = (
"646 554 LINE",
"646 754 LINE",
"20 754 LINE",
"20 724 LINE",
"443 724 LINE SMOOTH",
"545 724 OFFCURVE",
"604 646 OFFCURVE",
"606 554 CURVE"
);
},
{
closed = 1;
nodes = (
"225 787 LINE",
"228 819 OFFCURVE",
"276 831 OFFCURVE",
"346 831 CURVE SMOOTH",
"417 831 OFFCURVE",
"467 817 OFFCURVE",
"470 787 CURVE",
"514 787 LINE",
"514 864 OFFCURVE",
"461 924 OFFCURVE",
"348 924 CURVE SMOOTH",
"238 924 OFFCURVE",
"181 868 OFFCURVE",
"181 787 CURVE"
);
}
);
};
components = (
{
name = E;
},
{
name = breveinvertedcomb.case;
transform = "{1, 0, 0, 1, 171, 0}";
}
);
layerId = "3AE1663F-34E8-4710-91A2-69F84C961E5F";
width = 696;
}
);
leftKerningGroup = E;
rightKerningGroup = E;
unicode = 0206;
},
{
glyphname = Emacron;
lastChange = "2022-05-05 12:25:24 +0000";
layers = (
{
background = {
anchors = (
{
name = bottom;
position = "{346, 0}";
},
{
name = ogonek;
position = "{622, 10}";
},
{
name = top;
position = "{346, 754}";
},
{
name = topleft;
position = "{20, 754}";
}
);
paths = (
{
closed = 1;
nodes = (
"639 0 LINE",
"639 235 LINE",
"604 235 LINE",
"602 123 OFFCURVE",
"545 25 OFFCURVE",
"446 25 CURVE SMOOTH",
"8 25 LINE",
"8 0 LINE"
);
},
{
closed = 1;
nodes = (
"260 15 LINE",
"260 744 LINE",
"126 744 LINE",
"126 15 LINE"
);
},
{
closed = 1;
nodes = (
"450 216 LINE",
"450 526 LINE",
"415 526 LINE",
"415 418 OFFCURVE",
"381 388 OFFCURVE",
"257 388 CURVE",
"257 363 LINE",
"381 363 OFFCURVE",
"412 328 OFFCURVE",
"415 216 CURVE"
);
},
{
closed = 1;
nodes = (
"609 549 LINE",
"609 754 LINE",
"8 754 LINE",
"8 729 LINE",
"416 729 LINE SMOOTH",
"515 729 OFFCURVE",
"572 646 OFFCURVE",
"574 549 CURVE"
);
},
{
closed = 1;
nodes = (
"508 851 LINE",
"508 917 LINE",
"188 917 LINE",
"188 851 LINE"
);
}
);
};
components = (
{
name = E;
},
{
name = macroncomb.case;
transform = "{1, 0, 0, 1, 176, 0}";
}
);
layerId = UUID0;
width = 691;
},
{
background = {
anchors = (
{
name = bottom;
position = "{348, 0}";
},
{
name = ogonek;
position = "{626, 10}";
},
{
name = top;
position = "{348, 754}";
},
{
name = topleft;
position = "{20, 754}";
}
);
paths = (
{
closed = 1;
nodes = (
"661 0 LINE",
"661 245 LINE",
"621 245 LINE",
"619 131 OFFCURVE",
"554 30 OFFCURVE",
"443 30 CURVE SMOOTH",
"20 30 LINE",
"20 0 LINE"
);
},
{
closed = 1;
nodes = (
"273 15 LINE",
"273 754 LINE",
"115 754 LINE",
"115 15 LINE"
);
},
{
closed = 1;
nodes = (
"492 216 LINE",
"492 516 LINE",
"452 516 LINE",
"450 427 OFFCURVE",
"401 386 OFFCURVE",
"269 386 CURVE",
"269 356 LINE",
"401 356 OFFCURVE",
"450 312 OFFCURVE",
"452 216 CURVE"
);
},
{
closed = 1;
nodes = (
"646 554 LINE",
"646 754 LINE",
"20 754 LINE",
"20 724 LINE",
"443 724 LINE SMOOTH",
"545 724 OFFCURVE",
"604 646 OFFCURVE",
"606 554 CURVE"
);
},
{
closed = 1;
nodes = (
"526 812 LINE",
"526 898 LINE",
"186 898 LINE",
"186 812 LINE"
);
}
);
};
components = (
{
name = E;
},
{
name = macroncomb.case;
transform = "{1, 0, 0, 1, 175, 23}";
}
);
layerId = "3AE1663F-34E8-4710-91A2-69F84C961E5F";
width = 696;
}
);
leftKerningGroup = E;
rightKerningGroup = E;
unicode = 0112;
},
{
glyphname = Eogonek;
lastChange = "2022-05-05 09:16:31 +0000";
layers = (
{
background = {
anchors = (
{
name = bottom;
position = "{346, 0}";
},
{
name = ogonek;
position = "{622, 10}";
},
{
name = top;
position = "{346, 754}";
},
{
name = topleft;
position = "{20, 754}";
}
);
paths = (
{
closed = 1;
nodes = (
"639 0 LINE",
"639 235 LINE",
"604 235 LINE",
"602 123 OFFCURVE",
"545 25 OFFCURVE",
"446 25 CURVE SMOOTH",
"8 25 LINE",
"8 0 LINE"
);
},
{
closed = 1;
nodes = (
"260 15 LINE",
"260 744 LINE",
"126 744 LINE",
"126 15 LINE"
);
},
{
closed = 1;
nodes = (
"450 216 LINE",
"450 526 LINE",
"415 526 LINE",
"415 418 OFFCURVE",
"381 388 OFFCURVE",
"257 388 CURVE",
"257 363 LINE",
"381 363 OFFCURVE",
"412 328 OFFCURVE",
"415 216 CURVE"
);
},
{
closed = 1;
nodes = (
"609 549 LINE",
"609 754 LINE",
"8 754 LINE",
"8 729 LINE",
"416 729 LINE SMOOTH",
"515 729 OFFCURVE",
"572 646 OFFCURVE",
"574 549 CURVE"
);
},
{
closed = 1;
nodes = (
"829 -231 OFFCURVE",
"867 -214 OFFCURVE",
"888 -188 CURVE",
"888 -161 LINE",
"884 -161 LINE",
"855 -182 OFFCURVE",
"835 -190 OFFCURVE",
"817 -190 CURVE SMOOTH",
"788 -190 OFFCURVE",
"771 -171 OFFCURVE",
"771 -137 CURVE SMOOTH",
"771 -87 OFFCURVE",
"809 -34 OFFCURVE",
"885 22 CURVE",
"849 22 LINE",
"738 -51 OFFCURVE",
"701 -94 OFFCURVE",
"701 -147 CURVE SMOOTH",
"701 -198 OFFCURVE",
"737 -231 OFFCURVE",
"791 -231 CURVE"
);
}
);
};
components = (
{
name = E;
},
{
name = ogonekcomb;
transform = "{1, 0, 0, 1, 425, -12}";
}
);
layerId = UUID0;
width = 691;
},
{
background = {
anchors = (
{
name = bottom;
position = "{348, 0}";
},
{
name = ogonek;
position = "{626, 10}";
},
{
name = top;
position = "{348, 754}";
},
{
name = topleft;
position = "{20, 754}";
}
);
paths = (
{
closed = 1;
nodes = (
"661 0 LINE",
"661 245 LINE",
"621 245 LINE",
"619 131 OFFCURVE",
"554 30 OFFCURVE",
"443 30 CURVE SMOOTH",
"20 30 LINE",
"20 0 LINE"
);
},
{
closed = 1;
nodes = (
"273 15 LINE",
"273 754 LINE",
"115 754 LINE",
"115 15 LINE"
);
},
{
closed = 1;
nodes = (
"492 216 LINE",
"492 516 LINE",
"452 516 LINE",
"450 427 OFFCURVE",
"401 386 OFFCURVE",
"269 386 CURVE",
"269 356 LINE",
"401 356 OFFCURVE",
"450 312 OFFCURVE",
"452 216 CURVE"
);
},
{
closed = 1;
nodes = (
"646 554 LINE",
"646 754 LINE",
"20 754 LINE",
"20 724 LINE",
"443 724 LINE SMOOTH",
"545 724 OFFCURVE",
"604 646 OFFCURVE",
"606 554 CURVE"
);
},
{
closed = 1;
nodes = (
"834 -231 OFFCURVE",
"870 -215 OFFCURVE",
"893 -188 CURVE",
"893 -153 LINE",
"889 -153 LINE",
"868 -171 OFFCURVE",
"851 -178 OFFCURVE",
"832 -178 CURVE SMOOTH",
"808 -178 OFFCURVE",
"796 -166 OFFCURVE",
"796 -140 CURVE SMOOTH",
"796 -94 OFFCURVE",
"833 -33 OFFCURVE",
"893 22 CURVE",
"847 22 LINE",
"743 -53 OFFCURVE",
"706 -97 OFFCURVE",
"706 -149 CURVE SMOOTH",
"706 -199 OFFCURVE",
"741 -231 OFFCURVE",
"795 -231 CURVE SMOOTH"
);
}
);
};
components = (
{
name = E;
},
{
name = ogonekcomb;
transform = "{1, 0, 0, 1, 429, -12}";
}
);
layerId = "3AE1663F-34E8-4710-91A2-69F84C961E5F";
width = 696;
}
);
leftKerningGroup = E;
rightKerningGroup = E;
unicode = 0118;
},
{
glyphname = Etilde;
lastChange = "2022-05-05 12:25:02 +0000";
layers = (
{
background = {
anchors = (
{
name = bottom;
position = "{346, 0}";
},
{
name = ogonek;
position = "{622, 10}";
},
{
name = top;
position = "{346, 1004}";
},
{
name = topleft;
position = "{20, 754}";
}
);
paths = (
{
closed = 1;
nodes = (
"639 0 LINE",
"639 235 LINE",
"604 235 LINE",
"602 123 OFFCURVE",
"545 25 OFFCURVE",
"446 25 CURVE SMOOTH",
"8 25 LINE",
"8 0 LINE"
);
},
{
closed = 1;
nodes = (
"260 15 LINE",
"260 744 LINE",
"126 744 LINE",
"126 15 LINE"
);
},
{
closed = 1;
nodes = (
"450 216 LINE",
"450 526 LINE",
"415 526 LINE",
"415 418 OFFCURVE",
"381 388 OFFCURVE",
"257 388 CURVE",
"257 363 LINE",
"381 363 OFFCURVE",
"412 328 OFFCURVE",
"415 216 CURVE"
);
},
{
closed = 1;
nodes = (
"609 549 LINE",
"609 754 LINE",
"8 754 LINE",
"8 729 LINE",
"416 729 LINE SMOOTH",
"515 729 OFFCURVE",
"572 646 OFFCURVE",
"574 549 CURVE"
);
},
{
closed = 1;
nodes = (
"203 862 LINE",
"210 890 OFFCURVE",
"233 911 OFFCURVE",
"266 911 CURVE SMOOTH",
"313 911 OFFCURVE",
"347 863 OFFCURVE",
"403 863 CURVE SMOOTH",
"472 863 OFFCURVE",
"508 927 OFFCURVE",
"522 990 CURVE",
"488 990 LINE",
"481 969 OFFCURVE",
"463 939 OFFCURVE",
"425 939 CURVE SMOOTH",
"379 939 OFFCURVE",
"342 987 OFFCURVE",
"288 987 CURVE SMOOTH",
"222 987 OFFCURVE",
"180 924 OFFCURVE",
"170 862 CURVE"
);
}
);
};
components = (
{
name = E;
},
{
name = tildecomb.case;
transform = "{1, 0, 0, 1, 160, 70}";
}
);
layerId = UUID0;
width = 691;
},
{
background = {
anchors = (
{
name = bottom;
position = "{348, 0}";
},
{
name = ogonek;
position = "{626, 10}";
},
{
name = top;
position = "{348, 1001}";
},
{
name = topleft;
position = "{20, 754}";
}
);
paths = (
{
closed = 1;
nodes = (
"661 0 LINE",
"661 245 LINE",
"621 245 LINE",
"619 131 OFFCURVE",
"554 30 OFFCURVE",
"443 30 CURVE SMOOTH",
"20 30 LINE",
"20 0 LINE"
);
},
{
closed = 1;
nodes = (
"273 15 LINE",
"273 754 LINE",
"115 754 LINE",
"115 15 LINE"
);
},
{
closed = 1;
nodes = (
"492 216 LINE",
"492 516 LINE",
"452 516 LINE",
"450 427 OFFCURVE",
"401 386 OFFCURVE",
"269 386 CURVE",
"269 356 LINE",
"401 356 OFFCURVE",
"450 312 OFFCURVE",
"452 216 CURVE"
);
},
{
closed = 1;
nodes = (
"646 554 LINE",
"646 754 LINE",
"20 754 LINE",
"20 724 LINE",
"443 724 LINE SMOOTH",
"545 724 OFFCURVE",
"604 646 OFFCURVE",
"606 554 CURVE"
);
},
{
closed = 1;
nodes = (
"185 864 LINE",
"194 888 OFFCURVE",
"225 905 OFFCURVE",
"268 905 CURVE SMOOTH",
"315 905 OFFCURVE",
"349 865 OFFCURVE",
"405 865 CURVE SMOOTH",
"486 865 OFFCURVE",
"528 933 OFFCURVE",
"544 1001 CURVE",
"510 1001 LINE",
"501 984 OFFCURVE",
"477 961 OFFCURVE",
"427 961 CURVE SMOOTH",
"381 961 OFFCURVE",
"344 1001 OFFCURVE",
"290 1001 CURVE SMOOTH",
"212 1001 OFFCURVE",
"164 931 OFFCURVE",
"152 864 CURVE"
);
}
);
};
components = (
{
name = E;
},
{
name = tildecomb.case;
transform = "{1, 0, 0, 1, 142, 77}";
}
);
layerId = "3AE1663F-34E8-4710-91A2-69F84C961E5F";
width = 696;
}
);
leftKerningGroup = E;
rightKerningGroup = E;
unicode = 1EBC;
},
{
glyphname = Schwa;
lastChange = "2022-05-05 09:13:26 +0000";
layers = (
{
background = {
paths = (
{
closed = 1;
nodes = (
"587 -13 OFFCURVE",
"723 187 OFFCURVE",
"723 378 CURVE SMOOTH",
"723 581 OFFCURVE",
"570 764 OFFCURVE",
"377 764 CURVE SMOOTH",
"235 764 OFFCURVE",
"101 664 OFFCURVE",
"57 513 CURVE",
"91 513 LINE",
"136 645 OFFCURVE",
"251 733 OFFCURVE",
"382 733 CURVE SMOOTH",
"516 733 OFFCURVE",
"563 642 OFFCURVE",
"563 374 CURVE SMOOTH",
"563 85 OFFCURVE",
"508 17 OFFCURVE",
"380 17 CURVE SMOOTH",
"269 17 OFFCURVE",
"215 69 OFFCURVE",
"215 183 CURVE SMOOTH",
"215 309 LINE",
"596 309 LINE",
"596 343 LINE",
"52 343 LINE",
"52 333 LINE SMOOTH",
"52 120 OFFCURVE",
"206 -13 OFFCURVE",
"377 -13 CURVE SMOOTH"
);
}
);
};
layerId = UUID0;
paths = (
{
closed = 1;
nodes = (
"587 -13 OFFCURVE",
"723 187 OFFCURVE",
"723 378 CURVE SMOOTH",
"723 581 OFFCURVE",
"570 764 OFFCURVE",
"377 764 CURVE SMOOTH",
"235 764 OFFCURVE",
"101 664 OFFCURVE",
"57 513 CURVE",
"91 513 LINE",
"136 645 OFFCURVE",
"251 733 OFFCURVE",
"382 733 CURVE SMOOTH",
"516 733 OFFCURVE",
"563 642 OFFCURVE",
"563 374 CURVE SMOOTH",
"563 85 OFFCURVE",
"508 17 OFFCURVE",
"380 17 CURVE SMOOTH",
"269 17 OFFCURVE",
"215 69 OFFCURVE",
"215 183 CURVE SMOOTH",
"215 309 LINE",
"596 309 LINE",
"596 343 LINE",
"52 343 LINE",
"52 333 LINE SMOOTH",
"52 120 OFFCURVE",
"206 -13 OFFCURVE",
"377 -13 CURVE SMOOTH"
);
}
);
width = 753;
},
{
background = {
paths = (
{
closed = 1;
nodes = (
"611 -13 OFFCURVE",
"755 187 OFFCURVE",
"755 378 CURVE SMOOTH",
"755 581 OFFCURVE",
"594 764 OFFCURVE",
"385 764 CURVE SMOOTH",
"243 764 OFFCURVE",
"109 664 OFFCURVE",
"65 513 CURVE",
"104 513 LINE",
"147 642 OFFCURVE",
"258 728 OFFCURVE",
"385 728 CURVE SMOOTH",
"518 728 OFFCURVE",
"566 638 OFFCURVE",
"566 374 CURVE SMOOTH",
"566 89 OFFCURVE",
"511 21 OFFCURVE",
"388 21 CURVE SMOOTH",
"277 21 OFFCURVE",
"223 73 OFFCURVE",
"223 183 CURVE SMOOTH",
"223 309 LINE",
"604 309 LINE",
"604 348 LINE",
"40 348 LINE",
"40 333 LINE SMOOTH",
"40 120 OFFCURVE",
"204 -13 OFFCURVE",
"385 -13 CURVE SMOOTH"
);
}
);
};
layerId = "3AE1663F-34E8-4710-91A2-69F84C961E5F";
paths = (
{
closed = 1;
nodes = (
"611 -13 OFFCURVE",
"755 187 OFFCURVE",
"755 378 CURVE SMOOTH",
"755 581 OFFCURVE",
"594 764 OFFCURVE",
"385 764 CURVE SMOOTH",
"243 764 OFFCURVE",
"109 664 OFFCURVE",
"65 513 CURVE",
"104 513 LINE",
"147 642 OFFCURVE",
"258 728 OFFCURVE",
"385 728 CURVE SMOOTH",
"518 728 OFFCURVE",
"566 638 OFFCURVE",
"566 374 CURVE SMOOTH",
"566 89 OFFCURVE",
"511 21 OFFCURVE",
"388 21 CURVE SMOOTH",
"277 21 OFFCURVE",
"223 73 OFFCURVE",
"223 183 CURVE SMOOTH",
"223 309 LINE",
"604 309 LINE",
"604 348 LINE",
"40 348 LINE",
"40 333 LINE SMOOTH",
"40 120 OFFCURVE",
"204 -13 OFFCURVE",
"385 -13 CURVE SMOOTH"
);
}
);
width = 795;
}
);
unicode = 018F;
},
{
glyphname = F;
lastChange = "2022-05-05 09:13:26 +0000";
layers = (
{
anchors = (
{
name = bottom;
position = "{329, 0}";
},
{
name = top;
position = "{329, 754}";
}
);
background = {
anchors = (
{
name = bottom;
position = "{329, 0}";
},
{
name = top;
position = "{329, 754}";
}
);
paths = (
{
closed = 1;
nodes = (
"622 509 LINE",
"622 754 LINE",
"11 754 LINE",
"11 729 LINE",
"429 729 LINE SMOOTH",
"528 729 OFFCURVE",
"585 626 OFFCURVE",
"587 509 CURVE"
);
},
{
closed = 1;
nodes = (
"373 0 LINE",
"373 25 LINE",
"11 25 LINE",
"11 0 LINE"
);
},
{
closed = 1;
nodes = (
"263 15 LINE",
"263 754 LINE",
"129 754 LINE",
"129 15 LINE"
);
},
{
closed = 1;
nodes = (
"453 216 LINE",
"453 526 LINE",
"418 526 LINE",
"418 418 OFFCURVE",
"384 388 OFFCURVE",
"260 388 CURVE",
"260 363 LINE",
"384 363 OFFCURVE",
"415 328 OFFCURVE",
"418 216 CURVE"
);
}
);
};
layerId = UUID0;
paths = (
{
closed = 1;
nodes = (
"622 509 LINE",
"622 754 LINE",
"11 754 LINE",
"11 729 LINE",
"429 729 LINE SMOOTH",
"528 729 OFFCURVE",
"585 626 OFFCURVE",
"587 509 CURVE"
);
},
{
closed = 1;
nodes = (
"373 0 LINE",
"373 25 LINE",
"11 25 LINE",
"11 0 LINE"
);
},
{
closed = 1;
nodes = (
"263 15 LINE",
"263 754 LINE",
"129 754 LINE",
"129 15 LINE"
);
},
{
closed = 1;
nodes = (
"453 216 LINE",
"453 526 LINE",
"418 526 LINE",
"418 418 OFFCURVE",
"384 388 OFFCURVE",
"260 388 CURVE",
"260 363 LINE",
"384 363 OFFCURVE",
"415 328 OFFCURVE",
"418 216 CURVE"
);
}
);
width = 658;
},
{
anchors = (
{
name = bottom;
position = "{351, 0}";
},
{
name = top;
position = "{351, 754}";
}
);
background = {
anchors = (
{
name = bottom;
position = "{351, 0}";
},
{
name = top;
position = "{351, 754}";
}
);
paths = (
{
closed = 1;
nodes = (
"646 539 LINE",
"646 754 LINE",
"20 754 LINE",
"20 724 LINE",
"443 724 LINE SMOOTH",
"545 724 OFFCURVE",
"604 639 OFFCURVE",
"606 539 CURVE"
);
},
{
closed = 1;
nodes = (
"401 0 LINE",
"401 30 LINE",
"20 30 LINE",
"20 0 LINE"
);
},
{
closed = 1;
nodes = (
"273 14 LINE",
"273 754 LINE",
"115 754 LINE",
"115 14 LINE"
);
},
{
closed = 1;
nodes = (
"492 215 LINE",
"492 515 LINE",
"452 515 LINE",
"450 426 OFFCURVE",
"401 385 OFFCURVE",
"269 385 CURVE SMOOTH",
"269 355 LINE",
"401 355 OFFCURVE",
"450 311 OFFCURVE",
"452 215 CURVE"
);
}
);
};
layerId = "3AE1663F-34E8-4710-91A2-69F84C961E5F";
paths = (
{
closed = 1;
nodes = (
"646 539 LINE",
"646 754 LINE",
"20 754 LINE",
"20 724 LINE",
"443 724 LINE SMOOTH",
"545 724 OFFCURVE",
"604 639 OFFCURVE",
"606 539 CURVE"
);
},
{
closed = 1;
nodes = (
"401 0 LINE",
"401 30 LINE",
"20 30 LINE",
"20 0 LINE"
);
},
{
closed = 1;
nodes = (
"273 14 LINE",
"273 754 LINE",
"115 754 LINE",
"115 14 LINE"
);
},
{
closed = 1;
nodes = (
"492 215 LINE",
"492 515 LINE",
"452 515 LINE",
"450 426 OFFCURVE",
"401 385 OFFCURVE",
"269 385 CURVE SMOOTH",
"269 355 LINE",
"401 355 OFFCURVE",
"450 311 OFFCURVE",
"452 215 CURVE"
);
}
);
width = 702;
}
);
unicode = 0046;
},
{
glyphname = G;
lastChange = "2022-05-05 09:13:26 +0000";
layers = (
{
anchors = (
{
name = bottom;
position = "{369, 0}";
},
{
name = top;
position = "{369, 754}";
}
);
background = {
anchors = (
{
name = bottom;
position = "{369, 0}";
},
{
name = top;
position = "{369, 754}";
}
);
paths = (
{
closed = 1;
nodes = (
"532 -12 OFFCURVE",
"665 89 OFFCURVE",
"665 259 CURVE SMOOTH",
"665 283 LINE",
"516 283 LINE",
"516 140 LINE SMOOTH",
"516 64 OFFCURVE",
"465 20 OFFCURVE",
"378 20 CURVE SMOOTH",
"270 20 OFFCURVE",
"205 87 OFFCURVE",
"205 365 CURVE SMOOTH",
"205 667 OFFCURVE",
"282 736 OFFCURVE",
"394 736 CURVE SMOOTH",
"525 736 OFFCURVE",
"580 640 OFFCURVE",
"602 528 CURVE",
"627 528 LINE",
"627 754 LINE",
"602 754 LINE",
"558 704 LINE",
"508 747 OFFCURVE",
"457 766 OFFCURVE",
"394 766 CURVE SMOOTH",
"195 766 OFFCURVE",
"45 579 OFFCURVE",
"45 370 CURVE SMOOTH",
"45 177 OFFCURVE",
"174 -12 OFFCURVE",
"381 -12 CURVE SMOOTH"
);
},
{
closed = 1;
nodes = (
"723 268 LINE",
"723 293 LINE",
"393 293 LINE",
"393 268 LINE"
);
}
);
};
layerId = UUID0;
paths = (
{
closed = 1;
nodes = (
"532 -12 OFFCURVE",
"665 89 OFFCURVE",
"665 259 CURVE SMOOTH",
"665 283 LINE",
"516 283 LINE",
"516 140 LINE SMOOTH",
"516 64 OFFCURVE",
"465 20 OFFCURVE",
"378 20 CURVE SMOOTH",
"270 20 OFFCURVE",
"205 87 OFFCURVE",
"205 365 CURVE SMOOTH",
"205 667 OFFCURVE",
"282 736 OFFCURVE",
"394 736 CURVE SMOOTH",
"525 736 OFFCURVE",
"580 640 OFFCURVE",
"602 528 CURVE",
"627 528 LINE",
"627 754 LINE",
"602 754 LINE",
"558 704 LINE",
"508 747 OFFCURVE",
"457 766 OFFCURVE",
"394 766 CURVE SMOOTH",
"195 766 OFFCURVE",
"45 579 OFFCURVE",
"45 370 CURVE SMOOTH",
"45 177 OFFCURVE",
"174 -12 OFFCURVE",
"381 -12 CURVE SMOOTH"
);
},
{
closed = 1;
nodes = (
"723 268 LINE",
"723 293 LINE",
"393 293 LINE",
"393 268 LINE"
);
}
);
width = 737;
},
{
anchors = (
{
name = bottom;
position = "{395, 0}";
},
{
name = top;
position = "{395, 754}";
}
);
background = {
anchors = (
{
name = bottom;
position = "{395, 0}";
},
{
name = top;
position = "{395, 754}";
}
);
paths = (
{
closed = 1;
nodes = (
"532 -13 OFFCURVE",
"669 68 OFFCURVE",
"701 170 CURVE",
"701 282 LINE",
"519 282 LINE",
"519 145 LINE SMOOTH",
"519 69 OFFCURVE",
"477 24 OFFCURVE",
"395 24 CURVE SMOOTH",
"296 24 OFFCURVE",
"240 91 OFFCURVE",
"240 358 CURVE SMOOTH",
"240 672 OFFCURVE",
"317 728 OFFCURVE",
"420 728 CURVE SMOOTH",
"557 728 OFFCURVE",
"616 622 OFFCURVE",
"632 518 CURVE",
"662 518 LINE",
"662 754 LINE",
"632 754 LINE",
"593 704 LINE",
"536 747 OFFCURVE",
"492 763 OFFCURVE",
"427 763 CURVE SMOOTH",
"215 763 OFFCURVE",
"50 589 OFFCURVE",
"50 367 CURVE SMOOTH",
"50 155 OFFCURVE",
"202 -13 OFFCURVE",
"397 -13 CURVE SMOOTH"
);
},
{
closed = 1;
nodes = (
"778 270 LINE",
"778 300 LINE",
"423 300 LINE",
"423 270 LINE"
);
}
);
};
layerId = "3AE1663F-34E8-4710-91A2-69F84C961E5F";
paths = (
{
closed = 1;
nodes = (
"532 -13 OFFCURVE",
"669 68 OFFCURVE",
"701 170 CURVE",
"701 282 LINE",
"519 282 LINE",
"519 145 LINE SMOOTH",
"519 69 OFFCURVE",
"477 24 OFFCURVE",
"395 24 CURVE SMOOTH",
"296 24 OFFCURVE",
"240 91 OFFCURVE",
"240 358 CURVE SMOOTH",
"240 672 OFFCURVE",
"317 728 OFFCURVE",
"420 728 CURVE SMOOTH",
"557 728 OFFCURVE",
"616 622 OFFCURVE",
"632 518 CURVE",
"662 518 LINE",
"662 754 LINE",
"632 754 LINE",
"593 704 LINE",
"536 747 OFFCURVE",
"492 763 OFFCURVE",
"427 763 CURVE SMOOTH",
"215 763 OFFCURVE",
"50 589 OFFCURVE",
"50 367 CURVE SMOOTH",
"50 155 OFFCURVE",
"202 -13 OFFCURVE",
"397 -13 CURVE SMOOTH"
);
},
{
closed = 1;
nodes = (
"778 270 LINE",
"778 300 LINE",
"423 300 LINE",
"423 270 LINE"
);
}
);
width = 790;
}
);
leftKerningGroup = G;
rightKerningGroup = G;
unicode = 0047;
},
{
glyphname = Gacute;
lastChange = "2022-05-05 12:24:37 +0000";
layers = (
{
background = {
anchors = (
{
name = bottom;
position = "{369, 0}";
},
{
name = top;
position = "{369, 959}";
}
);
paths = (
{
closed = 1;
nodes = (
"532 -12 OFFCURVE",
"665 89 OFFCURVE",
"665 259 CURVE SMOOTH",
"665 283 LINE",
"516 283 LINE",
"516 140 LINE SMOOTH",
"516 64 OFFCURVE",
"465 20 OFFCURVE",
"378 20 CURVE SMOOTH",
"270 20 OFFCURVE",
"205 87 OFFCURVE",
"205 365 CURVE SMOOTH",
"205 667 OFFCURVE",
"282 736 OFFCURVE",
"394 736 CURVE SMOOTH",
"525 736 OFFCURVE",
"580 640 OFFCURVE",
"602 528 CURVE",
"627 528 LINE",
"627 754 LINE",
"602 754 LINE",
"558 704 LINE",
"508 747 OFFCURVE",
"457 766 OFFCURVE",
"394 766 CURVE SMOOTH",
"195 766 OFFCURVE",
"45 579 OFFCURVE",
"45 370 CURVE SMOOTH",
"45 177 OFFCURVE",
"174 -12 OFFCURVE",
"381 -12 CURVE SMOOTH"
);
},
{
closed = 1;
nodes = (
"723 268 LINE",
"723 293 LINE",
"393 293 LINE",
"393 268 LINE"
);
},
{
closed = 1;
nodes = (
"278 827 LINE",
"453 863 LINE SMOOTH",
"486 870 OFFCURVE",
"503 890 OFFCURVE",
"503 916 CURVE SMOOTH",
"503 942 OFFCURVE",
"487 959 OFFCURVE",
"459 959 CURVE SMOOTH",
"445 959 OFFCURVE",
"433 953 OFFCURVE",
"386 923 CURVE SMOOTH",
"235 827 LINE"
);
}
);
};
components = (
{
name = G;
},
{
name = acutecomb.case;
transform = "{1, 0, 0, 1, 225, 35}";
}
);
layerId = UUID0;
width = 737;
},
{
background = {
anchors = (
{
name = bottom;
position = "{395, 0}";
},
{
name = top;
position = "{395, 960}";
}
);
paths = (
{
closed = 1;
nodes = (
"532 -13 OFFCURVE",
"669 68 OFFCURVE",
"701 170 CURVE",
"701 282 LINE",
"519 282 LINE",
"519 145 LINE SMOOTH",
"519 69 OFFCURVE",
"477 24 OFFCURVE",
"395 24 CURVE SMOOTH",
"296 24 OFFCURVE",
"240 91 OFFCURVE",
"240 358 CURVE SMOOTH",
"240 672 OFFCURVE",
"317 728 OFFCURVE",
"420 728 CURVE SMOOTH",
"557 728 OFFCURVE",
"616 622 OFFCURVE",
"632 518 CURVE",
"662 518 LINE",
"662 754 LINE",
"632 754 LINE",
"593 704 LINE",
"536 747 OFFCURVE",
"492 763 OFFCURVE",
"427 763 CURVE SMOOTH",
"215 763 OFFCURVE",
"50 589 OFFCURVE",
"50 367 CURVE SMOOTH",
"50 155 OFFCURVE",
"202 -13 OFFCURVE",
"397 -13 CURVE SMOOTH"
);
},
{
closed = 1;
nodes = (
"778 270 LINE",
"778 300 LINE",
"423 300 LINE",
"423 270 LINE"
);
},
{
closed = 1;
nodes = (
"311 823 LINE",
"488 858 LINE SMOOTH",
"532 867 OFFCURVE",
"541 891 OFFCURVE",
"541 914 CURVE SMOOTH",
"541 938 OFFCURVE",
"524 960 OFFCURVE",
"491 960 CURVE SMOOTH",
"462 960 OFFCURVE",
"444 950 OFFCURVE",
"409 927 CURVE SMOOTH",
"248 823 LINE"
);
}
);
};
components = (
{
name = G;
},
{
name = acutecomb.case;
transform = "{1, 0, 0, 1, 238, 37}";
}
);
layerId = "3AE1663F-34E8-4710-91A2-69F84C961E5F";
width = 790;
}
);
leftKerningGroup = G;
rightKerningGroup = G;
unicode = 01F4;
},
{
glyphname = Gbreve;
lastChange = "2022-05-05 11:19:39 +0000";
layers = (
{
background = {
anchors = (
{
name = bottom;
position = "{369, 0}";
},
{
name = top;
position = "{369, 952}";
}
);
paths = (
{
closed = 1;
nodes = (
"532 -12 OFFCURVE",
"665 89 OFFCURVE",
"665 259 CURVE SMOOTH",
"665 283 LINE",
"516 283 LINE",
"516 140 LINE SMOOTH",
"516 64 OFFCURVE",
"465 20 OFFCURVE",
"378 20 CURVE SMOOTH",
"270 20 OFFCURVE",
"205 87 OFFCURVE",
"205 365 CURVE SMOOTH",
"205 667 OFFCURVE",
"282 736 OFFCURVE",
"394 736 CURVE SMOOTH",
"525 736 OFFCURVE",
"580 640 OFFCURVE",
"602 528 CURVE",
"627 528 LINE",
"627 754 LINE",
"602 754 LINE",
"558 704 LINE",
"508 747 OFFCURVE",
"457 766 OFFCURVE",
"394 766 CURVE SMOOTH",
"195 766 OFFCURVE",
"45 579 OFFCURVE",
"45 370 CURVE SMOOTH",
"45 177 OFFCURVE",
"174 -12 OFFCURVE",
"381 -12 CURVE SMOOTH"
);
},
{
closed = 1;
nodes = (
"723 268 LINE",
"723 293 LINE",
"393 293 LINE",
"393 268 LINE"
);
},
{
closed = 1;
nodes = (
"475 820 OFFCURVE",
"505 875 OFFCURVE",
"505 952 CURVE",
"471 952 LINE",
"468 908 OFFCURVE",
"438 888 OFFCURVE",
"367 888 CURVE SMOOTH",
"297 888 OFFCURVE",
"269 906 OFFCURVE",
"266 952 CURVE",
"232 952 LINE",
"232 871 OFFCURVE",
"266 820 OFFCURVE",
"369 820 CURVE SMOOTH"
);
}
);
};
components = (
{
name = G;
},
{
name = brevecomb.case;
transform = "{1, 0, 0, 1, 202, 61}";
}
);
layerId = UUID0;
width = 737;
},
{
background = {
anchors = (
{
name = bottom;
position = "{395, 0}";
},
{
name = top;
position = "{395, 962}";
}
);
paths = (
{
closed = 1;
nodes = (
"532 -13 OFFCURVE",
"669 68 OFFCURVE",
"701 170 CURVE",
"701 282 LINE",
"519 282 LINE",
"519 145 LINE SMOOTH",
"519 69 OFFCURVE",
"477 24 OFFCURVE",
"395 24 CURVE SMOOTH",
"296 24 OFFCURVE",
"240 91 OFFCURVE",
"240 358 CURVE SMOOTH",
"240 672 OFFCURVE",
"317 728 OFFCURVE",
"420 728 CURVE SMOOTH",
"557 728 OFFCURVE",
"616 622 OFFCURVE",
"632 518 CURVE",
"662 518 LINE",
"662 754 LINE",
"632 754 LINE",
"593 704 LINE",
"536 747 OFFCURVE",
"492 763 OFFCURVE",
"427 763 CURVE SMOOTH",
"215 763 OFFCURVE",
"50 589 OFFCURVE",
"50 367 CURVE SMOOTH",
"50 155 OFFCURVE",
"202 -13 OFFCURVE",
"397 -13 CURVE SMOOTH"
);
},
{
closed = 1;
nodes = (
"778 270 LINE",
"778 300 LINE",
"423 300 LINE",
"423 270 LINE"
);
},
{
closed = 1;
nodes = (
"488 825 OFFCURVE",
"541 885 OFFCURVE",
"541 962 CURVE",
"497 962 LINE",
"494 932 OFFCURVE",
"444 918 OFFCURVE",
"393 918 CURVE SMOOTH",
"343 918 OFFCURVE",
"295 930 OFFCURVE",
"292 962 CURVE",
"248 962 LINE",
"248 881 OFFCURVE",
"305 825 OFFCURVE",
"395 825 CURVE SMOOTH"
);
}
);
};
components = (
{
name = G;
},
{
name = brevecomb.case;
transform = "{1, 0, 0, 1, 218, 41}";
}
);
layerId = "3AE1663F-34E8-4710-91A2-69F84C961E5F";
width = 790;
}
);
leftKerningGroup = G;
rightKerningGroup = G;
unicode = 011E;
},
{
glyphname = Gcircumflex;
lastChange = "2022-05-05 12:24:42 +0000";
layers = (
{
background = {
anchors = (
{
name = bottom;
position = "{369, 0}";
},
{
name = top;
position = "{369, 881}";
}
);
paths = (
{
closed = 1;
nodes = (
"532 -12 OFFCURVE",
"665 89 OFFCURVE",
"665 259 CURVE SMOOTH",
"665 283 LINE",
"516 283 LINE",
"516 140 LINE SMOOTH",
"516 64 OFFCURVE",
"465 20 OFFCURVE",
"378 20 CURVE SMOOTH",
"270 20 OFFCURVE",
"205 87 OFFCURVE",
"205 365 CURVE SMOOTH",
"205 667 OFFCURVE",
"282 736 OFFCURVE",
"394 736 CURVE SMOOTH",
"525 736 OFFCURVE",
"580 640 OFFCURVE",
"602 528 CURVE",
"627 528 LINE",
"627 754 LINE",
"602 754 LINE",
"558 704 LINE",
"508 747 OFFCURVE",
"457 766 OFFCURVE",
"394 766 CURVE SMOOTH",
"195 766 OFFCURVE",
"45 579 OFFCURVE",
"45 370 CURVE SMOOTH",
"45 177 OFFCURVE",
"174 -12 OFFCURVE",
"381 -12 CURVE SMOOTH"
);
},
{
closed = 1;
nodes = (
"723 268 LINE",
"723 293 LINE",
"393 293 LINE",
"393 268 LINE"
);
},
{
closed = 1;
nodes = (
"260 824 LINE",
"369 875 LINE",
"478 824 LINE",
"521 824 LINE",
"400 936 LINE",
"338 936 LINE",
"217 824 LINE"
);
}
);
};
components = (
{
name = G;
},
{
name = circumflexcomb.case;
transform = "{1, 0, 0, 1, 197, 11}";
}
);
layerId = UUID0;
width = 737;
},
{
background = {
anchors = (
{
name = bottom;
position = "{395, 0}";
},
{
name = top;
position = "{395, 893}";
}
);
paths = (
{
closed = 1;
nodes = (
"532 -13 OFFCURVE",
"669 68 OFFCURVE",
"701 170 CURVE",
"701 282 LINE",
"519 282 LINE",
"519 145 LINE SMOOTH",
"519 69 OFFCURVE",
"477 24 OFFCURVE",
"395 24 CURVE SMOOTH",
"296 24 OFFCURVE",
"240 91 OFFCURVE",
"240 358 CURVE SMOOTH",
"240 672 OFFCURVE",
"317 728 OFFCURVE",
"420 728 CURVE SMOOTH",
"557 728 OFFCURVE",
"616 622 OFFCURVE",
"632 518 CURVE",
"662 518 LINE",
"662 754 LINE",
"632 754 LINE",
"593 704 LINE",
"536 747 OFFCURVE",
"492 763 OFFCURVE",
"427 763 CURVE SMOOTH",
"215 763 OFFCURVE",
"50 589 OFFCURVE",
"50 367 CURVE SMOOTH",
"50 155 OFFCURVE",
"202 -13 OFFCURVE",
"397 -13 CURVE SMOOTH"
);
},
{
closed = 1;
nodes = (
"778 270 LINE",
"778 300 LINE",
"423 300 LINE",
"423 270 LINE"
);
},
{
closed = 1;
nodes = (
"276 827 LINE",
"395 869 LINE",
"514 827 LINE",
"567 827 LINE",
"426 943 LINE",
"364 943 LINE",
"223 827 LINE"
);
}
);
};
components = (
{
name = G;
},
{
name = circumflexcomb.case;
transform = "{1, 0, 0, 1, 183, 20}";
}
);
layerId = "3AE1663F-34E8-4710-91A2-69F84C961E5F";
width = 790;
}
);
leftKerningGroup = G;
rightKerningGroup = G;
unicode = 011C;
},
